<?xml version="1.0" standalone="no"?>
<!DOCTYPE svg PUBLIC "-//W3C//DTD SVG 1.1//EN" "http://www.w3.org/Graphics/SVG/1.1/DTD/svg11.dtd" >
<svg xmlns="http://www.w3.org/2000/svg" xmlns:xlink="http://www.w3.org/1999/xlink" version="1.1">
<metadata>
Created by FontForge 20170731 at Mon Sep 24 02:36:35 2018
 By Aleksey,,,
Copyright (C) 2001, 2011 Hoefler &#38; Co. http://www.typography.com |DCNT
</metadata>
<defs>
<font id="GothamNarrSSm-XLight" horiz-adv-x="541" >
  <font-face 
    font-family="GothamSSm Narrow ExtraLight"
    font-weight="250"
    font-stretch="semi-condensed"
    units-per-em="1000"
    panose-1="0 0 0 0 0 0 0 0 0 0"
    ascent="800"
    descent="-200"
    x-height="533"
    cap-height="728"
    bbox="-81 -211 1056 998"
    underline-thickness="50"
    underline-position="-200"
    unicode-range="U+0020-FB04"
  />
<missing-glyph horiz-adv-x="504" 
d="M2 -200v1000h500v-1000h-500zM73 750l179 -390l179 390h-358zM52 -76l172 376l-172 376v-752zM452 676l-172 -376l172 -376v752zM252 240l-179 -390h358z" />
    <glyph glyph-name="f_f" unicode="ff" horiz-adv-x="652" 
d="M122 0v496h-71v37h71v61q0 84 41 125q35 35 95 35q34 0 61 -10v-39q-27 10 -61 10q-95 0 -95 -123v-59h154v-37h-154v-496h-41zM438 0v496h-71v37h71v61q0 84 41 125q35 35 95 35q34 0 61 -10v-39q-27 10 -61 10q-95 0 -95 -123v-59h154v-37h-154v-496h-41z" />
    <glyph glyph-name="fi" unicode="fi" horiz-adv-x="556" 
d="M122 0v496h-71v37h71v61q0 84 41 125q35 35 95 35q34 0 61 -10v-39q-27 10 -61 10q-95 0 -95 -123v-59h154v-37h-154v-496h-41zM411 668v67h50v-67h-50zM415 0v533h41v-533h-41z" />
    <glyph glyph-name="fl" unicode="fl" horiz-adv-x="556" 
d="M122 0v496h-71v37h71v61q0 84 41 125q35 35 95 35q34 0 61 -10v-39q-27 10 -61 10q-95 0 -95 -123v-59h154v-37h-154v-496h-41zM415 0v751h41v-751h-41z" />
    <glyph glyph-name="f_f_i" unicode="ffi" horiz-adv-x="871" 
d="M122 0v496h-71v37h71v61q0 84 41 125q35 35 95 35q34 0 61 -10v-39q-27 10 -61 10q-95 0 -95 -123v-59h154v-37h-154v-496h-41zM438 0v496h-71v37h71v61q0 84 41 125q35 35 95 35q34 0 61 -10v-39q-27 10 -61 10q-95 0 -95 -123v-59h154v-37h-154v-496h-41zM727 668v67
h50v-67h-50zM731 0v533h41v-533h-41z" />
    <glyph glyph-name="f_f_l" unicode="ffl" horiz-adv-x="871" 
d="M122 0v496h-71v37h71v61q0 84 41 125q35 35 95 35q34 0 61 -10v-39q-27 10 -61 10q-95 0 -95 -123v-59h154v-37h-154v-496h-41zM438 0v496h-71v37h71v61q0 84 41 125q35 35 95 35q34 0 61 -10v-39q-27 10 -61 10q-95 0 -95 -123v-59h154v-37h-154v-496h-41zM731 0v751h41
v-751h-41z" />
    <glyph glyph-name=".notdef" horiz-adv-x="504" 
d="M2 -200v1000h500v-1000h-500zM73 750l179 -390l179 390h-358zM52 -76l172 376l-172 376v-752zM452 676l-172 -376l172 -376v752zM252 240l-179 -390h358z" />
    <glyph glyph-name=".null" horiz-adv-x="0" 
 />
    <glyph glyph-name="nonmarkingreturn" horiz-adv-x="333" 
 />
    <glyph glyph-name="space" unicode=" " horiz-adv-x="240" 
 />
    <glyph glyph-name="exclam" unicode="!" horiz-adv-x="246" 
d="M112 190l-13 457v81h48v-81l-13 -457h-22zM94 0v77h58v-77h-58z" />
    <glyph glyph-name="quotedbl" unicode="&#x22;" horiz-adv-x="365" 
d="M224 468l25 260h51v-6l-53 -254h-23zM71 468l26 260h51v-6l-53 -254h-24z" />
    <glyph glyph-name="numbersign" unicode="#" horiz-adv-x="638" 
d="M550 238v-39h-121l-28 -199h-38l28 199h-193l-28 -199h-38l28 199h-107v39h113l36 257h-115v38h121l28 195h38l-28 -195h192l28 195h38l-28 -195h108v-38h-113l-37 -257h116zM241 495l-37 -257h192l37 257h-192z" />
    <glyph glyph-name="dollar" unicode="$" horiz-adv-x="580" 
d="M489 653l-26 -32q-72 63 -153 70v-303q105 -33 151 -80t46 -119v-1q0 -80 -54.5 -132.5t-141.5 -56.5v-101h-38v101q-122 7 -215 97l28 33q85 -86 188 -93v318q-101 32 -146 76t-45 118v1q0 74 53 124.5t137 54.5v63h38v-63q97 -7 178 -75zM466 186v1q0 58 -35 94
t-121 63v-309q69 2 112.5 45t43.5 106zM125 552v-2q0 -57 33.5 -91.5t115.5 -60.5v293q-68 -4 -108.5 -42.5t-40.5 -96.5z" />
    <glyph glyph-name="percent" unicode="%" horiz-adv-x="765" 
d="M201 371q-62 0 -102 51.5t-40 127.5v5q0 77 40.5 128.5t103.5 51.5q62 0 102 -51.5t40 -127.5v-4q0 -77 -40.5 -129t-103.5 -52zM201 699q-44 0 -72.5 -41t-28.5 -102v-4q0 -63 29.5 -104t73.5 -41q45 0 73 40t28 103v4q0 63 -29.5 104t-73.5 41zM368 372l228 356h42
l-242 -374l-227 -354h-42zM563 -7q-62 0 -102 51.5t-40 127.5v4q0 77 40.5 129t103.5 52q62 0 102 -52t40 -127v-5q0 -77 -40.5 -128.5t-103.5 -51.5zM565 29q45 0 73 40t28 103v4q0 63 -29.5 104t-73.5 41t-72.5 -41t-28.5 -102v-4q0 -63 29.5 -104t73.5 -41z" />
    <glyph glyph-name="ampersand" unicode="&#x26;" horiz-adv-x="645" 
d="M572 -12l-105 125q-95 -122 -216 -122q-86 0 -141 54.5t-55 136.5v3q0 136 169 222q-44 56 -63 95.5t-19 81.5v3q0 62 45 107t115 45q64 0 106.5 -44t42.5 -103v-3q0 -61 -40 -106.5t-123 -86.5l177 -215q42 71 78 181l38 -13q-43 -127 -89 -200l114 -135zM264 424
q145 65 145 165v2q0 46 -30.5 78.5t-78.5 32.5q-51 0 -83.5 -33.5t-32.5 -80.5v-2q0 -36 17.5 -72t62.5 -90zM252 29q108 0 189 115l-194 234q-149 -73 -149 -191v-3q0 -65 43.5 -110t110.5 -45z" />
    <glyph glyph-name="quotesingle" unicode="'" horiz-adv-x="209" 
d="M71 468l26 260h51v-6l-53 -254h-24z" />
    <glyph glyph-name="parenleft" unicode="(" horiz-adv-x="395" 
d="M340 -114l-18 -28q-120 74 -185 186t-65 256v1q0 142 65 254.5t185 185.5l18 -28q-225 -148 -225 -413v-1q0 -268 225 -413z" />
    <glyph glyph-name="parenright" unicode=")" horiz-adv-x="395" 
d="M72 -142l-17 28q225 148 225 414v1q0 267 -225 412l17 28q120 -73 185 -185t65 -256v-1q0 -144 -65 -256t-185 -185z" />
    <glyph glyph-name="asterisk" unicode="*" horiz-adv-x="417" 
d="M191 431l7 132l-105 -72l-19 31l116 58l-116 59l19 31l105 -72l-7 132h36l-9 -132l106 72l19 -31l-116 -59l116 -58l-19 -31l-106 72l9 -132h-36z" />
    <glyph glyph-name="plus" unicode="+" horiz-adv-x="569" 
d="M265 148v199h-196v39h196v198h40v-198h195v-39h-195v-199h-40z" />
    <glyph glyph-name="comma" unicode="," horiz-adv-x="214" 
d="M66 -100l-11 22q28 14 38.5 31.5t8.5 46.5h-24v77h57v-68q0 -45 -15.5 -69t-53.5 -40z" />
    <glyph glyph-name="hyphen" unicode="-" horiz-adv-x="393" 
d="M73 287v43h247v-43h-247z" />
    <glyph glyph-name="period" unicode="." horiz-adv-x="215" 
d="M78 0v77h58v-77h-58z" />
    <glyph glyph-name="slash" unicode="/" horiz-adv-x="456" 
d="M-4 -123l409 943h40l-408 -943h-41z" />
    <glyph glyph-name="zero" unicode="0" horiz-adv-x="649" 
d="M324 -11q-116 0 -184.5 103t-68.5 268v6q0 165 69 269t185 104t185 -103.5t69 -267.5v-7q0 -164 -70 -268t-185 -104zM325 28q95 0 152.5 94t57.5 238v6q0 144 -58 239t-153 95t-152 -94t-57 -238v-6q0 -145 57.5 -239.5t152.5 -94.5z" />
    <glyph glyph-name="one" unicode="1" horiz-adv-x="321" 
d="M168 0v685l-120 -50l-9 38l137 59h34v-732h-42z" />
    <glyph glyph-name="two" unicode="2" horiz-adv-x="544" 
d="M51 0v30l254 294q67 73 94 124t27 102q0 65 -43.5 107t-108.5 42q-105 0 -180 -113l-31 22q79 130 214 130q84 0 139 -52.5t55 -131.5v-3q0 -60 -29 -112t-106 -140l-221 -258h363v-41h-427z" />
    <glyph glyph-name="three" unicode="3" horiz-adv-x="539" 
d="M257 -11q-125 0 -214 99l31 30q73 -89 184 -89q72 0 122 47.5t50 122.5v2q0 79 -59.5 121t-157.5 44h-21l-7 25l223 296h-336v41h393v-30l-224 -294q104 -9 168.5 -58.5t64.5 -142.5v-3q0 -92 -63.5 -151.5t-153.5 -59.5z" />
    <glyph glyph-name="four" unicode="4" horiz-adv-x="596" 
d="M405 0v178h-347l-10 31l360 524h38v-518h99v-37h-99v-178h-41zM99 215h306v446z" />
    <glyph glyph-name="five" unicode="5" horiz-adv-x="555" 
d="M264 -11q-117 0 -202 90l27 32q80 -82 177 -82q79 0 130.5 53.5t51.5 137.5v2q0 82 -51 129.5t-128 47.5q-70 0 -141 -38l-32 20l19 347h344v-41h-306l-16 -281q67 32 137 32q94 0 156 -58t62 -156v-3q0 -102 -64.5 -167t-163.5 -65z" />
    <glyph glyph-name="six" unicode="6" horiz-adv-x="591" 
d="M305 -11q-93 0 -150 60q-43 43 -63.5 108t-20.5 175v10q0 181 69.5 289t188.5 108q88 0 166 -65l-24 -34q-69 59 -144 59q-104 0 -160 -105t-56 -280h1q26 63 78 98.5t118 35.5q91 0 154 -60t63 -159v-3q0 -102 -63.5 -169.5t-156.5 -67.5zM307 28q76 0 125 57t49 139v3
q0 83 -49.5 132.5t-125.5 49.5q-75 0 -126.5 -52t-51.5 -130v-3q0 -83 50 -139.5t129 -56.5z" />
    <glyph glyph-name="seven" unicode="7" horiz-adv-x="528" 
d="M141 0l285 687h-360v41h407v-32l-287 -696h-45z" />
    <glyph glyph-name="eight" unicode="8" horiz-adv-x="577" 
d="M289 -10q-101 0 -165.5 56t-64.5 143v4q0 65 40.5 113.5t106.5 69.5q-54 21 -89.5 65.5t-35.5 105.5v4q0 82 61 134.5t147 52.5q84 0 145.5 -52.5t61.5 -134.5v-4q0 -61 -35.5 -105.5t-89.5 -65.5q66 -24 106.5 -71t40.5 -112v-4q0 -87 -64.5 -143t-164.5 -56zM289 393
q69 0 116.5 44.5t47.5 110.5v2q0 65 -47 107t-117 42q-71 0 -118 -42t-47 -107v-2q0 -66 48 -110.5t117 -44.5zM289 29q84 0 135 46t51 114v3q0 69 -54 116.5t-132 47.5q-79 0 -132.5 -46.5t-53.5 -117.5v-2q0 -69 51 -115t135 -46z" />
    <glyph glyph-name="nine" unicode="9" horiz-adv-x="590" 
d="M262 29q101 0 159 102t58 278h-1q-26 -65 -78 -101t-118 -36q-94 0 -155 61t-61 162v2q0 103 62 172.5t157 69.5q90 0 151 -61q83 -81 83 -283v-10q0 -182 -70.5 -289t-187.5 -107q-94 0 -175 71l25 34q75 -65 151 -65zM284 310q76 0 127 53t51 134v3q0 85 -50 142.5
t-130 57.5q-77 0 -124.5 -59t-47.5 -143v-2q0 -86 49 -136t125 -50z" />
    <glyph glyph-name="colon" unicode=":" horiz-adv-x="223" 
d="M83 453v77h57v-77h-57zM83 0v77h57v-77h-57z" />
    <glyph glyph-name="semicolon" unicode=";" horiz-adv-x="223" 
d="M82 453v77h58v-77h-58zM70 -100l-11 22q28 14 38.5 31.5t8.5 46.5h-24v77h58v-68q0 -45 -15.5 -69t-54.5 -40z" />
    <glyph glyph-name="less" unicode="&#x3c;" horiz-adv-x="571" 
d="M479 129l-412 221v32l412 221v-46l-361 -190l361 -192v-46z" />
    <glyph glyph-name="equal" unicode="=" horiz-adv-x="569" 
d="M83 449v42h404v-42h-404zM83 242v41h404v-41h-404z" />
    <glyph glyph-name="greater" unicode="&#x3e;" horiz-adv-x="571" 
d="M92 129v46l362 190l-362 192v46l412 -221v-32z" />
    <glyph glyph-name="question" unicode="?" horiz-adv-x="493" 
d="M207 190l-11 171l5 6q90 10 141 55t51 119v2q0 67 -44.5 110.5t-115.5 43.5q-95 0 -168 -87l-28 27q81 99 198 99q89 0 145 -54.5t56 -135.5v-3q0 -85 -55 -138.5t-141 -70.5l-8 -144h-25zM191 0v77h57v-77h-57z" />
    <glyph glyph-name="at" unicode="@" horiz-adv-x="921" 
d="M463 -159q-172 0 -286.5 118.5t-114.5 302.5q0 127 52.5 236t148.5 175t213 66q164 0 273.5 -113t109.5 -271q0 -124 -53 -201t-122 -77q-51 0 -80.5 30t-33.5 78q-69 -109 -163 -109q-65 0 -108.5 46.5t-43.5 122.5q0 111 65.5 192t148.5 81q52 0 86.5 -29t47.5 -74
l16 86l40 -6l-42 -231q-8 -32 -8 -70q0 -40 19.5 -62.5t58.5 -22.5q57 0 100 69t43 177q0 143 -101 249.5t-254 106.5q-110 0 -199.5 -63.5t-137 -165t-47.5 -218.5q0 -175 105 -285.5t267 -110.5q121 0 225 63l13 -22q-112 -68 -238 -68zM414 116q58 0 102 46
q32 32 51.5 80.5t19.5 98.5q0 59 -32.5 98.5t-83.5 39.5q-56 0 -104 -46q-32 -32 -50.5 -81.5t-18.5 -101.5q0 -65 31 -99.5t85 -34.5z" />
    <glyph glyph-name="A" unicode="A" horiz-adv-x="713" 
d="M50 0l285 733h42l286 -733h-47l-79 208h-364l-79 -208h-44zM189 247h332l-166 432z" />
    <glyph glyph-name="B" unicode="B" horiz-adv-x="658" 
d="M103 0v728h233q117 0 178 -61q47 -47 47 -120v-2q0 -68 -37.5 -112t-93.5 -61q73 -17 117 -61.5t44 -115.5v-2q0 -90 -66 -141.5t-183 -51.5h-239zM518 542v2q0 67 -48 105.5t-135 38.5h-189v-301h187q85 0 135 40.5t50 114.5zM548 193v2q0 72 -54.5 112.5t-152.5 40.5
h-195v-308h198q97 0 150.5 40.5t53.5 112.5z" />
    <glyph glyph-name="C" unicode="C" horiz-adv-x="653" 
d="M382 -10q-133 0 -220 103t-87 268v5q0 163 88.5 267.5t222.5 104.5q119 0 216 -88l-28 -33q-83 81 -190 81q-113 0 -189 -93.5t-76 -237.5v-4q0 -145 76 -239t188 -94q106 0 196 87l27 -30q-99 -97 -224 -97z" />
    <glyph glyph-name="D" unicode="D" horiz-adv-x="707" 
d="M103 0v728h188q152 0 246.5 -100t94.5 -260v-7q0 -160 -94 -260.5t-247 -100.5h-188zM289 688h-143v-648h144q134 0 216.5 89t82.5 231v7q0 142 -82.5 231.5t-217.5 89.5z" />
    <glyph glyph-name="E" unicode="E" horiz-adv-x="604" 
d="M103 0v728h431v-40h-388v-301h350v-40h-350v-307h393v-40h-436z" />
    <glyph glyph-name="F" unicode="F" horiz-adv-x="582" 
d="M103 0v728h425v-40h-382v-312h344v-39h-344v-337h-43z" />
    <glyph glyph-name="G" unicode="G" horiz-adv-x="707" 
d="M393 -11q-145 0 -231.5 103t-86.5 268v6q0 160 88 266.5t227 106.5q118 0 211 -76l-27 -34q-77 70 -185 70q-116 0 -193 -94.5t-77 -237.5v-4q0 -151 75 -243t201 -92q103 0 182 64v240h-208v41h249v-300q-99 -84 -225 -84z" />
    <glyph glyph-name="H" unicode="H" horiz-adv-x="697" 
d="M103 0v728h43v-342h405v342h44v-728h-44v347h-405v-347h-43z" />
    <glyph glyph-name="I" unicode="I" horiz-adv-x="263" 
d="M110 0v728h43v-728h-43z" />
    <glyph glyph-name="J" unicode="J" horiz-adv-x="485" 
d="M210 -9q-115 0 -172 106l34 24q53 -91 141 -91q60 0 97.5 43.5t37.5 125.5v529h42v-525q0 -108 -55 -163q-49 -49 -125 -49z" />
    <glyph glyph-name="K" unicode="K" horiz-adv-x="648" 
d="M103 0v728h43v-465l393 465h54l-272 -320l288 -408h-53l-264 374l-146 -168v-206h-43z" />
    <glyph glyph-name="L" unicode="L" horiz-adv-x="548" 
d="M103 0v728h43v-688h356v-40h-399z" />
    <glyph glyph-name="M" unicode="M" horiz-adv-x="794" 
d="M103 0v728h43l251 -433l251 433h43v-728h-43v648l-250 -431h-3l-250 431v-648h-42z" />
    <glyph glyph-name="N" unicode="N" horiz-adv-x="720" 
d="M103 0v728h41l431 -644v644h42v-728h-35l-438 655v-655h-41z" />
    <glyph glyph-name="O" unicode="O" horiz-adv-x="759" 
d="M379 -11q-134 0 -219 105t-85 266v7q0 161 85 266.5t220 105.5q134 0 219 -105t85 -266v-7q0 -161 -85 -266.5t-220 -105.5zM380 28q113 0 186.5 94.5t73.5 237.5v7q0 142 -74 237.5t-187 95.5q-114 0 -187 -94.5t-73 -237.5v-7q0 -142 74 -237.5t187 -95.5z" />
    <glyph glyph-name="P" unicode="P" horiz-adv-x="615" 
d="M103 0v728h205q117 0 185.5 -60t68.5 -162v-2q0 -107 -72.5 -168.5t-189.5 -61.5h-154v-274h-43zM146 313h156q100 0 159 51t59 138v2q0 88 -58 136t-156 48h-160v-375z" />
    <glyph glyph-name="Q" unicode="Q" horiz-adv-x="759" 
d="M691 12l-30 -31l-88 86q-78 -78 -194 -78q-134 0 -219 105t-85 266v7q0 161 85 266.5t220 105.5q134 0 219 -105t85 -266v-7q0 -158 -84 -264zM380 28q94 0 163 67l-124 115l29 31l122 -117q70 95 70 236v7q0 142 -74 237.5t-187 95.5q-114 0 -187 -94.5t-73 -237.5v-7
q0 -142 74 -237.5t187 -95.5z" />
    <glyph glyph-name="R" unicode="R" horiz-adv-x="661" 
d="M103 0v728h234q125 0 191 -66q55 -55 55 -142v-2q0 -86 -52 -138.5t-140 -67.5l210 -312h-52l-205 304h-198v-304h-43zM146 343h177q106 0 161.5 46t55.5 128v1q0 81 -54 125.5t-151 44.5h-189v-345z" />
    <glyph glyph-name="S" unicode="S" horiz-adv-x="586" 
d="M301 -10q-137 0 -245 102l29 33q100 -95 217 -95q77 0 125 41.5t48 105.5v2q0 57 -38.5 95t-144.5 75q-116 42 -162 88t-46 118v2q0 77 59.5 129t150.5 52q119 0 210 -79l-27 -34q-85 73 -185 73q-73 0 -119 -40t-46 -98v-2q0 -58 39.5 -96t145.5 -74q114 -41 160 -89
t46 -118v-2q0 -81 -61 -135t-156 -54z" />
    <glyph glyph-name="T" unicode="T" horiz-adv-x="565" 
d="M261 0v688h-214v40h471v-40h-214v-688h-43z" />
    <glyph glyph-name="U" unicode="U" horiz-adv-x="695" 
d="M347 -11q-114 0 -183 74.5t-69 207.5v457h42v-455q0 -118 56 -181t156 -63q98 0 153.5 62t55.5 180v457h43v-454q0 -136 -69 -210.5t-185 -74.5z" />
    <glyph glyph-name="V" unicode="V" horiz-adv-x="678" 
d="M320 -5l-270 733h46l244 -673l245 673h45l-271 -733h-39z" />
    <glyph glyph-name="W" unicode="W" horiz-adv-x="989" 
d="M271 -5l-216 733h47l190 -658l186 660h35l187 -660l190 658h44l-216 -733h-37l-187 650l-186 -650h-37z" />
    <glyph glyph-name="X" unicode="X" horiz-adv-x="642" 
d="M531 728h48l-232 -355l244 -373h-49l-222 342l-220 -342h-49l244 373l-233 355h49l209 -324z" />
    <glyph glyph-name="Y" unicode="Y" horiz-adv-x="634" 
d="M295 0v300l-261 428h50l233 -387l233 387h49l-261 -427v-301h-43z" />
    <glyph glyph-name="Z" unicode="Z" horiz-adv-x="618" 
d="M68 0v25l424 664h-408v39h466v-25l-424 -664h423v-39h-481z" />
    <glyph glyph-name="bracketleft" unicode="[" horiz-adv-x="405" 
d="M106 -135v863h236v-32h-197v-799h197v-32h-236z" />
    <glyph glyph-name="backslash" unicode="\" horiz-adv-x="456" 
d="M419 -123l-408 943h40l408 -943h-40z" />
    <glyph glyph-name="bracketright" unicode="]" horiz-adv-x="405" 
d="M63 -135v32h196v799h-196v32h236v-863h-236z" />
    <glyph glyph-name="asciicircum" unicode="^" horiz-adv-x="477" 
d="M86 526l135 200h34l135 -200h-40l-113 159l-111 -159h-40z" />
    <glyph glyph-name="underscore" unicode="_" horiz-adv-x="586" 
d="M9 -163v37h568v-37h-568z" />
    <glyph glyph-name="grave" unicode="`" 
d="M295 612l-101 106l48 25l83 -131h-30z" />
    <glyph glyph-name="a" unicode="a" horiz-adv-x="534" 
d="M231 -11q-73 0 -124.5 44.5t-51.5 120.5v3q0 79 55.5 125.5t146.5 46.5q80 0 152 -25v46q0 74 -40 113t-114 39q-77 0 -143 -38l-16 35q86 42 161 42q93 0 143 -51q49 -46 49 -137v-353h-40v94q-57 -105 -178 -105zM234 26q74 0 125 48t51 115v77q-75 26 -153 26
q-74 0 -116.5 -36t-42.5 -97v-3q0 -59 39 -94.5t97 -35.5z" />
    <glyph glyph-name="b" unicode="b" horiz-adv-x="605" 
d="M324 -11q-67 0 -115 38t-75 96v-123h-40v751h40v-344q27 60 75 99t115 39q90 0 154 -75.5t64 -198.5v-7q0 -124 -64 -199.5t-154 -75.5zM320 27q78 0 128.5 64.5t50.5 170.5v7q0 106 -51 171.5t-128 65.5t-133 -67t-56 -168v-8q0 -102 56 -169t133 -67z" />
    <glyph glyph-name="c" unicode="c" horiz-adv-x="510" 
d="M293 -11q-99 0 -165 76.5t-66 197.5v5q0 120 68 198.5t165 78.5q90 0 165 -75l-27 -30q-66 66 -140 66q-79 0 -133.5 -67.5t-54.5 -170.5v-4q0 -106 56 -171.5t134 -65.5q79 1 140 69l27 -27q-73 -80 -169 -80z" />
    <glyph glyph-name="d" unicode="d" horiz-adv-x="605" 
d="M282 -11q-90 0 -154 75.5t-64 198.5v7q0 123 64 199t154 76q66 0 114.5 -38.5t75.5 -96.5v341h40v-751h-40v126q-67 -137 -190 -137zM286 27q77 0 132.5 67t55.5 169v8q0 102 -55.5 168.5t-132.5 66.5q-78 0 -128.5 -64.5t-50.5 -170.5v-7q0 -105 51.5 -171t127.5 -66z
" />
    <glyph glyph-name="e" unicode="e" horiz-adv-x="543" 
d="M292 -11q-97 0 -163.5 75t-66.5 200v3q0 123 62 200.5t154 77.5q94 0 151 -77t57 -197v-21h-382q4 -102 58.5 -162.5t132.5 -60.5q85 0 152 70l25 -28q-77 -80 -180 -80zM104 287h339q-4 93 -48 156.5t-118 63.5q-71 0 -119 -61t-54 -159z" />
    <glyph glyph-name="f" unicode="f" horiz-adv-x="336" 
d="M122 0v496h-71v37h71v61q0 84 41 125q35 35 95 35q34 0 61 -10v-39q-27 10 -61 10q-95 0 -95 -123v-59h154v-37h-154v-496h-41z" />
    <glyph glyph-name="g" unicode="g" horiz-adv-x="603" 
d="M287 -158q-109 0 -201 62l21 35q80 -59 181 -59q84 0 132.5 46t48.5 135v101q-66 -127 -189 -127q-89 0 -152.5 70.5t-63.5 182.5v3q0 112 63.5 183t152.5 71q121 0 189 -125v113h41v-473q0 -101 -58 -159q-59 -59 -165 -59zM284 73q75 0 131.5 61.5t56.5 152.5v4
q0 93 -56.5 154t-131.5 61t-126 -59t-51 -155v-3q0 -95 51 -155.5t126 -60.5z" />
    <glyph glyph-name="h" unicode="h" horiz-adv-x="572" 
d="M94 0v751h40v-320q20 49 63 81.5t107 32.5q86 0 134.5 -55t48.5 -151v-339h-41v329q0 85 -39 132t-110 47q-70 0 -116.5 -52t-46.5 -132v-324h-40z" />
    <glyph glyph-name="i" unicode="i" horiz-adv-x="240" 
d="M95 668v67h50v-67h-50zM99 0v533h41v-533h-41z" />
    <glyph glyph-name="j" unicode="j" horiz-adv-x="242" 
d="M97 668v67h50v-67h-50zM37 -160q-17 0 -37 5v36q15 -4 35 -4q67 0 67 85v571h40v-573q0 -58 -27 -89t-78 -31z" />
    <glyph glyph-name="k" unicode="k" horiz-adv-x="514" 
d="M94 0v751h40v-550l280 332h50l-197 -229l208 -304h-49l-186 271l-106 -123v-148h-40z" />
    <glyph glyph-name="l" unicode="l" horiz-adv-x="240" 
d="M99 0v751h41v-751h-41z" />
    <glyph glyph-name="m" unicode="m" horiz-adv-x="876" 
d="M94 0v533h40v-98q20 47 59.5 78.5t95.5 31.5q59 0 99 -31.5t59 -84.5q22 50 64 83t103 33q80 0 127 -54t47 -151v-340h-40v332q0 86 -36.5 131t-101.5 45q-62 0 -105.5 -49.5t-43.5 -130.5v-328h-41v334q0 84 -36.5 129t-100.5 45q-62 0 -105.5 -51.5t-43.5 -128.5v-328
h-40z" />
    <glyph glyph-name="n" unicode="n" horiz-adv-x="572" 
d="M94 0v533h40v-102q20 49 63 81.5t107 32.5q86 0 134.5 -55t48.5 -151v-339h-41v329q0 85 -39 132t-110 47q-70 0 -116.5 -52t-46.5 -132v-324h-40z" />
    <glyph glyph-name="o" unicode="o" horiz-adv-x="586" 
d="M293 -11q-100 0 -165.5 78.5t-65.5 196.5v4q0 117 66 197t166 80q99 0 165 -79t66 -197v-4q0 -117 -66 -196.5t-166 -79.5zM294 27q81 0 135 68t54 169v4q0 101 -55 169.5t-135 68.5q-81 0 -134.5 -68t-53.5 -169v-4q0 -102 54.5 -170t134.5 -68z" />
    <glyph glyph-name="p" unicode="p" horiz-adv-x="605" 
d="M94 -156v689h40v-126q27 60 75 99t115 39q90 0 154 -75.5t64 -198.5v-7q0 -124 -64 -199.5t-154 -75.5q-67 0 -115 38t-75 96v-279h-40zM320 27q78 0 128.5 64.5t50.5 170.5v7q0 106 -51 171.5t-128 65.5t-133 -67t-56 -168v-8q0 -102 56 -169t133 -67z" />
    <glyph glyph-name="q" unicode="q" horiz-adv-x="605" 
d="M472 -156v282q-67 -137 -190 -137q-90 0 -154 75.5t-64 198.5v7q0 123 64 199t154 76q66 0 114.5 -38.5t75.5 -96.5v123h40v-689h-40zM286 27q77 0 132.5 67t55.5 169v8q0 102 -55.5 168.5t-132.5 66.5q-78 0 -128.5 -64.5t-50.5 -170.5v-7q0 -105 51.5 -171t127.5 -66z
" />
    <glyph glyph-name="r" unicode="r" horiz-adv-x="362" 
d="M94 0v533h40v-131q24 62 75.5 101.5t118.5 37.5v-43h-4q-80 0 -135 -61.5t-55 -158.5v-278h-40z" />
    <glyph glyph-name="s" unicode="s" horiz-adv-x="461" 
d="M230 -9q-104 0 -187 74l26 32q77 -68 164 -68q54 0 89.5 29.5t35.5 74.5v2q0 40 -31.5 66t-100.5 55q-81 32 -119 63.5t-38 84.5v2q0 60 44 98t116 38q91 0 163 -57l-23 -33q-70 52 -142 52q-53 0 -85 -26t-32 -68v-2q0 -37 31.5 -61t101.5 -54q81 -34 118.5 -67
t37.5 -89v-1q0 -64 -48.5 -104.5t-120.5 -40.5z" />
    <glyph glyph-name="t" unicode="t" horiz-adv-x="368" 
d="M244 -7q-59 0 -93 31.5t-34 95.5v376h-69v37h69v167h41v-167h154v-37h-154v-371q0 -94 91 -94q30 0 63 14v-38q-27 -14 -68 -14z" />
    <glyph glyph-name="u" unicode="u" horiz-adv-x="572" 
d="M268 -11q-86 0 -134.5 54.5t-48.5 150.5v339h40v-329q0 -84 39 -131t111 -47q68 0 115.5 52t47.5 131v324h40v-533h-40v103q-52 -114 -170 -114z" />
    <glyph glyph-name="v" unicode="v" horiz-adv-x="537" 
d="M251 -4l-204 537h46l176 -481l177 481h44l-204 -537h-35z" />
    <glyph glyph-name="w" unicode="w" horiz-adv-x="785" 
d="M219 -4l-165 537h45l137 -475l140 477h34l140 -477l138 475h42l-164 -537h-35l-138 467l-139 -467h-35z" />
    <glyph glyph-name="x" unicode="x" horiz-adv-x="520" 
d="M104 533l156 -230l157 230h46l-179 -260l188 -273h-48l-165 242l-164 -242h-47l186 272l-178 261h48z" />
    <glyph glyph-name="y" unicode="y" 
d="M280 53l170 480h43l-197 -541q-31 -85 -66 -118t-87 -33q-45 0 -86 22l15 37q32 -21 72 -21q37 0 63 26t53 96l-213 532h45z" />
    <glyph glyph-name="z" unicode="z" horiz-adv-x="489" 
d="M55 0v23l324 475h-311v35h366v-23l-324 -473h324v-37h-379z" />
    <glyph glyph-name="braceleft" unicode="{" horiz-adv-x="441" 
d="M381 -116l-6 -30q-110 19 -149.5 63.5t-39.5 122.5q0 16 7 59t7 61q0 123 -123 123h-20v32h20q123 0 123 124q0 18 -7 61t-7 59q0 77 39.5 121.5t149.5 63.5l6 -30q-94 -18 -123.5 -52.5t-29.5 -105.5q0 -18 6 -57.5t6 -58.5q0 -119 -106 -141q106 -24 106 -141
q0 -19 -6 -58.5t-6 -56.5q0 -72 29.5 -106t123.5 -53z" />
    <glyph glyph-name="bar" unicode="|" horiz-adv-x="288" 
d="M126 -123v943h36v-943h-36z" />
    <glyph glyph-name="braceright" unicode="}" horiz-adv-x="441" 
d="M66 -146l-5 30q94 19 123.5 53.5t29.5 105.5q0 17 -6.5 56.5t-6.5 58.5q0 119 106 141q-106 25 -106 141q0 19 6.5 58.5t6.5 57.5q0 71 -29.5 105t-123.5 53l5 30q112 -19 150.5 -63t38.5 -122q0 -16 -7 -59t-7 -61q0 -124 123 -124h21v-32h-21q-123 0 -123 -123
q0 -18 7 -61t7 -59q0 -78 -38.5 -122.5t-150.5 -63.5z" />
    <glyph glyph-name="asciitilde" unicode="~" horiz-adv-x="441" 
d="M281 263q-24 0 -64 25q-37 24 -55 24q-17 0 -27 -11.5t-20 -41.5l-29 7q12 47 30 67t45 20q22 0 64 -26q32 -23 55 -23q17 0 26.5 11.5t21.5 41.5l28 -7q-12 -47 -30 -67t-45 -20z" />
    <glyph glyph-name="uni00A0" unicode="&#xa0;" horiz-adv-x="25000" 
 />
    <glyph glyph-name="exclamdown" unicode="&#xa1;" horiz-adv-x="246" 
d="M94 651v77h58v-77h-58zM99 0v81l13 457h22l13 -457v-81h-48z" />
    <glyph glyph-name="cent" unicode="&#xa2;" horiz-adv-x="525" 
d="M356 733l-13 -92q69 -15 128 -72l-26 -29q-56 52 -108 63l-64 -473q6 -2 28 -2q82 0 147 70l26 -27q-76 -81 -176 -81q-10 0 -28 2l-13 -98h-40l15 106q-74 24 -119 95t-45 170v4q0 121 66 198.5t166 77.5h4l13 88h39zM110 371v-5q0 -85 35 -145t94 -82l62 468h-2
q-82 0 -135.5 -65t-53.5 -171z" />
    <glyph glyph-name="sterling" unicode="&#xa3;" horiz-adv-x="575" 
d="M70 0v22l79 16v290h-80v38h80v136q0 124 60 184q54 51 133 51q110 0 177 -92l-32 -26q-59 79 -146 79q-61 0 -102 -39q-48 -48 -48 -156v-137h257v-38h-257v-289h328v-39h-449z" />
    <glyph glyph-name="yen" unicode="&#xa5;" horiz-adv-x="608" 
d="M100 286v37h171l-237 405h50l221 -387l221 387h48l-238 -405h172v-37h-183v-114h183v-37h-183v-135h-41v135h-184v37h184v114h-184z" />
    <glyph glyph-name="section" unicode="&#xa7;" horiz-adv-x="588" 
d="M365 231q96 -46 96 -115v-2q0 -54 -45.5 -88.5t-119.5 -34.5q-110 0 -188 71l27 31q72 -63 164 -63q55 0 86.5 23.5t31.5 60.5v2q0 36 -39 63t-131 55q-98 30 -139.5 63t-41.5 79v2q0 47 41.5 80.5t115.5 38.5q-95 45 -95 115v2q0 55 45.5 89.5t119.5 34.5q107 0 188 -71
l-28 -32q-70 63 -163 63q-56 0 -87 -23.5t-31 -60.5v-2q0 -36 39 -63t131 -55q99 -30 140 -62.5t41 -79.5v-2q0 -47 -41.5 -80t-116.5 -39zM348 258q57 0 94.5 25t37.5 64v3q0 32 -31 56.5t-108 47.5q-57 16 -100 16q-57 0 -95 -25t-38 -64v-2q0 -33 31 -57t108 -47
q56 -17 101 -17z" />
    <glyph glyph-name="dieresis" unicode="&#xa8;" 
d="M312 619v69h55v-69h-55zM175 619v69h54v-69h-54z" />
    <glyph glyph-name="copyright" unicode="&#xa9;" horiz-adv-x="784" 
d="M391 -12q-142 0 -238.5 107.5t-96.5 261.5v14q0 153 97 261t240 108q142 0 238 -108t96 -261v-13q0 -153 -96.5 -261.5t-239.5 -108.5zM391 13q133 0 221.5 101t88.5 244v13q0 143 -88 243.5t-220 100.5q-133 0 -221.5 -101t-88.5 -243v-14q0 -143 88 -243.5t220 -100.5z
M399 168q-70 0 -117 55.5t-47 141.5v5q0 86 47.5 142t117.5 56q63 0 118 -50l-23 -26q-44 42 -96 42q-54 0 -90.5 -46t-36.5 -117v-6q0 -71 37 -117.5t91 -46.5q52 0 97 45l23 -25q-53 -53 -121 -53z" />
    <glyph glyph-name="ordfeminine" unicode="&#xaa;" horiz-adv-x="384" 
d="M173 426q-40 0 -69.5 24.5t-29.5 67.5v3q0 44 30.5 69.5t82.5 25.5q41 0 77 -12v17q0 78 -78 78q-37 0 -79 -21l-12 29q50 24 93 24q53 0 83 -31q25 -25 25 -77v-192h-32v44q-33 -49 -91 -49zM175 456q37 0 63 23t26 58v38q-32 12 -77 12q-36 0 -57.5 -18t-21.5 -47v-3
q0 -29 19 -46t48 -17zM72 321v31h232v-31h-232z" />
    <glyph glyph-name="guillemotleft" unicode="&#xab;" horiz-adv-x="485" 
d="M389 45l-156 216v8l156 216l30 -19l-138 -200l138 -202zM211 45l-157 216v8l157 216l30 -19l-138 -200l138 -202z" />
    <glyph glyph-name="registered" unicode="&#xae;" horiz-adv-x="419" 
d="M210 373q-71 0 -118 52t-47 128v7q0 75 47.5 127.5t117.5 52.5t117.5 -52t47.5 -127v-7q0 -75 -48 -128t-117 -53zM210 391q62 0 104 47.5t42 115.5v6q0 68 -42 115.5t-104 47.5q-63 0 -105 -47.5t-42 -115.5v-7q0 -67 42 -114.5t105 -47.5zM150 467v187h67
q30 0 47.5 -15t17.5 -42v-1q0 -41 -42 -55l49 -74h-30l-43 70h-42v-70h-24zM174 558h41q42 0 42 38v1q0 16 -11 26t-31 9h-41v-74z" />
    <glyph glyph-name="macron" unicode="&#xaf;" 
d="M142 634v38h257v-38h-257z" />
    <glyph glyph-name="degree" unicode="&#xb0;" horiz-adv-x="418" 
d="M209 428q-57 0 -97.5 44t-40.5 107v5q0 63 40.5 106.5t97.5 43.5t97.5 -43.5t40.5 -106.5v-5q0 -63 -40.5 -107t-97.5 -44zM209 464q42 0 70.5 33.5t28.5 81.5v5q0 48 -28.5 81.5t-70.5 33.5t-70 -33.5t-28 -81.5v-5q0 -48 28 -81.5t70 -33.5z" />
    <glyph glyph-name="plusminus" unicode="&#xb1;" horiz-adv-x="569" 
d="M496 368h-191v-189h-40v189h-191v39h191v189h40v-189h191v-39zM496 33h-422v38h422v-38z" />
    <glyph glyph-name="acute" unicode="&#xb4;" 
d="M216 612l83 131l48 -25l-100 -106h-31z" />
    <glyph glyph-name="mu" unicode="&#xb5;" horiz-adv-x="616" 
d="M591 36v-36q-15 -7 -40 -7q-49 0 -74.5 24.5t-29.5 80.5q-52 -109 -157 -109q-112 0 -160 114h-1q5 -62 5 -127v-132h-40v689h40v-326q0 -78 45 -129t111 -51q67 0 112 51t45 129v326h40v-417q0 -46 16.5 -65t51.5 -19q21 0 36 4z" />
    <glyph glyph-name="paragraph" unicode="&#xb6;" horiz-adv-x="463" 
d="M322 0v282h-5q-116 0 -189 60t-73 163v2q0 101 68.5 161t180.5 60h61v-728h-43z" />
    <glyph glyph-name="periodcentered" unicode="&#xb7;" horiz-adv-x="215" 
d="M78 267v78h59v-78h-59z" />
    <glyph glyph-name="cedilla" unicode="&#xb8;" 
d="M237 -138l-46 20l82 127h33z" />
    <glyph glyph-name="ordmasculine" unicode="&#xba;" horiz-adv-x="385" 
d="M192 426q-56 0 -92.5 43.5t-36.5 106.5v5q0 64 37 108t93 44q57 0 93.5 -43.5t36.5 -107.5v-5q0 -63 -37 -107t-94 -44zM66 321v31h254v-31h-254zM193 457q42 0 68 34.5t26 84.5v5q0 50 -27 84.5t-68 34.5t-67.5 -34.5t-26.5 -83.5v-5q0 -50 27 -85t68 -35z" />
    <glyph glyph-name="guillemotright" unicode="&#xbb;" horiz-adv-x="485" 
d="M274 45l-30 19l139 200l-139 202l30 19l156 -216v-8zM96 45l-30 19l139 200l-139 202l30 19l156 -216v-8z" />
    <glyph glyph-name="questiondown" unicode="&#xbf;" horiz-adv-x="493" 
d="M244 651v77h57v-77h-57zM258 -8q-89 0 -145.5 54.5t-56.5 135.5v3q0 85 55 138.5t141 70.5l9 144h26l10 -171l-5 -6q-90 -10 -141 -55t-51 -119v-2q0 -67 44.5 -110.5t115.5 -43.5q95 0 168 87l28 -27q-82 -99 -198 -99z" />
    <glyph glyph-name="Agrave" unicode="&#xc0;" horiz-adv-x="713" 
d="M50 0l285 733h42l286 -733h-47l-79 208h-364l-79 -208h-44zM189 247h332l-166 432zM373 794h-34l-101 91l47 23z" />
    <glyph glyph-name="Aacute" unicode="&#xc1;" horiz-adv-x="713" 
d="M50 0l285 733h42l286 -733h-47l-79 208h-364l-79 -208h-44zM189 247h332l-166 432zM338 794l88 114l47 -23l-101 -91h-34z" />
    <glyph glyph-name="Acircumflex" unicode="&#xc2;" horiz-adv-x="713" 
d="M50 0l285 733h42l286 -733h-47l-79 208h-364l-79 -208h-44zM189 247h332l-166 432zM238 793l98 106h37l98 -106h-43l-74 67l-74 -67h-42z" />
    <glyph glyph-name="Atilde" unicode="&#xc3;" horiz-adv-x="713" 
d="M50 0l285 733h42l286 -733h-47l-79 208h-364l-79 -208h-44zM189 247h332l-166 432zM419 798q-28 0 -66 24q-36 19 -54 19q-17 0 -27 -10t-20 -37l-30 7q24 81 74 81q23 0 67 -24q36 -19 53 -19q16 0 26 10t21 36l30 -7q-23 -80 -74 -80z" />
    <glyph glyph-name="Adieresis" unicode="&#xc4;" horiz-adv-x="713" 
d="M50 0l285 733h42l286 -733h-47l-79 208h-364l-79 -208h-44zM189 247h332l-166 432zM400 801v68h59v-68h-59zM252 801v68h59v-68h-59z" />
    <glyph glyph-name="Aring" unicode="&#xc5;" horiz-adv-x="713" 
d="M50 0l270 695q-29 10 -46.5 32.5t-17.5 52.5q0 38 29 64t71 26t70.5 -26t28.5 -64q0 -29 -17.5 -51.5t-45.5 -32.5l271 -696h-47l-79 208h-364l-79 -208h-44zM189 247h332l-166 432zM356 718q29 0 48.5 17.5t19.5 44.5q0 28 -19.5 46t-48.5 18t-48.5 -18t-19.5 -46
q0 -27 19.5 -44.5t48.5 -17.5z" />
    <glyph glyph-name="AE" unicode="&#xc6;" horiz-adv-x="926" 
d="M22 0l373 728h462v-40h-377v-301h340v-40h-340v-307h382v-40h-425v208h-263l-107 -208h-45zM194 247h243v442h-19z" />
    <glyph glyph-name="Ccedilla" unicode="&#xc7;" horiz-adv-x="653" 
d="M326 -138l-46 20l71 110q-122 12 -199 113t-77 256v5q0 163 88.5 267.5t222.5 104.5q119 0 216 -88l-28 -33q-83 81 -190 81q-113 0 -189 -93.5t-76 -237.5v-4q0 -145 76 -239t188 -94q106 0 196 87l27 -30q-96 -96 -220 -97z" />
    <glyph glyph-name="Egrave" unicode="&#xc8;" horiz-adv-x="604" 
d="M338 787h-34l-101 91l47 23zM103 0v728h431v-40h-388v-301h350v-40h-350v-307h393v-40h-436z" />
    <glyph glyph-name="Eacute" unicode="&#xc9;" horiz-adv-x="604" 
d="M302 787l88 114l47 -23l-101 -91h-34zM103 0v728h431v-40h-388v-301h350v-40h-350v-307h393v-40h-436z" />
    <glyph glyph-name="Ecircumflex" unicode="&#xca;" horiz-adv-x="604" 
d="M103 0v728h431v-40h-388v-301h350v-40h-350v-307h393v-40h-436zM204 789l98 106h37l98 -106h-43l-74 67l-74 -67h-42z" />
    <glyph glyph-name="Edieresis" unicode="&#xcb;" horiz-adv-x="604" 
d="M365 794v68h59v-68h-59zM217 794v68h59v-68h-59zM103 0v728h431v-40h-388v-301h350v-40h-350v-307h393v-40h-436z" />
    <glyph glyph-name="Igrave" unicode="&#xcc;" horiz-adv-x="263" 
d="M110 0v728h43v-728h-43zM151 787h-34l-101 91l47 23z" />
    <glyph glyph-name="Iacute" unicode="&#xcd;" horiz-adv-x="263" 
d="M110 0v728h43v-728h-43zM116 787l88 114l47 -23l-101 -91h-34z" />
    <glyph glyph-name="Icircumflex" unicode="&#xce;" horiz-adv-x="263" 
d="M110 0v728h43v-728h-43zM17 789l98 106h37l98 -106h-43l-74 67l-74 -67h-42z" />
    <glyph glyph-name="Idieresis" unicode="&#xcf;" horiz-adv-x="263" 
d="M110 0v728h43v-728h-43zM179 794v68h59v-68h-59zM31 794v68h59v-68h-59z" />
    <glyph glyph-name="Eth" unicode="&#xd0;" horiz-adv-x="730" 
d="M126 0v346h-72v40h72v342h190q150 0 244.5 -100.5t94.5 -259.5v-7q0 -160 -94.5 -260.5t-244.5 -100.5h-190zM369 346h-200v-306h147q133 0 214 89t81 231v7q0 142 -81.5 231.5t-213.5 89.5h-147v-302h200v-40z" />
    <glyph glyph-name="Ntilde" unicode="&#xd1;" horiz-adv-x="720" 
d="M425 787q-28 0 -66 24q-36 19 -54 19q-17 0 -27 -10t-20 -37l-30 7q24 81 74 81q23 0 67 -24q36 -19 53 -19q16 0 26 10t21 36l30 -7q-23 -80 -74 -80zM103 0v728h41l431 -644v644h42v-728h-35l-438 655v-655h-41z" />
    <glyph glyph-name="Ograve" unicode="&#xd2;" horiz-adv-x="759" 
d="M396 794h-34l-101 91l47 23zM379 -11q-134 0 -219 105t-85 266v7q0 161 85 266.5t220 105.5q134 0 219 -105t85 -266v-7q0 -161 -85 -266.5t-220 -105.5zM380 28q113 0 186.5 94.5t73.5 237.5v7q0 142 -74 237.5t-187 95.5q-114 0 -187 -94.5t-73 -237.5v-7
q0 -142 74 -237.5t187 -95.5z" />
    <glyph glyph-name="Oacute" unicode="&#xd3;" horiz-adv-x="759" 
d="M361 794l88 114l47 -23l-101 -91h-34zM379 -11q-134 0 -219 105t-85 266v7q0 161 85 266.5t220 105.5q134 0 219 -105t85 -266v-7q0 -161 -85 -266.5t-220 -105.5zM380 28q113 0 186.5 94.5t73.5 237.5v7q0 142 -74 237.5t-187 95.5q-114 0 -187 -94.5t-73 -237.5v-7
q0 -142 74 -237.5t187 -95.5z" />
    <glyph glyph-name="Ocircumflex" unicode="&#xd4;" horiz-adv-x="759" 
d="M379 -11q-134 0 -219 105t-85 266v7q0 161 85 266.5t220 105.5q134 0 219 -105t85 -266v-7q0 -161 -85 -266.5t-220 -105.5zM380 28q113 0 186.5 94.5t73.5 237.5v7q0 142 -74 237.5t-187 95.5q-114 0 -187 -94.5t-73 -237.5v-7q0 -142 74 -237.5t187 -95.5zM262 796
l98 106h37l98 -106h-43l-74 67l-74 -67h-42z" />
    <glyph glyph-name="Otilde" unicode="&#xd5;" horiz-adv-x="759" 
d="M442 798q-28 0 -66 24q-36 19 -54 19q-17 0 -27 -10t-20 -37l-30 7q24 81 74 81q23 0 67 -24q36 -19 53 -19q16 0 26 10t21 36l30 -7q-23 -80 -74 -80zM379 -11q-134 0 -219 105t-85 266v7q0 161 85 266.5t220 105.5q134 0 219 -105t85 -266v-7q0 -161 -85 -266.5
t-220 -105.5zM380 28q113 0 186.5 94.5t73.5 237.5v7q0 142 -74 237.5t-187 95.5q-114 0 -187 -94.5t-73 -237.5v-7q0 -142 74 -237.5t187 -95.5z" />
    <glyph glyph-name="Odieresis" unicode="&#xd6;" horiz-adv-x="759" 
d="M423 801v68h59v-68h-59zM275 801v68h59v-68h-59zM379 -11q-134 0 -219 105t-85 266v7q0 161 85 266.5t220 105.5q134 0 219 -105t85 -266v-7q0 -161 -85 -266.5t-220 -105.5zM380 28q113 0 186.5 94.5t73.5 237.5v7q0 142 -74 237.5t-187 95.5q-114 0 -187 -94.5
t-73 -237.5v-7q0 -142 74 -237.5t187 -95.5z" />
    <glyph glyph-name="multiply" unicode="&#xd7;" horiz-adv-x="569" 
d="M446 172l-162 167l-162 -167l-28 27l164 166l-164 167l29 28l162 -167l163 167l27 -26l-164 -167l164 -166z" />
    <glyph glyph-name="Oslash" unicode="&#xd8;" horiz-adv-x="759" 
d="M640 734h47l-83 -107q80 -105 80 -259v-6q0 -161 -85 -267t-220 -106q-117 0 -198 81l-61 -76h-48l82 107q-79 104 -79 259v6q0 161 85 267t220 106q116 0 198 -82zM118 368v-5q0 -134 63 -227l373 486q-73 79 -176 79q-114 0 -187 -94t-73 -239zM380 27
q114 0 187.5 94.5t73.5 238.5v5q0 133 -63 226l-373 -486q72 -78 175 -78z" />
    <glyph glyph-name="Ugrave" unicode="&#xd9;" horiz-adv-x="695" 
d="M365 783h-34l-101 91l47 23zM347 -11q-114 0 -183 74.5t-69 207.5v457h42v-455q0 -118 56 -181t156 -63q98 0 153.5 62t55.5 180v457h43v-454q0 -136 -69 -210.5t-185 -74.5z" />
    <glyph glyph-name="Uacute" unicode="&#xda;" horiz-adv-x="695" 
d="M329 783l88 114l47 -23l-101 -91h-34zM347 -11q-114 0 -183 74.5t-69 207.5v457h42v-455q0 -118 56 -181t156 -63q98 0 153.5 62t55.5 180v457h43v-454q0 -136 -69 -210.5t-185 -74.5z" />
    <glyph glyph-name="Ucircumflex" unicode="&#xdb;" horiz-adv-x="695" 
d="M347 -11q-114 0 -183 74.5t-69 207.5v457h42v-455q0 -118 56 -181t156 -63q98 0 153.5 62t55.5 180v457h43v-454q0 -136 -69 -210.5t-185 -74.5zM231 785l98 106h37l98 -106h-43l-74 67l-74 -67h-42z" />
    <glyph glyph-name="Udieresis" unicode="&#xdc;" horiz-adv-x="695" 
d="M391 790v68h59v-68h-59zM243 790v68h59v-68h-59zM347 -11q-114 0 -183 74.5t-69 207.5v457h42v-455q0 -118 56 -181t156 -63q98 0 153.5 62t55.5 180v457h43v-454q0 -136 -69 -210.5t-185 -74.5z" />
    <glyph glyph-name="Yacute" unicode="&#xdd;" horiz-adv-x="634" 
d="M295 0v300l-261 428h50l233 -387l233 387h49l-261 -427v-301h-43zM298 783l88 114l47 -23l-101 -91h-34z" />
    <glyph glyph-name="Thorn" unicode="&#xde;" horiz-adv-x="618" 
d="M103 0v728h44v-133h162q117 0 185 -59t68 -163v-2q0 -107 -72.5 -168t-188.5 -61h-155v-142h-43zM146 181h157q99 0 158 50.5t59 137.5v2q0 88 -57.5 136.5t-155.5 48.5h-161v-375z" />
    <glyph glyph-name="germandbls" unicode="&#xdf;" horiz-adv-x="563" 
d="M257 -2v36q95 3 148 44.5t53 115.5v2q0 141 -201 165v34q75 22 118.5 69.5t43.5 113.5v3q0 60 -37.5 98.5t-97.5 38.5q-69 0 -109.5 -50.5t-40.5 -136.5v-531h-40v530q0 103 51 164.5t140 61.5q79 0 128 -49t49 -124v-3q0 -71 -42 -121t-107 -74q83 -17 135 -63t52 -123
v-4q0 -90 -66 -143.5t-177 -53.5z" />
    <glyph glyph-name="agrave" unicode="&#xe0;" horiz-adv-x="534" 
d="M231 -11q-73 0 -124.5 44.5t-51.5 120.5v3q0 79 55.5 125.5t146.5 46.5q80 0 152 -25v46q0 74 -40 113t-114 39q-77 0 -143 -38l-16 35q86 42 161 42q93 0 143 -51q49 -46 49 -137v-353h-40v94q-57 -105 -178 -105zM234 26q74 0 125 48t51 115v77q-75 26 -153 26
q-74 0 -116.5 -36t-42.5 -97v-3q0 -59 39 -94.5t97 -35.5zM257 612l-101 106l48 25l83 -131h-30z" />
    <glyph glyph-name="aacute" unicode="&#xe1;" horiz-adv-x="534" 
d="M231 -11q-73 0 -124.5 44.5t-51.5 120.5v3q0 79 55.5 125.5t146.5 46.5q80 0 152 -25v46q0 74 -40 113t-114 39q-77 0 -143 -38l-16 35q86 42 161 42q93 0 143 -51q49 -46 49 -137v-353h-40v94q-57 -105 -178 -105zM234 26q74 0 125 48t51 115v77q-75 26 -153 26
q-74 0 -116.5 -36t-42.5 -97v-3q0 -59 39 -94.5t97 -35.5zM251 612l83 131l48 -25l-100 -106h-31z" />
    <glyph glyph-name="acircumflex" unicode="&#xe2;" horiz-adv-x="534" 
d="M231 -11q-73 0 -124.5 44.5t-51.5 120.5v3q0 79 55.5 125.5t146.5 46.5q80 0 152 -25v46q0 74 -40 113t-114 39q-77 0 -143 -38l-16 35q86 42 161 42q93 0 143 -51q49 -46 49 -137v-353h-40v94q-57 -105 -178 -105zM234 26q74 0 125 48t51 115v77q-75 26 -153 26
q-74 0 -116.5 -36t-42.5 -97v-3q0 -59 39 -94.5t97 -35.5zM160 614l93 125h33l93 -125h-36l-74 80l-74 -80h-35z" />
    <glyph glyph-name="atilde" unicode="&#xe3;" horiz-adv-x="534" 
d="M231 -11q-73 0 -124.5 44.5t-51.5 120.5v3q0 79 55.5 125.5t146.5 46.5q80 0 152 -25v46q0 74 -40 113t-114 39q-77 0 -143 -38l-16 35q86 42 161 42q93 0 143 -51q49 -46 49 -137v-353h-40v94q-57 -105 -178 -105zM234 26q74 0 125 48t51 115v77q-75 26 -153 26
q-74 0 -116.5 -36t-42.5 -97v-3q0 -59 39 -94.5t97 -35.5zM328 616q-24 0 -62 25q-34 24 -55 24q-16 0 -26 -12t-20 -41l-29 7q12 47 30 67t45 20q21 0 63 -26q37 -23 54 -23q16 0 26 12t20 41l29 -7q-22 -87 -75 -87z" />
    <glyph glyph-name="adieresis" unicode="&#xe4;" horiz-adv-x="534" 
d="M231 -11q-73 0 -124.5 44.5t-51.5 120.5v3q0 79 55.5 125.5t146.5 46.5q80 0 152 -25v46q0 74 -40 113t-114 39q-77 0 -143 -38l-16 35q86 42 161 42q93 0 143 -51q49 -46 49 -137v-353h-40v94q-57 -105 -178 -105zM234 26q74 0 125 48t51 115v77q-75 26 -153 26
q-74 0 -116.5 -36t-42.5 -97v-3q0 -59 39 -94.5t97 -35.5zM311 619v69h55v-69h-55zM174 619v69h54v-69h-54z" />
    <glyph glyph-name="aring" unicode="&#xe5;" horiz-adv-x="534" 
d="M231 -11q-73 0 -124.5 44.5t-51.5 120.5v3q0 79 55.5 125.5t146.5 46.5q80 0 152 -25v46q0 74 -40 113t-114 39q-77 0 -143 -38l-16 35q86 42 161 42q93 0 143 -51q49 -46 49 -137v-353h-40v94q-57 -105 -178 -105zM234 26q74 0 125 48t51 115v77q-75 26 -153 26
q-74 0 -116.5 -36t-42.5 -97v-3q0 -59 39 -94.5t97 -35.5zM270 612q-40 0 -68.5 28t-28.5 67q0 38 28.5 66t68.5 28t68.5 -28t28.5 -66q0 -39 -28.5 -67t-68.5 -28zM270 638q29 0 48 20t19 49t-19 48.5t-48 19.5t-48.5 -19.5t-19.5 -48.5t19.5 -49t48.5 -20z" />
    <glyph glyph-name="ae" unicode="&#xe6;" horiz-adv-x="880" 
d="M231 -11q-73 0 -124.5 44.5t-51.5 120.5v3q0 79 55 125.5t145 46.5q74 0 146 -25q0 2 1 23t1 22q-1 75 -40.5 114t-112.5 39q-70 0 -139 -37l-16 36q82 40 157 40q150 0 179 -128q27 62 75.5 97t108.5 35q94 0 151 -77.5t57 -196.5q0 -17 -1 -21h-381q4 -102 59 -162.5
t132 -60.5q86 0 152 68l26 -28q-80 -78 -180 -78q-63 0 -113.5 32t-80.5 92q-34 -54 -86.5 -89t-118.5 -35zM441 287h339q-4 93 -48 156.5t-118 63.5q-72 0 -119.5 -61t-53.5 -159zM234 26q58 0 106.5 35t78.5 90q-17 48 -19 116q-72 25 -146 25t-115 -36t-41 -97v-3
q0 -59 37.5 -94.5t98.5 -35.5z" />
    <glyph glyph-name="ccedilla" unicode="&#xe7;" horiz-adv-x="510" 
d="M239 -138l-46 20l70 109q-89 12 -145 86t-56 186v5q0 120 68 198.5t165 78.5q90 0 165 -75l-27 -30q-66 66 -140 66q-79 0 -133.5 -67.5t-54.5 -170.5v-4q0 -106 56 -171.5t134 -65.5q79 1 140 69l27 -27q-69 -76 -164 -80z" />
    <glyph glyph-name="egrave" unicode="&#xe8;" horiz-adv-x="543" 
d="M292 -11q-97 0 -163.5 75t-66.5 200v3q0 123 62 200.5t154 77.5q94 0 151 -77t57 -197v-21h-382q4 -102 58.5 -162.5t132.5 -60.5q85 0 152 70l25 -28q-77 -80 -180 -80zM104 287h339q-4 93 -48 156.5t-118 63.5q-71 0 -119 -61t-54 -159zM267 612l-101 106l48 25
l83 -131h-30z" />
    <glyph glyph-name="eacute" unicode="&#xe9;" horiz-adv-x="543" 
d="M261 612l83 131l48 -25l-100 -106h-31zM292 -11q-97 0 -163.5 75t-66.5 200v3q0 123 62 200.5t154 77.5q94 0 151 -77t57 -197v-21h-382q4 -102 58.5 -162.5t132.5 -60.5q85 0 152 70l25 -28q-77 -80 -180 -80zM104 287h339q-4 93 -48 156.5t-118 63.5q-71 0 -119 -61
t-54 -159z" />
    <glyph glyph-name="ecircumflex" unicode="&#xea;" horiz-adv-x="543" 
d="M168 614l93 125h33l93 -125h-36l-74 80l-74 -80h-35zM292 -11q-97 0 -163.5 75t-66.5 200v3q0 123 62 200.5t154 77.5q94 0 151 -77t57 -197v-21h-382q4 -102 58.5 -162.5t132.5 -60.5q85 0 152 70l25 -28q-77 -80 -180 -80zM104 287h339q-4 93 -48 156.5t-118 63.5
q-71 0 -119 -61t-54 -159z" />
    <glyph glyph-name="edieresis" unicode="&#xeb;" horiz-adv-x="543" 
d="M319 619v69h55v-69h-55zM182 619v69h54v-69h-54zM292 -11q-97 0 -163.5 75t-66.5 200v3q0 123 62 200.5t154 77.5q94 0 151 -77t57 -197v-21h-382q4 -102 58.5 -162.5t132.5 -60.5q85 0 152 70l25 -28q-77 -80 -180 -80zM104 287h339q-4 93 -48 156.5t-118 63.5
q-71 0 -119 -61t-54 -159z" />
    <glyph glyph-name="igrave" unicode="&#xec;" horiz-adv-x="240" 
d="M99 0v533h41v-533h-41zM109 612l-101 106l48 25l83 -131h-30z" />
    <glyph glyph-name="iacute" unicode="&#xed;" horiz-adv-x="240" 
d="M105 612l83 131l48 -25l-100 -106h-31zM99 0v533h41v-533h-41z" />
    <glyph glyph-name="icircumflex" unicode="&#xee;" horiz-adv-x="240" 
d="M12 614l93 125h33l93 -125h-36l-74 80l-74 -80h-35zM99 0v533h41v-533h-41z" />
    <glyph glyph-name="idieresis" unicode="&#xef;" horiz-adv-x="240" 
d="M163 619v69h55v-69h-55zM26 619v69h54v-69h-54zM99 0v533h41v-533h-41z" />
    <glyph glyph-name="eth" unicode="&#xf0;" horiz-adv-x="584" 
d="M431 723l-87 -49q178 -188 178 -383v-6q0 -133 -65.5 -214.5t-166.5 -81.5q-97 0 -162.5 79.5t-65.5 196.5v4q0 119 65.5 194.5t155.5 75.5q95 0 168 -82q-40 95 -140 198l-102 -57l-19 30l95 53q-31 30 -80 70h60q29 -25 54 -51l93 52zM292 27q80 0 134 68t54 171v5
q0 102 -55 166t-138 64q-79 0 -130.5 -65.5t-51.5 -167.5v-4q0 -99 54 -168t133 -69z" />
    <glyph glyph-name="ntilde" unicode="&#xf1;" horiz-adv-x="572" 
d="M94 0v533h40v-102q20 49 63 81.5t107 32.5q86 0 134.5 -55t48.5 -151v-339h-41v329q0 85 -39 132t-110 47q-70 0 -116.5 -52t-46.5 -132v-324h-40zM349 616q-24 0 -62 25q-34 24 -55 24q-16 0 -26 -12t-20 -41l-29 7q12 47 30 67t45 20q21 0 63 -26q37 -23 54 -23
q16 0 26 12t20 41l29 -7q-22 -87 -75 -87z" />
    <glyph glyph-name="ograve" unicode="&#xf2;" horiz-adv-x="586" 
d="M293 -11q-100 0 -165.5 78.5t-65.5 196.5v4q0 117 66 197t166 80q99 0 165 -79t66 -197v-4q0 -117 -66 -196.5t-166 -79.5zM294 27q81 0 135 68t54 169v4q0 101 -55 169.5t-135 68.5q-81 0 -134.5 -68t-53.5 -169v-4q0 -102 54.5 -170t134.5 -68zM282 612l-101 106l48 25
l83 -131h-30z" />
    <glyph glyph-name="oacute" unicode="&#xf3;" horiz-adv-x="586" 
d="M275 612l83 131l48 -25l-100 -106h-31zM293 -11q-100 0 -165.5 78.5t-65.5 196.5v4q0 117 66 197t166 80q99 0 165 -79t66 -197v-4q0 -117 -66 -196.5t-166 -79.5zM294 27q81 0 135 68t54 169v4q0 101 -55 169.5t-135 68.5q-81 0 -134.5 -68t-53.5 -169v-4
q0 -102 54.5 -170t134.5 -68z" />
    <glyph glyph-name="ocircumflex" unicode="&#xf4;" horiz-adv-x="586" 
d="M183 614l93 125h33l93 -125h-36l-74 80l-74 -80h-35zM293 -11q-100 0 -165.5 78.5t-65.5 196.5v4q0 117 66 197t166 80q99 0 165 -79t66 -197v-4q0 -117 -66 -196.5t-166 -79.5zM294 27q81 0 135 68t54 169v4q0 101 -55 169.5t-135 68.5q-81 0 -134.5 -68t-53.5 -169v-4
q0 -102 54.5 -170t134.5 -68z" />
    <glyph glyph-name="otilde" unicode="&#xf5;" horiz-adv-x="586" 
d="M293 -11q-100 0 -165.5 78.5t-65.5 196.5v4q0 117 66 197t166 80q99 0 165 -79t66 -197v-4q0 -117 -66 -196.5t-166 -79.5zM294 27q81 0 135 68t54 169v4q0 101 -55 169.5t-135 68.5q-81 0 -134.5 -68t-53.5 -169v-4q0 -102 54.5 -170t134.5 -68zM354 616q-24 0 -62 25
q-34 24 -55 24q-16 0 -26 -12t-20 -41l-29 7q12 47 30 67t45 20q21 0 63 -26q37 -23 54 -23q16 0 26 12t20 41l29 -7q-22 -87 -75 -87z" />
    <glyph glyph-name="odieresis" unicode="&#xf6;" horiz-adv-x="586" 
d="M334 619v69h55v-69h-55zM197 619v69h54v-69h-54zM293 -11q-100 0 -165.5 78.5t-65.5 196.5v4q0 117 66 197t166 80q99 0 165 -79t66 -197v-4q0 -117 -66 -196.5t-166 -79.5zM294 27q81 0 135 68t54 169v4q0 101 -55 169.5t-135 68.5q-81 0 -134.5 -68t-53.5 -169v-4
q0 -102 54.5 -170t134.5 -68z" />
    <glyph glyph-name="divide" unicode="&#xf7;" horiz-adv-x="569" 
d="M254 511v76h62v-76h-62zM500 346h-431v40h431v-40zM254 145v76h62v-76h-62z" />
    <glyph glyph-name="oslash" unicode="&#xf8;" horiz-adv-x="586" 
d="M485 539h45l-65 -81q60 -79 60 -189v-4q0 -117 -66.5 -196.5t-165.5 -79.5q-84 0 -148 59l-43 -54h-45l65 81q-60 74 -60 189v4q0 117 66.5 197t165.5 80q87 0 147 -60zM294 26q81 0 135 69t54 169v4q0 90 -44 157l-270 -344q52 -55 125 -55zM104 269v-3q0 -93 43 -158
l271 343q-53 56 -125 56q-82 0 -135.5 -68.5t-53.5 -169.5z" />
    <glyph glyph-name="ugrave" unicode="&#xf9;" horiz-adv-x="572" 
d="M268 -11q-86 0 -134.5 54.5t-48.5 150.5v339h40v-329q0 -84 39 -131t111 -47q68 0 115.5 52t47.5 131v324h40v-533h-40v103q-52 -114 -170 -114zM270 611l-101 106l48 25l83 -131h-30z" />
    <glyph glyph-name="uacute" unicode="&#xfa;" horiz-adv-x="572" 
d="M264 611l83 131l48 -25l-100 -106h-31zM268 -11q-86 0 -134.5 54.5t-48.5 150.5v339h40v-329q0 -84 39 -131t111 -47q68 0 115.5 52t47.5 131v324h40v-533h-40v103q-52 -114 -170 -114z" />
    <glyph glyph-name="ucircumflex" unicode="&#xfb;" horiz-adv-x="572" 
d="M171 613l93 125h33l93 -125h-36l-74 80l-74 -80h-35zM268 -11q-86 0 -134.5 54.5t-48.5 150.5v339h40v-329q0 -84 39 -131t111 -47q68 0 115.5 52t47.5 131v324h40v-533h-40v103q-52 -114 -170 -114z" />
    <glyph glyph-name="udieresis" unicode="&#xfc;" horiz-adv-x="572" 
d="M322 618v69h55v-69h-55zM185 618v69h54v-69h-54zM268 -11q-86 0 -134.5 54.5t-48.5 150.5v339h40v-329q0 -84 39 -131t111 -47q68 0 115.5 52t47.5 131v324h40v-533h-40v103q-52 -114 -170 -114z" />
    <glyph glyph-name="yacute" unicode="&#xfd;" 
d="M280 53l170 480h43l-197 -541q-31 -85 -66 -118t-87 -33q-45 0 -86 22l15 37q32 -21 72 -21q37 0 63 26t53 96l-213 532h45zM256 611l83 131l48 -25l-100 -106h-31z" />
    <glyph glyph-name="thorn" unicode="&#xfe;" horiz-adv-x="607" 
d="M94 -156v907h40v-344q26 60 74.5 99t113.5 39q90 0 155 -76.5t65 -197.5v-7q0 -122 -65 -198.5t-155 -76.5q-66 0 -113.5 37.5t-74.5 96.5v-279h-40zM318 27q79 0 130 64.5t51 170.5v7q0 104 -52.5 170.5t-128.5 66.5t-131.5 -67t-55.5 -168v-8q0 -102 55.5 -169
t131.5 -67z" />
    <glyph glyph-name="ydieresis" unicode="&#xff;" 
d="M280 53l170 480h43l-197 -541q-31 -85 -66 -118t-87 -33q-45 0 -86 22l15 37q32 -21 72 -21q37 0 63 26t53 96l-213 532h45zM314 618v69h55v-69h-55zM177 618v69h54v-69h-54z" />
    <glyph glyph-name="Amacron" unicode="&#x100;" horiz-adv-x="713" 
d="M50 0l285 733h42l286 -733h-47l-79 208h-364l-79 -208h-44zM189 247h332l-166 432zM218 817v40h273v-40h-273z" />
    <glyph glyph-name="amacron" unicode="&#x101;" horiz-adv-x="534" 
d="M231 -11q-73 0 -124.5 44.5t-51.5 120.5v3q0 79 55.5 125.5t146.5 46.5q80 0 152 -25v46q0 74 -40 113t-114 39q-77 0 -143 -38l-16 35q86 42 161 42q93 0 143 -51q49 -46 49 -137v-353h-40v94q-57 -105 -178 -105zM234 26q74 0 125 48t51 115v77q-75 26 -153 26
q-74 0 -116.5 -36t-42.5 -97v-3q0 -59 39 -94.5t97 -35.5zM141 634v38h257v-38h-257z" />
    <glyph glyph-name="Abreve" unicode="&#x102;" horiz-adv-x="713" 
d="M50 0l285 733h42l286 -733h-47l-79 208h-364l-79 -208h-44zM189 247h332l-166 432zM355 794q-52 0 -85.5 24.5t-38.5 69.5h36q18 -54 88 -54t88 54h36q-6 -45 -39 -69.5t-85 -24.5z" />
    <glyph glyph-name="abreve" unicode="&#x103;" horiz-adv-x="534" 
d="M231 -11q-73 0 -124.5 44.5t-51.5 120.5v3q0 79 55.5 125.5t146.5 46.5q80 0 152 -25v46q0 74 -40 113t-114 39q-77 0 -143 -38l-16 35q86 42 161 42q93 0 143 -51q49 -46 49 -137v-353h-40v94q-57 -105 -178 -105zM234 26q74 0 125 48t51 115v77q-75 26 -153 26
q-74 0 -116.5 -36t-42.5 -97v-3q0 -59 39 -94.5t97 -35.5zM270 612q-53 0 -85.5 28t-37.5 79h33q19 -69 90 -69t90 69h33q-5 -51 -38 -79t-85 -28z" />
    <glyph glyph-name="Aogonek" unicode="&#x104;" horiz-adv-x="713" 
d="M672 -122v-30q-3 -1 -6 -1q-104 5 -104 69q0 44 53 86l-3 8l-75 198h-364l-79 -208h-44l285 733h42l286 -733h-12q-49 -45 -49 -77q0 -41 70 -45zM189 247h332l-166 432z" />
    <glyph glyph-name="aogonek" unicode="&#x105;" horiz-adv-x="534" 
d="M464 -122v-30q-3 -1 -6 -1q-104 5 -104 69q0 45 55 88v8v82q-57 -105 -178 -105q-73 0 -124.5 44.5t-51.5 120.5v3q0 79 55.5 125.5t146.5 46.5q80 0 152 -25v46q0 74 -40 113t-114 39q-77 0 -143 -38l-16 35q86 42 161 42q93 0 143 -51q49 -46 49 -137v-353h-6
q-49 -45 -49 -77q0 -41 70 -45zM234 26q74 0 125 48t51 115v77q-75 26 -153 26q-74 0 -116.5 -36t-42.5 -97v-3q0 -59 39 -94.5t97 -35.5z" />
    <glyph glyph-name="Cacute" unicode="&#x106;" horiz-adv-x="653" 
d="M382 -10q-133 0 -220 103t-87 268v5q0 163 88.5 267.5t222.5 104.5q119 0 216 -88l-28 -33q-83 81 -190 81q-113 0 -189 -93.5t-76 -237.5v-4q0 -145 76 -239t188 -94q106 0 196 87l27 -30q-99 -97 -224 -97zM357 794l88 114l47 -23l-101 -91h-34z" />
    <glyph glyph-name="cacute" unicode="&#x107;" horiz-adv-x="510" 
d="M270 612l83 131l48 -25l-100 -106h-31zM293 -11q-99 0 -165 76.5t-66 197.5v5q0 120 68 198.5t165 78.5q90 0 165 -75l-27 -30q-66 66 -140 66q-79 0 -133.5 -67.5t-54.5 -170.5v-4q0 -106 56 -171.5t134 -65.5q79 1 140 69l27 -27q-73 -80 -169 -80z" />
    <glyph glyph-name="Cdotaccent" unicode="&#x10a;" horiz-adv-x="653" 
d="M344 801v68h61v-68h-61zM382 -10q-133 0 -220 103t-87 268v5q0 163 88.5 267.5t222.5 104.5q119 0 216 -88l-28 -33q-83 81 -190 81q-113 0 -189 -93.5t-76 -237.5v-4q0 -145 76 -239t188 -94q106 0 196 87l27 -30q-99 -97 -224 -97z" />
    <glyph glyph-name="cdotaccent" unicode="&#x10b;" horiz-adv-x="510" 
d="M293 -11q-99 0 -165 76.5t-66 197.5v5q0 120 68 198.5t165 78.5q90 0 165 -75l-27 -30q-66 66 -140 66q-79 0 -133.5 -67.5t-54.5 -170.5v-4q0 -106 56 -171.5t134 -65.5q79 1 140 69l27 -27q-73 -80 -169 -80zM260 619v70h57v-70h-57z" />
    <glyph glyph-name="Ccaron" unicode="&#x10c;" horiz-adv-x="653" 
d="M382 -10q-133 0 -220 103t-87 268v5q0 163 88.5 267.5t222.5 104.5q119 0 216 -88l-28 -33q-83 81 -190 81q-113 0 -189 -93.5t-76 -237.5v-4q0 -145 76 -239t188 -94q106 0 196 87l27 -30q-99 -97 -224 -97zM491 902l-98 -106h-37l-98 106h43l74 -67l74 67h42z" />
    <glyph glyph-name="ccaron" unicode="&#x10d;" horiz-adv-x="510" 
d="M398 739l-93 -125h-32l-94 125h37l73 -80l74 80h35zM293 -11q-99 0 -165 76.5t-66 197.5v5q0 120 68 198.5t165 78.5q90 0 165 -75l-27 -30q-66 66 -140 66q-79 0 -133.5 -67.5t-54.5 -170.5v-4q0 -106 56 -171.5t134 -65.5q79 1 140 69l27 -27q-73 -80 -169 -80z" />
    <glyph glyph-name="Dcaron" unicode="&#x10e;" horiz-adv-x="707" 
d="M453 895l-98 -106h-37l-98 106h43l74 -67l74 67h42zM103 0v728h188q152 0 246.5 -100t94.5 -260v-7q0 -160 -94 -260.5t-247 -100.5h-188zM289 688h-143v-648h144q134 0 216.5 89t82.5 231v7q0 142 -82.5 231.5t-217.5 89.5z" />
    <glyph glyph-name="dcaron" unicode="&#x10f;" horiz-adv-x="605" 
d="M570 597l14 155h47v-3l-39 -152h-22zM282 -11q-90 0 -154 75.5t-64 198.5v7q0 123 64 199t154 76q66 0 114.5 -38.5t75.5 -96.5v341h40v-751h-40v126q-67 -137 -190 -137zM286 27q77 0 132.5 67t55.5 169v8q0 102 -55.5 168.5t-132.5 66.5q-78 0 -128.5 -64.5
t-50.5 -170.5v-7q0 -105 51.5 -171t127.5 -66z" />
    <glyph glyph-name="Dcroat" unicode="&#x110;" horiz-adv-x="730" 
d="M126 0v346h-72v40h72v342h190q150 0 244.5 -100.5t94.5 -259.5v-7q0 -160 -94.5 -260.5t-244.5 -100.5h-190zM369 346h-200v-306h147q133 0 214 89t81 231v7q0 142 -81.5 231.5t-213.5 89.5h-147v-302h200v-40z" />
    <glyph glyph-name="dcroat" unicode="&#x111;" horiz-adv-x="605" 
d="M306 637v37h166v77h40v-77h65v-37h-65v-637h-40v126q-67 -137 -189 -137q-90 0 -154.5 76t-64.5 198v7q0 121 65 198t154 77q65 0 113.5 -38.5t75.5 -96.5v227h-166zM287 27q77 0 132 67t55 169v8q0 103 -55 169t-132 66t-128.5 -65t-51.5 -170v-7q0 -105 52 -171
t128 -66z" />
    <glyph glyph-name="Emacron" unicode="&#x112;" horiz-adv-x="604" 
d="M184 810v40h273v-40h-273zM103 0v728h431v-40h-388v-301h350v-40h-350v-307h393v-40h-436z" />
    <glyph glyph-name="emacron" unicode="&#x113;" horiz-adv-x="543" 
d="M292 -11q-97 0 -163.5 75t-66.5 200v3q0 123 62 200.5t154 77.5q94 0 151 -77t57 -197v-21h-382q4 -102 58.5 -162.5t132.5 -60.5q85 0 152 70l25 -28q-77 -80 -180 -80zM104 287h339q-4 93 -48 156.5t-118 63.5q-71 0 -119 -61t-54 -159zM149 634v38h257v-38h-257z" />
    <glyph glyph-name="Ebreve" unicode="&#x114;" horiz-adv-x="604" 
d="M321 787q-52 0 -85.5 24.5t-38.5 69.5h36q18 -54 88 -54t88 54h36q-6 -45 -39 -69.5t-85 -24.5zM103 0v728h431v-40h-388v-301h350v-40h-350v-307h393v-40h-436z" />
    <glyph glyph-name="ebreve" unicode="&#x115;" horiz-adv-x="543" 
d="M292 -11q-97 0 -163.5 75t-66.5 200v3q0 123 62 200.5t154 77.5q94 0 151 -77t57 -197v-21h-382q4 -102 58.5 -162.5t132.5 -60.5q85 0 152 70l25 -28q-77 -80 -180 -80zM104 287h339q-4 93 -48 156.5t-118 63.5q-71 0 -119 -61t-54 -159zM278 612q-53 0 -85.5 28
t-37.5 79h33q19 -69 90 -69t90 69h33q-5 -51 -38 -79t-85 -28z" />
    <glyph glyph-name="Edotaccent" unicode="&#x116;" horiz-adv-x="604" 
d="M290 794v68h61v-68h-61zM103 0v728h431v-40h-388v-301h350v-40h-350v-307h393v-40h-436z" />
    <glyph glyph-name="edotaccent" unicode="&#x117;" horiz-adv-x="543" 
d="M292 -11q-97 0 -163.5 75t-66.5 200v3q0 123 62 200.5t154 77.5q94 0 151 -77t57 -197v-21h-382q4 -102 58.5 -162.5t132.5 -60.5q85 0 152 70l25 -28q-77 -80 -180 -80zM104 287h339q-4 93 -48 156.5t-118 63.5q-71 0 -119 -61t-54 -159zM249 619v70h57v-70h-57z" />
    <glyph glyph-name="Eogonek" unicode="&#x118;" horiz-adv-x="604" 
d="M103 0v728h431v-40h-388v-301h350v-40h-350v-307h393v-40h-24q-49 -45 -49 -77q0 -41 70 -45v-30q-3 -1 -6 -1q-104 5 -104 69q0 42 50 84h-373z" />
    <glyph glyph-name="eogonek" unicode="&#x119;" horiz-adv-x="543" 
d="M104 287h339q-4 93 -48 156.5t-118 63.5q-71 0 -119 -61t-54 -159zM447 97l25 -28q-29 -29 -50 -48q-63 -56 -63 -96q0 -22 16 -33t54 -14v-30q-3 -1 -7 -1q-103 5 -103 71q0 40 45 82q-36 -11 -72 -11q-97 0 -163.5 75t-66.5 200v3q0 123 62 200.5t154 77.5
q94 0 151 -77t57 -197v-21h-382q4 -102 58.5 -162.5t132.5 -60.5q85 0 152 70z" />
    <glyph glyph-name="Ecaron" unicode="&#x11a;" horiz-adv-x="604" 
d="M437 895l-98 -106h-37l-98 106h43l74 -67l74 67h42zM103 0v728h431v-40h-388v-301h350v-40h-350v-307h393v-40h-436z" />
    <glyph glyph-name="ecaron" unicode="&#x11b;" horiz-adv-x="543" 
d="M387 739l-93 -125h-32l-94 125h37l73 -80l74 80h35zM292 -11q-97 0 -163.5 75t-66.5 200v3q0 123 62 200.5t154 77.5q94 0 151 -77t57 -197v-21h-382q4 -102 58.5 -162.5t132.5 -60.5q85 0 152 70l25 -28q-77 -80 -180 -80zM104 287h339q-4 93 -48 156.5t-118 63.5
q-71 0 -119 -61t-54 -159z" />
    <glyph glyph-name="Gbreve" unicode="&#x11e;" horiz-adv-x="707" 
d="M377 794q-52 0 -85.5 24.5t-38.5 69.5h36q18 -54 88 -54t88 54h36q-6 -45 -39 -69.5t-85 -24.5zM393 -11q-145 0 -231.5 103t-86.5 268v6q0 160 88 266.5t227 106.5q118 0 211 -76l-27 -34q-77 70 -185 70q-116 0 -193 -94.5t-77 -237.5v-4q0 -151 75 -243t201 -92
q103 0 182 64v240h-208v41h249v-300q-99 -84 -225 -84z" />
    <glyph glyph-name="gbreve" unicode="&#x11f;" horiz-adv-x="603" 
d="M287 -158q-109 0 -201 62l21 35q80 -59 181 -59q84 0 132.5 46t48.5 135v101q-66 -127 -189 -127q-89 0 -152.5 70.5t-63.5 182.5v3q0 112 63.5 183t152.5 71q121 0 189 -125v113h41v-473q0 -101 -58 -159q-59 -59 -165 -59zM284 73q75 0 131.5 61.5t56.5 152.5v4
q0 93 -56.5 154t-131.5 61t-126 -59t-51 -155v-3q0 -95 51 -155.5t126 -60.5zM306 612q-53 0 -85.5 28t-37.5 79h33q19 -69 90 -69t90 69h33q-5 -51 -38 -79t-85 -28z" />
    <glyph glyph-name="Gdotaccent" unicode="&#x120;" horiz-adv-x="707" 
d="M347 801v68h61v-68h-61zM393 -11q-145 0 -231.5 103t-86.5 268v6q0 160 88 266.5t227 106.5q118 0 211 -76l-27 -34q-77 70 -185 70q-116 0 -193 -94.5t-77 -237.5v-4q0 -151 75 -243t201 -92q103 0 182 64v240h-208v41h249v-300q-99 -84 -225 -84z" />
    <glyph glyph-name="gdotaccent" unicode="&#x121;" horiz-adv-x="603" 
d="M287 -158q-109 0 -201 62l21 35q80 -59 181 -59q84 0 132.5 46t48.5 135v101q-66 -127 -189 -127q-89 0 -152.5 70.5t-63.5 182.5v3q0 112 63.5 183t152.5 71q121 0 189 -125v113h41v-473q0 -101 -58 -159q-59 -59 -165 -59zM284 73q75 0 131.5 61.5t56.5 152.5v4
q0 93 -56.5 154t-131.5 61t-126 -59t-51 -155v-3q0 -95 51 -155.5t126 -60.5zM277 619v70h57v-70h-57z" />
    <glyph glyph-name="Gcommaaccent" unicode="&#x122;" horiz-adv-x="707" 
d="M393 -11q-145 0 -231.5 103t-86.5 268v6q0 160 88 266.5t227 106.5q118 0 211 -76l-27 -34q-77 70 -185 70q-116 0 -193 -94.5t-77 -237.5v-4q0 -151 75 -243t201 -92q103 0 182 64v240h-208v41h249v-300q-99 -84 -225 -84zM338 -211l-8 20q24 9 34 21t8 34h-25v63h57
v-53q0 -37 -15.5 -56.5t-50.5 -28.5z" />
    <glyph glyph-name="gcommaaccent" unicode="&#x123;" horiz-adv-x="603" 
d="M312 714l7 -13q-24 -13 -25 -48h16v-48h-33v31q0 61 35 78zM287 -158q-109 0 -201 62l21 35q80 -59 181 -59q84 0 132.5 46t48.5 135v101q-66 -127 -189 -127q-89 0 -152.5 70.5t-63.5 182.5v3q0 112 63.5 183t152.5 71q121 0 189 -125v113h41v-473q0 -101 -58 -159
q-59 -59 -165 -59zM284 73q75 0 131.5 61.5t56.5 152.5v4q0 93 -56.5 154t-131.5 61t-126 -59t-51 -155v-3q0 -95 51 -155.5t126 -60.5z" />
    <glyph glyph-name="Hbar" unicode="&#x126;" horiz-adv-x="731" 
d="M49 550v37h71v141h44v-141h404v141h43v-141h71v-37h-71v-550h-43v344h-404v-344h-44v550h-71zM164 383h404v167h-404v-167z" />
    <glyph glyph-name="hbar" unicode="&#x127;" horiz-adv-x="572" 
d="M300 637h-166v-206q20 49 63 81.5t106 32.5q85 0 134.5 -56.5t49.5 -151.5v-337h-41v331q0 82 -39 129.5t-110 47.5q-70 0 -116.5 -52t-46.5 -132v-324h-40v637h-66v37h66v77h40v-77h166v-37z" />
    <glyph glyph-name="Imacron" unicode="&#x12a;" horiz-adv-x="263" 
d="M110 0v728h43v-728h-43zM-3 810v40h273v-40h-273z" />
    <glyph glyph-name="imacron" unicode="&#x12b;" horiz-adv-x="240" 
d="M99 0v533h41v-533h-41zM-7 634v38h257v-38h-257z" />
    <glyph glyph-name="Ibreve" unicode="&#x12c;" horiz-adv-x="263" 
d="M110 0v728h43v-728h-43zM134 787q-52 0 -85.5 24.5t-38.5 69.5h36q18 -54 88 -54t88 54h36q-6 -45 -39 -69.5t-85 -24.5z" />
    <glyph glyph-name="ibreve" unicode="&#x12d;" horiz-adv-x="240" 
d="M99 0v533h41v-533h-41zM122 612q-53 0 -85.5 28t-37.5 79h33q19 -69 90 -69t90 69h33q-5 -51 -38 -79t-85 -28z" />
    <glyph glyph-name="Iogonek" unicode="&#x12e;" horiz-adv-x="263" 
d="M110 11v717h43v-728h-5q-49 -45 -49 -77q0 -41 70 -45v-30q-3 -1 -6 -1q-104 5 -104 69q0 42 51 85v10z" />
    <glyph glyph-name="iogonek" unicode="&#x12f;" horiz-adv-x="240" 
d="M99 7v526h41v-533h-3q-49 -45 -49 -77q0 -41 70 -45v-30q-3 -1 -6 -1q-104 5 -104 69q0 42 51 85v6zM95 668v67h50v-67h-50z" />
    <glyph glyph-name="Idotaccent" unicode="&#x130;" horiz-adv-x="263" 
d="M110 0v728h43v-728h-43zM103 794v68h61v-68h-61z" />
    <glyph glyph-name="dotlessi" unicode="&#x131;" horiz-adv-x="240" 
d="M99 0v533h41v-533h-41z" />
    <glyph glyph-name="Kcommaaccent" unicode="&#x136;" horiz-adv-x="648" 
d="M103 0v728h43v-465l393 465h54l-272 -320l288 -408h-53l-264 374l-146 -168v-206h-43zM288 -205l-8 20q24 9 34 21t8 34h-25v63h57v-53q0 -37 -15.5 -56.5t-50.5 -28.5z" />
    <glyph glyph-name="kcommaaccent" unicode="&#x137;" horiz-adv-x="514" 
d="M231 -208l-8 20q24 9 34 21t8 34h-25v63h57v-53q0 -37 -15.5 -56.5t-50.5 -28.5zM94 0v751h40v-550l280 332h50l-197 -229l208 -304h-49l-186 271l-106 -123v-148h-40z" />
    <glyph glyph-name="Lacute" unicode="&#x139;" horiz-adv-x="548" 
d="M119 787l88 114l47 -23l-101 -91h-34zM103 0v728h43v-688h356v-40h-399z" />
    <glyph glyph-name="lacute" unicode="&#x13a;" horiz-adv-x="240" 
d="M104 800l88 114l47 -23l-101 -91h-34zM99 0v751h41v-751h-41z" />
    <glyph glyph-name="Lcommaaccent" unicode="&#x13b;" horiz-adv-x="548" 
d="M103 0v728h43v-688h356v-40h-399zM259 -210l-8 20q24 9 34 21t8 34h-25v63h57v-53q0 -37 -15.5 -56.5t-50.5 -28.5z" />
    <glyph glyph-name="lcommaaccent" unicode="&#x13c;" horiz-adv-x="240" 
d="M83 -210l-8 20q24 9 34 21t8 34h-25v63h57v-53q0 -37 -15.5 -56.5t-50.5 -28.5zM99 0v751h41v-751h-41z" />
    <glyph glyph-name="Lcaron" unicode="&#x13d;" horiz-adv-x="548" 
d="M103 0v728h43v-688h356v-40h-399zM238 575l14 155h47v-3l-39 -152h-22z" />
    <glyph glyph-name="lcaron" unicode="&#x13e;" horiz-adv-x="240" 
d="M201 597l14 155h47v-3l-39 -152h-22zM99 0v751h41v-751h-41z" />
    <glyph glyph-name="Ldot" unicode="&#x13f;" horiz-adv-x="548" 
d="M373 337v72h57v-72h-57zM103 0v728h43v-688h356v-40h-399z" />
    <glyph glyph-name="ldot" unicode="&#x140;" horiz-adv-x="283" 
d="M223 338v74h56v-74h-56zM99 0v751h41v-751h-41z" />
    <glyph glyph-name="Lslash" unicode="&#x141;" horiz-adv-x="571" 
d="M338 423l-170 -88v-295h357v-40h-399v313l-76 -40v44l76 40v371h42v-348l170 87v-44z" />
    <glyph glyph-name="lslash" unicode="&#x142;" horiz-adv-x="281" 
d="M235 414l-74 -44v-370h-41v345l-73 -42v44l73 42v362h41v-337l74 45v-45z" />
    <glyph glyph-name="Nacute" unicode="&#x143;" horiz-adv-x="720" 
d="M344 783l88 114l47 -23l-101 -91h-34zM103 0v728h41l431 -644v644h42v-728h-35l-438 655v-655h-41z" />
    <glyph glyph-name="nacute" unicode="&#x144;" horiz-adv-x="572" 
d="M272 612l83 131l48 -25l-100 -106h-31zM94 0v533h40v-102q20 49 63 81.5t107 32.5q86 0 134.5 -55t48.5 -151v-339h-41v329q0 85 -39 132t-110 47q-70 0 -116.5 -52t-46.5 -132v-324h-40z" />
    <glyph glyph-name="Ncommaaccent" unicode="&#x145;" horiz-adv-x="720" 
d="M323 -205l-8 20q24 9 34 21t8 34h-25v63h57v-53q0 -37 -15.5 -56.5t-50.5 -28.5zM103 0v728h41l431 -644v644h42v-728h-35l-438 655v-655h-41z" />
    <glyph glyph-name="ncommaaccent" unicode="&#x146;" horiz-adv-x="572" 
d="M250 -208l-8 20q24 9 34 21t8 34h-25v63h57v-53q0 -37 -15.5 -56.5t-50.5 -28.5zM94 0v533h40v-102q20 49 63 81.5t107 32.5q86 0 134.5 -55t48.5 -151v-339h-41v329q0 85 -39 132t-110 47q-70 0 -116.5 -52t-46.5 -132v-324h-40z" />
    <glyph glyph-name="Ncaron" unicode="&#x147;" horiz-adv-x="720" 
d="M478 891l-98 -106h-37l-98 106h43l74 -67l74 67h42zM103 0v728h41l431 -644v644h42v-728h-35l-438 655v-655h-41z" />
    <glyph glyph-name="ncaron" unicode="&#x148;" horiz-adv-x="572" 
d="M398 739l-93 -125h-32l-94 125h37l73 -80l74 80h35zM94 0v533h40v-102q20 49 63 81.5t107 32.5q86 0 134.5 -55t48.5 -151v-339h-41v329q0 85 -39 132t-110 47q-70 0 -116.5 -52t-46.5 -132v-324h-40z" />
    <glyph glyph-name="Omacron" unicode="&#x14c;" horiz-adv-x="759" 
d="M242 817v40h273v-40h-273zM379 -11q-134 0 -219 105t-85 266v7q0 161 85 266.5t220 105.5q134 0 219 -105t85 -266v-7q0 -161 -85 -266.5t-220 -105.5zM380 28q113 0 186.5 94.5t73.5 237.5v7q0 142 -74 237.5t-187 95.5q-114 0 -187 -94.5t-73 -237.5v-7
q0 -142 74 -237.5t187 -95.5z" />
    <glyph glyph-name="omacron" unicode="&#x14d;" horiz-adv-x="586" 
d="M164 634v38h257v-38h-257zM293 -11q-100 0 -165.5 78.5t-65.5 196.5v4q0 117 66 197t166 80q99 0 165 -79t66 -197v-4q0 -117 -66 -196.5t-166 -79.5zM294 27q81 0 135 68t54 169v4q0 101 -55 169.5t-135 68.5q-81 0 -134.5 -68t-53.5 -169v-4q0 -102 54.5 -170
t134.5 -68z" />
    <glyph glyph-name="Obreve" unicode="&#x14e;" horiz-adv-x="759" 
d="M379 794q-52 0 -85.5 24.5t-38.5 69.5h36q18 -54 88 -54t88 54h36q-6 -45 -39 -69.5t-85 -24.5zM379 -11q-134 0 -219 105t-85 266v7q0 161 85 266.5t220 105.5q134 0 219 -105t85 -266v-7q0 -161 -85 -266.5t-220 -105.5zM380 28q113 0 186.5 94.5t73.5 237.5v7
q0 142 -74 237.5t-187 95.5q-114 0 -187 -94.5t-73 -237.5v-7q0 -142 74 -237.5t187 -95.5z" />
    <glyph glyph-name="obreve" unicode="&#x14f;" horiz-adv-x="586" 
d="M293 -11q-100 0 -165.5 78.5t-65.5 196.5v4q0 117 66 197t166 80q99 0 165 -79t66 -197v-4q0 -117 -66 -196.5t-166 -79.5zM294 27q81 0 135 68t54 169v4q0 101 -55 169.5t-135 68.5q-81 0 -134.5 -68t-53.5 -169v-4q0 -102 54.5 -170t134.5 -68zM293 612q-53 0 -85.5 28
t-37.5 79h33q19 -69 90 -69t90 69h33q-5 -51 -38 -79t-85 -28z" />
    <glyph glyph-name="Ohungarumlaut" unicode="&#x150;" horiz-adv-x="759" 
d="M379 -11q-134 0 -219 105t-85 266v7q0 161 85 266.5t220 105.5q134 0 219 -105t85 -266v-7q0 -161 -85 -266.5t-220 -105.5zM380 28q113 0 186.5 94.5t73.5 237.5v7q0 142 -74 237.5t-187 95.5q-114 0 -187 -94.5t-73 -237.5v-7q0 -142 74 -237.5t187 -95.5zM292 794
l87 114l47 -23l-100 -91h-34zM415 794l87 114l48 -23l-101 -91h-34z" />
    <glyph glyph-name="ohungarumlaut" unicode="&#x151;" horiz-adv-x="586" 
d="M329 612l83 131l44 -23l-96 -108h-31zM211 612l84 131l45 -23l-97 -108h-32zM293 -11q-100 0 -165.5 78.5t-65.5 196.5v4q0 117 66 197t166 80q99 0 165 -79t66 -197v-4q0 -117 -66 -196.5t-166 -79.5zM294 27q81 0 135 68t54 169v4q0 101 -55 169.5t-135 68.5
q-81 0 -134.5 -68t-53.5 -169v-4q0 -102 54.5 -170t134.5 -68z" />
    <glyph glyph-name="OE" unicode="&#x152;" horiz-adv-x="1028" 
d="M963 0h-550q-150 0 -244 100.5t-94 259.5v7q0 161 94 261t244 100h545v-40h-376v-301h340v-40h-340v-307h381v-40zM413 40h125v648h-126q-131 0 -212 -89t-81 -231v-7q0 -141 81.5 -231t212.5 -90z" />
    <glyph glyph-name="oe" unicode="&#x153;" horiz-adv-x="963" 
d="M292 -11q-99 0 -164.5 79t-65.5 196v4q0 117 66.5 197t165.5 80q72 0 127.5 -44.5t80.5 -119.5q23 77 75.5 120.5t119.5 43.5q94 0 151 -77.5t57 -196.5v-21h-382q4 -102 58.5 -162.5t131.5 -60.5q87 0 153 68l25 -28q-78 -78 -179 -78q-72 0 -129 44t-81 121
q-25 -76 -80.5 -120.5t-129.5 -44.5zM523 287h340q-4 93 -48 156.5t-119 63.5q-71 0 -119 -61t-54 -159zM294 27q81 0 135 68t54 169v4q0 102 -54.5 170t-135.5 68t-134.5 -68t-53.5 -169v-4q0 -102 54 -170t135 -68z" />
    <glyph glyph-name="Racute" unicode="&#x154;" horiz-adv-x="661" 
d="M103 0v728h234q125 0 191 -66q55 -55 55 -142v-2q0 -86 -52 -138.5t-140 -67.5l210 -312h-52l-205 304h-198v-304h-43zM146 343h177q106 0 161.5 46t55.5 128v1q0 81 -54 125.5t-151 44.5h-189v-345zM298 787l88 114l47 -23l-101 -91h-34z" />
    <glyph glyph-name="racute" unicode="&#x155;" horiz-adv-x="362" 
d="M178 612l83 131l48 -25l-100 -106h-31zM94 0v533h40v-131q24 62 75.5 101.5t118.5 37.5v-43h-4q-80 0 -135 -61.5t-55 -158.5v-278h-40z" />
    <glyph glyph-name="Rcommaaccent" unicode="&#x156;" horiz-adv-x="661" 
d="M103 0v728h234q125 0 191 -66q55 -55 55 -142v-2q0 -86 -52 -138.5t-140 -67.5l210 -312h-52l-205 304h-198v-304h-43zM146 343h177q106 0 161.5 46t55.5 128v1q0 81 -54 125.5t-151 44.5h-189v-345zM279 -205l-8 20q24 9 34 21t8 34h-25v63h57v-53q0 -37 -15.5 -56.5
t-50.5 -28.5z" />
    <glyph glyph-name="rcommaaccent" unicode="&#x157;" horiz-adv-x="362" 
d="M82 -210l-8 20q24 9 34 21t8 34h-25v63h57v-53q0 -37 -15.5 -56.5t-50.5 -28.5zM94 0v533h40v-131q24 62 75.5 101.5t118.5 37.5v-43h-4q-80 0 -135 -61.5t-55 -158.5v-278h-40z" />
    <glyph glyph-name="Rcaron" unicode="&#x158;" horiz-adv-x="661" 
d="M433 895l-98 -106h-37l-98 106h43l74 -67l74 67h42zM103 0v728h234q125 0 191 -66q55 -55 55 -142v-2q0 -86 -52 -138.5t-140 -67.5l210 -312h-52l-205 304h-198v-304h-43zM146 343h177q106 0 161.5 46t55.5 128v1q0 81 -54 125.5t-151 44.5h-189v-345z" />
    <glyph glyph-name="rcaron" unicode="&#x159;" horiz-adv-x="362" 
d="M305 739l-93 -125h-32l-94 125h37l73 -80l74 80h35zM94 0v533h40v-131q24 62 75.5 101.5t118.5 37.5v-43h-4q-80 0 -135 -61.5t-55 -158.5v-278h-40z" />
    <glyph glyph-name="Sacute" unicode="&#x15a;" horiz-adv-x="586" 
d="M301 -10q-137 0 -245 102l29 33q100 -95 217 -95q77 0 125 41.5t48 105.5v2q0 57 -38.5 95t-144.5 75q-116 42 -162 88t-46 118v2q0 77 59.5 129t150.5 52q119 0 210 -79l-27 -34q-85 73 -185 73q-73 0 -119 -40t-46 -98v-2q0 -58 39.5 -96t145.5 -74q114 -41 160 -89
t46 -118v-2q0 -81 -61 -135t-156 -54zM283 794l88 114l47 -23l-101 -91h-34z" />
    <glyph glyph-name="sacute" unicode="&#x15b;" horiz-adv-x="461" 
d="M216 612l83 131l48 -25l-100 -106h-31zM230 -9q-104 0 -187 74l26 32q77 -68 164 -68q54 0 89.5 29.5t35.5 74.5v2q0 40 -31.5 66t-100.5 55q-81 32 -119 63.5t-38 84.5v2q0 60 44 98t116 38q91 0 163 -57l-23 -33q-70 52 -142 52q-53 0 -85 -26t-32 -68v-2
q0 -37 31.5 -61t101.5 -54q81 -34 118.5 -67t37.5 -89v-1q0 -64 -48.5 -104.5t-120.5 -40.5z" />
    <glyph glyph-name="Scedilla" unicode="&#x15e;" horiz-adv-x="586" 
d="M260 -138l-46 20l70 109q-127 6 -228 101l29 33q100 -95 217 -95q77 0 125 41.5t48 105.5v2q0 57 -38.5 95t-144.5 75q-116 42 -162 88t-46 118v2q0 77 59.5 129t150.5 52q119 0 210 -79l-27 -34q-85 73 -185 73q-73 0 -119 -40t-46 -98v-2q0 -58 39.5 -96t145.5 -74
q114 -41 160 -89t46 -118v-2q0 -77 -55 -129.5t-143 -58.5z" />
    <glyph glyph-name="scedilla" unicode="&#x15f;" horiz-adv-x="461" 
d="M186 -138l-46 20l71 110q-95 8 -168 73l26 32q77 -68 164 -68q54 0 89.5 29.5t35.5 74.5v2q0 40 -31.5 66t-100.5 55q-81 32 -119 63.5t-38 84.5v2q0 60 44 98t116 38q91 0 163 -57l-23 -33q-70 52 -142 52q-53 0 -85 -26t-32 -68v-2q0 -37 31.5 -61t101.5 -54
q81 -34 118.5 -67t37.5 -89v-1q0 -59 -43.5 -99.5t-108.5 -44.5z" />
    <glyph glyph-name="Scaron" unicode="&#x160;" horiz-adv-x="586" 
d="M301 -10q-137 0 -245 102l29 33q100 -95 217 -95q77 0 125 41.5t48 105.5v2q0 57 -38.5 95t-144.5 75q-116 42 -162 88t-46 118v2q0 77 59.5 129t150.5 52q119 0 210 -79l-27 -34q-85 73 -185 73q-73 0 -119 -40t-46 -98v-2q0 -58 39.5 -96t145.5 -74q114 -41 160 -89
t46 -118v-2q0 -81 -61 -135t-156 -54zM419 902l-98 -106h-37l-98 106h43l74 -67l74 67h42z" />
    <glyph glyph-name="scaron" unicode="&#x161;" horiz-adv-x="461" 
d="M344 739l-93 -125h-32l-94 125h37l73 -80l74 80h35zM230 -9q-104 0 -187 74l26 32q77 -68 164 -68q54 0 89.5 29.5t35.5 74.5v2q0 40 -31.5 66t-100.5 55q-81 32 -119 63.5t-38 84.5v2q0 60 44 98t116 38q91 0 163 -57l-23 -33q-70 52 -142 52q-53 0 -85 -26t-32 -68v-2
q0 -37 31.5 -61t101.5 -54q81 -34 118.5 -67t37.5 -89v-1q0 -64 -48.5 -104.5t-120.5 -40.5z" />
    <glyph glyph-name="Tcommaaccent" unicode="&#x162;" horiz-adv-x="565" 
d="M261 0v688h-214v40h471v-40h-214v-688h-43zM244 -210l-8 20q24 9 34 21t8 34h-25v63h57v-53q0 -37 -15.5 -56.5t-50.5 -28.5z" />
    <glyph glyph-name="Tcommaaccent" unicode="&#x21a;" horiz-adv-x="565" 
d="M261 0v688h-214v40h471v-40h-214v-688h-43zM244 -210l-8 20q24 9 34 21t8 34h-25v63h57v-53q0 -37 -15.5 -56.5t-50.5 -28.5z" />
    <glyph glyph-name="tcommaaccent" unicode="&#x163;" horiz-adv-x="368" 
d="M172 -210l-8 20q24 9 34 21t8 34h-25v63h57v-53q0 -37 -15.5 -56.5t-50.5 -28.5zM244 -7q-59 0 -93 31.5t-34 95.5v376h-69v37h69v167h41v-167h154v-37h-154v-371q0 -94 91 -94q30 0 63 14v-38q-27 -14 -68 -14z" />
    <glyph glyph-name="tcommaaccent" unicode="&#x21b;" horiz-adv-x="368" 
d="M172 -210l-8 20q24 9 34 21t8 34h-25v63h57v-53q0 -37 -15.5 -56.5t-50.5 -28.5zM244 -7q-59 0 -93 31.5t-34 95.5v376h-69v37h69v167h41v-167h154v-37h-154v-371q0 -94 91 -94q30 0 63 14v-38q-27 -14 -68 -14z" />
    <glyph glyph-name="Tcaron" unicode="&#x164;" horiz-adv-x="565" 
d="M399 895l-98 -106h-37l-98 106h43l74 -67l74 67h42zM261 0v688h-214v40h471v-40h-214v-688h-43z" />
    <glyph glyph-name="tcaron" unicode="&#x165;" horiz-adv-x="368" 
d="M249 597l14 155h47v-3l-39 -152h-22zM244 -7q-59 0 -93 31.5t-34 95.5v376h-69v37h69v167h41v-167h154v-37h-154v-371q0 -94 91 -94q30 0 63 14v-38q-27 -14 -68 -14z" />
    <glyph glyph-name="Umacron" unicode="&#x16a;" horiz-adv-x="695" 
d="M210 806v40h273v-40h-273zM347 -11q-114 0 -183 74.5t-69 207.5v457h42v-455q0 -118 56 -181t156 -63q98 0 153.5 62t55.5 180v457h43v-454q0 -136 -69 -210.5t-185 -74.5z" />
    <glyph glyph-name="umacron" unicode="&#x16b;" horiz-adv-x="572" 
d="M268 -11q-86 0 -134.5 54.5t-48.5 150.5v339h40v-329q0 -84 39 -131t111 -47q68 0 115.5 52t47.5 131v324h40v-533h-40v103q-52 -114 -170 -114zM152 633v38h257v-38h-257z" />
    <glyph glyph-name="Ubreve" unicode="&#x16c;" horiz-adv-x="695" 
d="M347 782q-52 0 -85.5 24.5t-38.5 69.5h36q18 -54 88 -54t88 54h36q-6 -45 -39 -69.5t-85 -24.5zM347 -11q-114 0 -183 74.5t-69 207.5v457h42v-455q0 -118 56 -181t156 -63q98 0 153.5 62t55.5 180v457h43v-454q0 -136 -69 -210.5t-185 -74.5z" />
    <glyph glyph-name="ubreve" unicode="&#x16d;" horiz-adv-x="572" 
d="M268 -11q-86 0 -134.5 54.5t-48.5 150.5v339h40v-329q0 -84 39 -131t111 -47q68 0 115.5 52t47.5 131v324h40v-533h-40v103q-52 -114 -170 -114zM281 610q-53 0 -85.5 28t-37.5 79h33q19 -69 90 -69t90 69h33q-5 -51 -38 -79t-85 -28z" />
    <glyph glyph-name="Uring" unicode="&#x16e;" horiz-adv-x="695" 
d="M347 -11q-114 0 -183 74.5t-69 207.5v457h42v-455q0 -118 56 -181t156 -63q98 0 153.5 62t55.5 180v457h43v-454q0 -136 -69 -210.5t-185 -74.5zM347 772q-43 0 -71.5 26t-28.5 64t29 64t71 26t70.5 -26t28.5 -64t-29.5 -64t-69.5 -26zM347 799q29 0 48.5 18t19.5 45
t-19.5 45t-48.5 18t-49 -18t-20 -45t20 -45t49 -18z" />
    <glyph glyph-name="uring" unicode="&#x16f;" horiz-adv-x="572" 
d="M281 600q-40 0 -68.5 28t-28.5 67q0 38 28.5 66t68.5 28t68.5 -28t28.5 -66q0 -39 -28.5 -67t-68.5 -28zM281 626q29 0 48 20t19 49t-19 48.5t-48 19.5t-48.5 -19.5t-19.5 -48.5t19.5 -49t48.5 -20zM268 -11q-86 0 -134.5 54.5t-48.5 150.5v339h40v-329q0 -84 39 -131
t111 -47q68 0 115.5 52t47.5 131v324h40v-533h-40v103q-52 -114 -170 -114z" />
    <glyph glyph-name="Uhungarumlaut" unicode="&#x170;" horiz-adv-x="695" 
d="M347 -11q-114 0 -183 74.5t-69 207.5v457h42v-455q0 -118 56 -181t156 -63q98 0 153.5 62t55.5 180v457h43v-454q0 -136 -69 -210.5t-185 -74.5zM261 783l87 114l47 -23l-100 -91h-34zM384 783l87 114l48 -23l-101 -91h-34z" />
    <glyph glyph-name="uhungarumlaut" unicode="&#x171;" horiz-adv-x="572" 
d="M268 -11q-86 0 -134.5 54.5t-48.5 150.5v339h40v-329q0 -84 39 -131t111 -47q68 0 115.5 52t47.5 131v324h40v-533h-40v103q-52 -114 -170 -114zM316 611l83 131l44 -23l-96 -108h-31zM198 611l84 131l45 -23l-97 -108h-32z" />
    <glyph glyph-name="Uogonek" unicode="&#x172;" horiz-adv-x="695" 
d="M397 -122v-30q-3 -1 -6 -1q-104 5 -104 69q0 38 38 74q-106 6 -168 80t-62 201v457h42v-455q0 -118 56 -181t156 -63q98 0 153.5 62t55.5 180v457h43v-454q0 -131 -63.5 -204.5t-172.5 -79.5q-38 -38 -38 -67q0 -41 70 -45z" />
    <glyph glyph-name="uogonek" unicode="&#x173;" horiz-adv-x="572" 
d="M268 -11q-86 0 -134.5 54.5t-48.5 150.5v339h40v-329q0 -84 39 -131t111 -47q68 0 115.5 52t47.5 131v324h40v-533h-6q-49 -45 -49 -77q0 -41 70 -45v-30q-3 -1 -6 -1q-104 5 -104 69q0 45 55 88v9v90q-52 -114 -170 -114z" />
    <glyph glyph-name="Wcircumflex" unicode="&#x174;" horiz-adv-x="989" 
d="M271 -5l-216 733h47l190 -658l186 660h35l187 -660l190 658h44l-216 -733h-37l-187 650l-186 -650h-37zM377 789l98 106h37l98 -106h-43l-74 67l-74 -67h-42z" />
    <glyph glyph-name="wcircumflex" unicode="&#x175;" horiz-adv-x="785" 
d="M282 614l93 125h33l93 -125h-36l-74 80l-74 -80h-35zM219 -4l-165 537h45l137 -475l140 477h34l140 -477l138 475h42l-164 -537h-35l-138 467l-139 -467h-35z" />
    <glyph glyph-name="Ycircumflex" unicode="&#x176;" horiz-adv-x="634" 
d="M295 0v300l-261 428h50l233 -387l233 387h49l-261 -427v-301h-43zM200 785l98 106h37l98 -106h-43l-74 67l-74 -67h-42z" />
    <glyph glyph-name="ycircumflex" unicode="&#x177;" 
d="M280 53l170 480h43l-197 -541q-31 -85 -66 -118t-87 -33q-45 0 -86 22l15 37q32 -21 72 -21q37 0 63 26t53 96l-213 532h45zM163 613l93 125h33l93 -125h-36l-74 80l-74 -80h-35z" />
    <glyph glyph-name="Ydieresis" unicode="&#x178;" horiz-adv-x="634" 
d="M295 0v300l-261 428h50l233 -387l233 387h49l-261 -427v-301h-43zM361 790v68h59v-68h-59zM213 790v68h59v-68h-59z" />
    <glyph glyph-name="Zacute" unicode="&#x179;" horiz-adv-x="618" 
d="M68 0v25l424 664h-408v39h466v-25l-424 -664h423v-39h-481zM297 787l88 114l47 -23l-101 -91h-34z" />
    <glyph glyph-name="zacute" unicode="&#x17a;" horiz-adv-x="489" 
d="M233 612l83 131l48 -25l-100 -106h-31zM55 0v23l324 475h-311v35h366v-23l-324 -473h324v-37h-379z" />
    <glyph glyph-name="Zdotaccent" unicode="&#x17b;" horiz-adv-x="618" 
d="M286 794v68h61v-68h-61zM68 0v25l424 664h-408v39h466v-25l-424 -664h423v-39h-481z" />
    <glyph glyph-name="zdotaccent" unicode="&#x17c;" horiz-adv-x="489" 
d="M55 0v23l324 475h-311v35h366v-23l-324 -473h324v-37h-379zM223 619v70h57v-70h-57z" />
    <glyph glyph-name="Zcaron" unicode="&#x17d;" horiz-adv-x="618" 
d="M433 895l-98 -106h-37l-98 106h43l74 -67l74 67h42zM68 0v25l424 664h-408v39h466v-25l-424 -664h423v-39h-481z" />
    <glyph glyph-name="zcaron" unicode="&#x17e;" horiz-adv-x="489" 
d="M360 739l-93 -125h-32l-94 125h37l73 -80l74 80h35zM55 0v23l324 475h-311v35h366v-23l-324 -473h324v-37h-379z" />
    <glyph glyph-name="Schwa" unicode="&#x18f;" horiz-adv-x="715" 
d="M121 599l-29 30q105 110 247 110q135 0 218 -102.5t83 -267.5v-5q0 -166 -80 -270.5t-207 -104.5q-129 0 -203.5 103t-74.5 270v1q0 18 1 23h520q-4 139 -73.5 226.5t-184.5 87.5q-122 0 -217 -101zM354 28q106 0 172 88.5t70 230.5h-477q2 -144 65.5 -231.5t169.5 -87.5
z" />
    <glyph glyph-name="Aringacute" unicode="&#x1fa;" horiz-adv-x="713" 
d="M50 0l270 695q-29 10 -46.5 32.5t-17.5 52.5q0 38 29 64t71 26t70.5 -26t28.5 -64q0 -29 -17.5 -51.5t-45.5 -32.5l271 -696h-47l-79 208h-364l-79 -208h-44zM189 247h332l-166 432zM356 718q29 0 48.5 17.5t19.5 44.5q0 28 -19.5 46t-48.5 18t-48.5 -18t-19.5 -46
q0 -27 19.5 -44.5t48.5 -17.5zM336 899l86 99l46 -23l-96 -76h-36z" />
    <glyph glyph-name="aringacute" unicode="&#x1fb;" horiz-adv-x="534" 
d="M231 -11q-73 0 -124.5 44.5t-51.5 120.5v3q0 79 55.5 125.5t146.5 46.5q80 0 152 -25v46q0 74 -40 113t-114 39q-77 0 -143 -38l-16 35q86 42 161 42q93 0 143 -51q49 -46 49 -137v-353h-40v94q-57 -105 -178 -105zM234 26q74 0 125 48t51 115v77q-75 26 -153 26
q-74 0 -116.5 -36t-42.5 -97v-3q0 -59 39 -94.5t97 -35.5zM270 612q-40 0 -68.5 28t-28.5 67q0 38 28.5 66t68.5 28t68.5 -28t28.5 -66q0 -39 -28.5 -67t-68.5 -28zM270 638q29 0 48 20t19 49t-19 48.5t-48 19.5t-48.5 -19.5t-19.5 -48.5t19.5 -49t48.5 -20zM249 833l84 110
l46 -24l-97 -86h-33z" />
    <glyph glyph-name="AEacute" unicode="&#x1fc;" horiz-adv-x="926" 
d="M531 787l88 114l47 -23l-101 -91h-34zM22 0l373 728h462v-40h-377v-301h340v-40h-340v-307h382v-40h-425v208h-263l-107 -208h-45zM194 247h243v442h-19z" />
    <glyph glyph-name="aeacute" unicode="&#x1fd;" horiz-adv-x="880" 
d="M421 612l83 131l48 -25l-100 -106h-31zM231 -11q-73 0 -124.5 44.5t-51.5 120.5v3q0 79 55 125.5t145 46.5q74 0 146 -25q0 2 1 23t1 22q-1 75 -40.5 114t-112.5 39q-70 0 -139 -37l-16 36q82 40 157 40q150 0 179 -128q27 62 75.5 97t108.5 35q94 0 151 -77.5t57 -196.5
q0 -17 -1 -21h-381q4 -102 59 -162.5t132 -60.5q86 0 152 68l26 -28q-80 -78 -180 -78q-63 0 -113.5 32t-80.5 92q-34 -54 -86.5 -89t-118.5 -35zM441 287h339q-4 93 -48 156.5t-118 63.5q-72 0 -119.5 -61t-53.5 -159zM234 26q58 0 106.5 35t78.5 90q-17 48 -19 116
q-72 25 -146 25t-115 -36t-41 -97v-3q0 -59 37.5 -94.5t98.5 -35.5z" />
    <glyph glyph-name="Oslashacute" unicode="&#x1fe;" horiz-adv-x="759" 
d="M640 734h47l-83 -107q80 -105 80 -259v-6q0 -161 -85 -267t-220 -106q-117 0 -198 81l-61 -76h-48l82 107q-79 104 -79 259v6q0 161 85 267t220 106q116 0 198 -82zM118 368v-5q0 -134 63 -227l373 486q-73 79 -176 79q-114 0 -187 -94t-73 -239zM380 27
q114 0 187.5 94.5t73.5 238.5v5q0 133 -63 226l-373 -486q72 -78 175 -78zM362 794l88 114l47 -23l-101 -91h-34z" />
    <glyph glyph-name="oslashacute" unicode="&#x1ff;" horiz-adv-x="586" 
d="M485 539h45l-65 -81q60 -79 60 -189v-4q0 -117 -66.5 -196.5t-165.5 -79.5q-84 0 -148 59l-43 -54h-45l65 81q-60 74 -60 189v4q0 117 66.5 197t165.5 80q87 0 147 -60zM294 26q81 0 135 69t54 169v4q0 90 -44 157l-270 -344q52 -55 125 -55zM104 269v-3q0 -93 43 -158
l271 343q-53 56 -125 56q-82 0 -135.5 -68.5t-53.5 -169.5zM276 612l83 131l48 -25l-100 -106h-31z" />
    <glyph glyph-name="Scommaaccent" unicode="&#x218;" horiz-adv-x="586" 
d="M301 -10q-137 0 -245 102l29 33q100 -95 217 -95q77 0 125 41.5t48 105.5v2q0 57 -38.5 95t-144.5 75q-116 42 -162 88t-46 118v2q0 77 59.5 129t150.5 52q119 0 210 -79l-27 -34q-85 73 -185 73q-73 0 -119 -40t-46 -98v-2q0 -58 39.5 -96t145.5 -74q114 -41 160 -89
t46 -118v-2q0 -81 -61 -135t-156 -54zM258 -210l-8 20q24 9 34 21t8 34h-25v63h57v-53q0 -37 -15.5 -56.5t-50.5 -28.5z" />
    <glyph glyph-name="scommaaccent" unicode="&#x219;" horiz-adv-x="461" 
d="M195 -210l-8 20q24 9 34 21t8 34h-25v63h57v-53q0 -37 -15.5 -56.5t-50.5 -28.5zM230 -9q-104 0 -187 74l26 32q77 -68 164 -68q54 0 89.5 29.5t35.5 74.5v2q0 40 -31.5 66t-100.5 55q-81 32 -119 63.5t-38 84.5v2q0 60 44 98t116 38q91 0 163 -57l-23 -33
q-70 52 -142 52q-53 0 -85 -26t-32 -68v-2q0 -37 31.5 -61t101.5 -54q81 -34 118.5 -67t37.5 -89v-1q0 -64 -48.5 -104.5t-120.5 -40.5z" />
    <glyph glyph-name="schwa" unicode="&#x259;" horiz-adv-x="543" 
d="M250 544q96 0 163 -75.5t67 -199.5v-4q0 -122 -62 -199.5t-154 -77.5q-94 0 -151 77t-57 196v21h382q-4 102 -58.5 162.5t-132.5 60.5q-85 0 -152 -69l-25 27q76 81 180 81zM438 245h-339q2 -93 46.5 -156.5t119.5 -63.5q71 0 119 61t54 159z" />
    <glyph glyph-name="circumflex" unicode="&#x2c6;" 
d="M161 614l93 125h33l93 -125h-36l-74 80l-74 -80h-35z" />
    <glyph glyph-name="caron" unicode="&#x2c7;" 
d="M380 739l-93 -125h-32l-94 125h37l73 -80l74 80h35z" />
    <glyph glyph-name="breve" unicode="&#x2d8;" 
d="M271 612q-53 0 -85.5 28t-37.5 79h33q19 -69 90 -69t90 69h33q-5 -51 -38 -79t-85 -28z" />
    <glyph glyph-name="dotaccent" unicode="&#x2d9;" 
d="M242 619v70h57v-70h-57z" />
    <glyph glyph-name="ring" unicode="&#x2da;" 
d="M271 612q-40 0 -68.5 28t-28.5 67q0 38 28.5 66t68.5 28t68.5 -28t28.5 -66q0 -39 -28.5 -67t-68.5 -28zM271 638q29 0 48 20t19 49t-19 48.5t-48 19.5t-48.5 -19.5t-19.5 -48.5t19.5 -49t48.5 -20z" />
    <glyph glyph-name="ogonek" unicode="&#x2db;" 
d="M333 -122v-30q-3 -1 -6 -1q-104 5 -104 69q0 46 65 96l27 -10q-52 -48 -52 -79q0 -41 70 -45z" />
    <glyph glyph-name="tilde" unicode="&#x2dc;" 
d="M329 616q-24 0 -62 25q-34 24 -55 24q-16 0 -26 -12t-20 -41l-29 7q12 47 30 67t45 20q21 0 63 -26q37 -23 54 -23q16 0 26 12t20 41l29 -7q-22 -87 -75 -87z" />
    <glyph glyph-name="hungarumlaut" unicode="&#x2dd;" 
d="M263 612l83 131l44 -23l-96 -108h-31zM145 612l84 131l45 -23l-97 -108h-32z" />
    <glyph glyph-name="commaaccent" unicode="&#x326;" 
d="M234 -210l-8 20q24 9 34 21t8 34h-25v63h57v-53q0 -37 -15.5 -56.5t-50.5 -28.5z" />
    <glyph glyph-name="tonos" unicode="&#x384;" 
d="M225 612l61 142l49 -22l-80 -120h-30z" />
    <glyph glyph-name="dieresistonos" unicode="&#x385;" 
d="M336 619v69h54v-69h-54zM153 619v69h54v-69h-54zM241 619l36 151l48 -13l-55 -138h-29z" />
    <glyph glyph-name="Alphatonos" unicode="&#x386;" horiz-adv-x="713" 
d="M50 0l285 733h42l286 -733h-47l-79 208h-364l-79 -208h-44zM189 247h332l-166 432zM109 561l18 167h49l-41 -167h-26z" />
    <glyph glyph-name="anoteleia" unicode="&#x387;" horiz-adv-x="222" 
d="M82 456v77h58v-77h-58z" />
    <glyph glyph-name="Epsilontonos" unicode="&#x388;" horiz-adv-x="604" 
d="M-29 561l18 167h49l-41 -167h-26zM103 0v728h431v-40h-388v-301h350v-40h-350v-307h393v-40h-436z" />
    <glyph glyph-name="Etatonos" unicode="&#x389;" horiz-adv-x="697" 
d="M103 0v728h43v-342h405v342h44v-728h-44v347h-405v-347h-43zM-29 561l18 167h49l-41 -167h-26z" />
    <glyph glyph-name="Iotatonos" unicode="&#x38a;" horiz-adv-x="263" 
d="M110 0v728h43v-728h-43zM-26 561l18 167h49l-41 -167h-26z" />
    <glyph glyph-name="Omicrontonos" unicode="&#x38c;" horiz-adv-x="759" 
d="M4 561l18 167h49l-41 -167h-26zM379 -11q-134 0 -219 105t-85 266v7q0 161 85 266.5t220 105.5q134 0 219 -105t85 -266v-7q0 -161 -85 -266.5t-220 -105.5zM380 28q113 0 186.5 94.5t73.5 237.5v7q0 142 -74 237.5t-187 95.5q-114 0 -187 -94.5t-73 -237.5v-7
q0 -142 74 -237.5t187 -95.5z" />
    <glyph glyph-name="Upsilontonos" unicode="&#x38e;" horiz-adv-x="634" 
d="M295 0v300l-261 428h50l233 -387l233 387h49l-261 -427v-301h-43zM-81 561l18 167h49l-41 -167h-26z" />
    <glyph glyph-name="Omegatonos" unicode="&#x38f;" horiz-adv-x="775" 
d="M388 739q135 0 217 -92t82 -240v-1q0 -203 -181 -368l201 2v-40h-257v36q93 80 143 169t50 200v2q0 132 -70.5 212.5t-185.5 80.5q-116 0 -185.5 -80.5t-69.5 -212.5v-2q0 -203 193 -369v-36h-256v40l199 -2q-180 164 -180 368v1q0 147 82.5 239.5t217.5 92.5zM1 561
l18 167h49l-41 -167h-26z" />
    <glyph glyph-name="iotadieresistonos" unicode="&#x390;" horiz-adv-x="262" 
d="M190 619v69h54v-69h-54zM7 619v69h54v-69h-54zM95 619l36 151l48 -13l-55 -138h-29zM92 113v420h40v-417q0 -46 16.5 -65t51.5 -19q21 0 36 4v-36q-15 -7 -40 -7q-104 0 -104 120z" />
    <glyph glyph-name="Alpha" unicode="&#x391;" horiz-adv-x="713" 
d="M50 0l285 733h42l286 -733h-47l-79 208h-364l-79 -208h-44zM189 247h332l-166 432z" />
    <glyph glyph-name="Beta" unicode="&#x392;" horiz-adv-x="658" 
d="M103 0v728h233q117 0 178 -61q47 -47 47 -120v-2q0 -68 -37.5 -112t-93.5 -61q73 -17 117 -61.5t44 -115.5v-2q0 -90 -66 -141.5t-183 -51.5h-239zM518 542v2q0 67 -48 105.5t-135 38.5h-189v-301h187q85 0 135 40.5t50 114.5zM548 193v2q0 72 -54.5 112.5t-152.5 40.5
h-195v-308h198q97 0 150.5 40.5t53.5 112.5z" />
    <glyph glyph-name="Gamma" unicode="&#x393;" horiz-adv-x="545" 
d="M103 0v728h399v-40h-356v-688h-43z" />
    <glyph glyph-name="Deltagreek" unicode="&#x394;" horiz-adv-x="711" 
d="M58 0l-5 32l282 701h42l281 -701l-5 -32h-595zM355 678l-254 -638h507z" />
    <glyph glyph-name="Epsilon" unicode="&#x395;" horiz-adv-x="604" 
d="M103 0v728h431v-40h-388v-301h350v-40h-350v-307h393v-40h-436z" />
    <glyph glyph-name="Zeta" unicode="&#x396;" horiz-adv-x="616" 
d="M68 0v25l424 664h-408v39h466v-25l-424 -664h423v-39h-481z" />
    <glyph glyph-name="Eta" unicode="&#x397;" horiz-adv-x="697" 
d="M103 0v728h43v-342h405v342h44v-728h-44v347h-405v-347h-43z" />
    <glyph glyph-name="Theta" unicode="&#x398;" horiz-adv-x="759" 
d="M379 -11q-134 0 -219 105t-85 266v6q0 161 85.5 267t219.5 106t219 -105t85 -266v-6q0 -161 -85.5 -267t-219.5 -106zM380 28q113 0 186.5 94.5t73.5 237.5v7q0 142 -74 237.5t-187 95.5q-114 0 -187 -94.5t-73 -237.5v-7q0 -142 74 -237.5t187 -95.5zM550 387v-41h-340
v41h340z" />
    <glyph glyph-name="Iota" unicode="&#x399;" horiz-adv-x="263" 
d="M110 0v728h43v-728h-43z" />
    <glyph glyph-name="Kappa" unicode="&#x39a;" horiz-adv-x="643" 
d="M103 0v728h43v-465l393 465h54l-272 -320l288 -408h-53l-264 374l-146 -168v-206h-43z" />
    <glyph glyph-name="Lambda" unicode="&#x39b;" horiz-adv-x="697" 
d="M368 733l278 -733h-46l-253 671l-253 -671h-44l278 733h40z" />
    <glyph glyph-name="Mu" unicode="&#x39c;" horiz-adv-x="794" 
d="M103 0v728h43l251 -433l251 433h43v-728h-43v648l-250 -431h-3l-250 431v-648h-42z" />
    <glyph glyph-name="Nu" unicode="&#x39d;" horiz-adv-x="720" 
d="M103 0v728h41l431 -644v644h42v-728h-35l-438 655v-655h-41z" />
    <glyph glyph-name="Xi" unicode="&#x39e;" horiz-adv-x="603" 
d="M534 688h-465v40h465v-40zM510 347h-416v40h416v-40zM538 0h-473v40h473v-40z" />
    <glyph glyph-name="Omicron" unicode="&#x39f;" horiz-adv-x="759" 
d="M379 -11q-134 0 -219 105t-85 266v7q0 161 85 266.5t220 105.5q134 0 219 -105t85 -266v-7q0 -161 -85 -266.5t-220 -105.5zM380 28q113 0 186.5 94.5t73.5 237.5v7q0 142 -74 237.5t-187 95.5q-114 0 -187 -94.5t-73 -237.5v-7q0 -142 74 -237.5t187 -95.5z" />
    <glyph glyph-name="Pi" unicode="&#x3a0;" horiz-adv-x="696" 
d="M103 0v728h490v-728h-43v688h-404v-688h-43z" />
    <glyph glyph-name="Rho" unicode="&#x3a1;" horiz-adv-x="616" 
d="M103 0v728h205q117 0 185.5 -60t68.5 -162v-2q0 -107 -72.5 -168.5t-189.5 -61.5h-154v-274h-43zM146 313h156q100 0 159 51t59 138v2q0 88 -58 136t-156 48h-160v-375z" />
    <glyph glyph-name="Sigma" unicode="&#x3a3;" horiz-adv-x="603" 
d="M384 364l-259 -325h418v-39h-475v30l264 334l-263 334v30h467v-39h-409z" />
    <glyph glyph-name="Tau" unicode="&#x3a4;" horiz-adv-x="561" 
d="M261 0v688h-214v40h471v-40h-214v-688h-43z" />
    <glyph glyph-name="Upsilon" unicode="&#x3a5;" horiz-adv-x="634" 
d="M295 0v300l-261 428h50l233 -387l233 387h49l-261 -427v-301h-43z" />
    <glyph glyph-name="Phi" unicode="&#x3a6;" horiz-adv-x="844" 
d="M399 -14v93q-156 2 -246 80t-90 207v2q0 128 89.5 205.5t246.5 81.5v90h43v-90q156 -4 246.5 -80.5t90.5 -206.5v-1q0 -129 -90 -207.5t-247 -80.5v-93h-43zM107 367v-1q0 -111 76.5 -178.5t216.5 -69.5v498q-140 -4 -216.5 -70t-76.5 -179zM735 367v1q0 110 -77 178
t-217 70v-498q139 2 216.5 69.5t77.5 179.5z" />
    <glyph glyph-name="Chi" unicode="&#x3a7;" horiz-adv-x="642" 
d="M531 728h48l-232 -355l244 -373h-49l-222 342l-220 -342h-49l244 373l-233 355h49l209 -324z" />
    <glyph glyph-name="Psi" unicode="&#x3a8;" horiz-adv-x="805" 
d="M721 728v-274q0 -258 -297 -263v-191h-43v191q-298 5 -298 262v275h44v-275q0 -115 65 -167.5t189 -54.5v497h43v-497q124 2 189 53.5t65 167.5v276h43z" />
    <glyph glyph-name="Omegagreek" unicode="&#x3a9;" horiz-adv-x="775" 
d="M388 739q135 0 217 -92t82 -240v-1q0 -203 -181 -368l201 2v-40h-257v36q93 80 143 169t50 200v2q0 132 -70.5 212.5t-185.5 80.5q-116 0 -185.5 -80.5t-69.5 -212.5v-2q0 -203 193 -369v-36h-256v40l199 -2q-180 164 -180 368v1q0 147 82.5 239.5t217.5 92.5z" />
    <glyph glyph-name="Iotadieresis" unicode="&#x3aa;" horiz-adv-x="263" 
d="M110 0v728h43v-728h-43zM179 794v68h59v-68h-59zM31 794v68h59v-68h-59z" />
    <glyph glyph-name="Upsilondieresis" unicode="&#x3ab;" horiz-adv-x="634" 
d="M295 0v300l-261 428h50l233 -387l233 387h49l-261 -427v-301h-43zM361 790v68h59v-68h-59zM213 790v68h59v-68h-59z" />
    <glyph glyph-name="alphatonos" unicode="&#x3ac;" horiz-adv-x="640" 
d="M291 612l61 142l49 -22l-80 -120h-30zM616 36v-36q-15 -7 -41 -7q-107 0 -103 128q-29 -58 -77 -95t-112 -37q-90 0 -154.5 76t-64.5 198v7q0 121 65 198t154 77q65 0 113.5 -38.5t75.5 -96.5v123h40v-417q0 -46 16.5 -65t50.5 -19q22 0 37 4zM287 27q77 0 132 67t55 169
v8q0 102 -55.5 168.5t-131.5 66.5q-77 0 -128.5 -65t-51.5 -170v-7q0 -105 52 -171t128 -66z" />
    <glyph glyph-name="epsilontonos" unicode="&#x3ad;" horiz-adv-x="501" 
d="M237 612l61 142l49 -22l-80 -120h-30zM357 252h-94q-77 0 -117 -31t-40 -81v-1q0 -51 41 -81.5t115 -30.5q91 0 173 54l21 -32q-88 -60 -195 -60q-95 0 -146.5 41t-51.5 107v2q0 51 33 85.5t87 47.5q-108 27 -108 125v2q0 62 52 104t140 42q101 0 182 -59l-23 -32
q-74 53 -159 53q-70 0 -110 -31.5t-40 -78.5v-1q0 -52 40 -79.5t106 -27.5h94v-37z" />
    <glyph glyph-name="etatonos" unicode="&#x3ae;" horiz-adv-x="572" 
d="M266 612l61 142l49 -22l-80 -120h-30zM487 -156h-41v487q0 82 -39 129.5t-110 47.5q-70 0 -116.5 -52t-46.5 -132v-324h-40v533h40v-102q20 49 63 81.5t106 32.5q85 0 134.5 -56.5t49.5 -151.5v-493z" />
    <glyph glyph-name="iotatonos" unicode="&#x3af;" horiz-adv-x="262" 
d="M94 612l61 142l49 -22l-80 -120h-30zM92 113v420h40v-417q0 -46 16.5 -65t51.5 -19q21 0 36 4v-36q-15 -7 -40 -7q-104 0 -104 120z" />
    <glyph glyph-name="upsilondieresistonos" unicode="&#x3b0;" horiz-adv-x="571" 
d="M350 618v69h54v-69h-54zM167 618v69h54v-69h-54zM255 618l36 151l48 -13l-55 -138h-29zM285 -11q-92 0 -145.5 55.5t-53.5 160.5v328h40v-328q0 -88 43 -133t117 -45t116 45t42 133v328h41v-328q0 -105 -53 -160.5t-147 -55.5z" />
    <glyph glyph-name="alpha" unicode="&#x3b1;" horiz-adv-x="640" 
d="M616 36v-36q-15 -7 -41 -7q-107 0 -103 128q-29 -58 -77 -95t-112 -37q-90 0 -154.5 76t-64.5 198v7q0 121 65 198t154 77q65 0 113.5 -38.5t75.5 -96.5v123h40v-417q0 -46 16.5 -65t50.5 -19q22 0 37 4zM287 27q77 0 132 67t55 169v8q0 102 -55.5 168.5t-131.5 66.5
q-77 0 -128.5 -65t-51.5 -170v-7q0 -105 52 -171t128 -66z" />
    <glyph glyph-name="beta" unicode="&#x3b2;" horiz-adv-x="592" 
d="M134 -156h-41v677q0 111 57.5 173.5t156.5 62.5q90 0 146 -52.5t56 -136.5v-1q0 -75 -44.5 -124.5t-114.5 -64.5q182 -35 182 -196v-1q0 -84 -53.5 -137.5t-144.5 -53.5q-139 0 -200 133v-279zM252 357h-118v-100q0 -101 57 -165.5t142 -64.5q72 0 114.5 42.5t42.5 112.5
q0 81 -60 128t-178 47zM134 521v-129h116q101 0 158.5 48.5t57.5 127.5q0 68 -44 109.5t-116 41.5q-81 0 -126.5 -52.5t-45.5 -145.5z" />
    <glyph glyph-name="gamma" unicode="&#x3b3;" horiz-adv-x="537" 
d="M489 533l-200 -527v-162h-41v162l-201 527h46l176 -477l177 477h43z" />
    <glyph glyph-name="delta" unicode="&#x3b4;" horiz-adv-x="579" 
d="M456 714h-284l156 -144q102 -93 144.5 -168.5t42.5 -160.5q0 -109 -63.5 -180.5t-164.5 -71.5t-162.5 70t-61.5 180q0 100 53 174t168 146l-172 162v30h344v-37zM312 533h-1q-112 -69 -159.5 -135.5t-47.5 -158.5q0 -94 50.5 -153t133.5 -59q84 0 134.5 59.5t50.5 154.5
q0 74 -35.5 141t-125.5 151z" />
    <glyph glyph-name="epsilon" unicode="&#x3b5;" horiz-adv-x="500" 
d="M357 252h-94q-77 0 -117 -31t-40 -81v-1q0 -51 41 -81.5t115 -30.5q91 0 173 54l21 -32q-88 -60 -195 -60q-95 0 -146.5 41t-51.5 107v2q0 51 33 85.5t87 47.5q-108 27 -108 125v2q0 62 52 104t140 42q101 0 182 -59l-23 -32q-74 53 -159 53q-70 0 -110 -31.5t-40 -78.5
v-1q0 -52 40 -79.5t106 -27.5h94v-37z" />
    <glyph glyph-name="zeta" unicode="&#x3b6;" horiz-adv-x="496" 
d="M413 -131v123l-128 23q-115 20 -169 67t-54 125q0 55 26.5 103t111.5 154l200 250h-300v37h354v-30l-223 -279q-78 -99 -102.5 -142.5t-24.5 -91.5q0 -63 46 -99.5t147 -54.5l155 -27v-158h-39z" />
    <glyph glyph-name="eta" unicode="&#x3b7;" horiz-adv-x="572" 
d="M487 -156h-41v487q0 82 -39 129.5t-110 47.5q-70 0 -116.5 -52t-46.5 -132v-324h-40v533h40v-102q20 49 63 81.5t106 32.5q85 0 134.5 -56.5t49.5 -151.5v-493z" />
    <glyph glyph-name="theta" unicode="&#x3b8;" horiz-adv-x="603" 
d="M302 -11q-107 0 -168.5 102.5t-61.5 270.5v19q0 168 61.5 270.5t168.5 102.5t168.5 -102.5t61.5 -270.5v-19q0 -168 -61.5 -270.5t-168.5 -102.5zM302 27q85 0 135.5 88.5t52.5 238.5h-377q2 -150 53 -238.5t136 -88.5zM301 715q-85 0 -135.5 -87t-52.5 -237h377
q-2 149 -53.5 236.5t-135.5 87.5z" />
    <glyph glyph-name="iota" unicode="&#x3b9;" horiz-adv-x="262" 
d="M92 113v420h40v-417q0 -46 16.5 -65t51.5 -19q21 0 36 4v-36q-15 -7 -40 -7q-104 0 -104 120z" />
    <glyph glyph-name="kappa" unicode="&#x3ba;" horiz-adv-x="516" 
d="M134 533v-338l285 338h52l-199 -231l207 -302h-50l-186 270l-109 -128v-142h-40v533h40z" />
    <glyph glyph-name="lambda" unicode="&#x3bb;" horiz-adv-x="543" 
d="M92 707v36q23 10 52 10q50 0 77.5 -30.5t58.5 -114.5l216 -608h-45l-174 494l-185 -494h-44l210 549l-16 45q-24 71 -45.5 96t-57.5 25q-20 0 -47 -8z" />
    <glyph glyph-name="mugreek" unicode="&#x3bc;" horiz-adv-x="616" 
d="M591 36v-36q-15 -7 -40 -7q-49 0 -74.5 24.5t-29.5 80.5q-52 -109 -157 -109q-112 0 -160 114h-1q5 -62 5 -127v-132h-40v689h40v-326q0 -78 45 -129t111 -51q67 0 112 51t45 129v326h40v-417q0 -46 16.5 -65t51.5 -19q21 0 36 4z" />
    <glyph glyph-name="nu" unicode="&#x3bd;" horiz-adv-x="537" 
d="M251 -4l-204 537h46l176 -481l177 481h44l-204 -537h-35z" />
    <glyph glyph-name="xi" unicode="&#x3be;" horiz-adv-x="500" 
d="M467 689l-24 -32q-71 61 -153 61q-73 0 -117 -42.5t-44 -112.5q0 -75 50 -117t129 -42h76v-37h-81q-93 0 -146 -42t-53 -114q0 -69 54.5 -107.5t171.5 -57.5l124 -19v-158h-40v123l-102 17q-126 19 -188.5 67t-62.5 133q0 72 44 117t111 61q-49 16 -89.5 59.5
t-40.5 116.5q0 82 56.5 137.5t147.5 55.5q100 0 177 -67z" />
    <glyph glyph-name="omicron" unicode="&#x3bf;" horiz-adv-x="586" 
d="M293 -11q-100 0 -165.5 78.5t-65.5 196.5v4q0 117 66 197t166 80q99 0 165 -79t66 -197v-4q0 -117 -66 -196.5t-166 -79.5zM294 27q81 0 135 68t54 169v4q0 101 -55 169.5t-135 68.5q-81 0 -134.5 -68t-53.5 -169v-4q0 -102 54.5 -170t134.5 -68z" />
    <glyph glyph-name="pi" unicode="&#x3c0;" horiz-adv-x="640" 
d="M32 533h561v-37h-104v-380q0 -46 16.5 -65t51.5 -19q21 0 36 4v-36q-15 -7 -40 -7q-104 0 -104 120v383h-275v-496h-40v496h-102v37z" />
    <glyph glyph-name="rho" unicode="&#x3c1;" horiz-adv-x="594" 
d="M83 -156v432q0 123 62 196t162 73q97 0 160.5 -76t63.5 -200v-5q0 -121 -65 -198t-154 -77q-67 0 -114.5 38t-74.5 99v-282h-40zM309 27q77 0 128.5 65.5t51.5 170.5v5q0 106 -50.5 172t-131.5 66q-82 0 -132.5 -61.5t-50.5 -168.5v-13q0 -102 54.5 -169t130.5 -67z" />
    <glyph glyph-name="sigmafinal" unicode="&#x3c2;" horiz-adv-x="510" 
d="M405 -131v123l-91 20q-128 26 -190 93t-62 179v3q0 113 64 185.5t163 72.5q98 0 171 -77l-27 -32q-63 70 -145 70q-80 0 -132 -60t-52 -158v-3q0 -101 57 -157.5t181 -81.5l103 -20v-157h-40z" />
    <glyph glyph-name="sigma" unicode="&#x3c3;" horiz-adv-x="604" 
d="M570 496l-172 1q58 -31 92 -92.5t34 -140.5v-4q0 -116 -66.5 -193.5t-165.5 -77.5t-164.5 76t-65.5 193v5q0 117 66 193.5t172 76.5h270v-37zM293 27q81 0 134.5 65.5t53.5 165.5v5q0 101 -54 167t-135 66t-134 -66t-53 -166v-4q0 -101 54 -167t134 -66z" />
    <glyph glyph-name="tau" unicode="&#x3c4;" horiz-adv-x="494" 
d="M454 496h-196v-362q0 -58 23.5 -80.5t69.5 -22.5q33 0 66 11v-37q-33 -12 -69 -12q-63 0 -97 33t-34 108v362h-189v37h426v-37z" />
    <glyph glyph-name="upsilon" unicode="&#x3c5;" horiz-adv-x="571" 
d="M285 -11q-92 0 -145.5 55.5t-53.5 160.5v328h40v-328q0 -88 43 -133t117 -45t116 45t42 133v328h41v-328q0 -105 -53 -160.5t-147 -55.5z" />
    <glyph glyph-name="phi" unicode="&#x3c6;" horiz-adv-x="755" 
d="M398 -156h-41v153q-139 2 -217.5 75.5t-78.5 192.5v2q0 119 78.5 192t217.5 77v215h41v-215q140 -4 218 -76.5t78 -191.5v-2q0 -119 -79 -193t-217 -76v-153zM651 266v1q0 104 -66 166t-187 66v-465q121 2 187 65t66 167zM103 267v-1q0 -104 66.5 -167t187.5 -65v465
q-122 -4 -188 -66t-66 -166z" />
    <glyph glyph-name="chi" unicode="&#x3c7;" 
d="M104 533l167 -292l168 292h46l-190 -326l215 -363h-49l-191 329l-191 -329h-46l212 362l-189 327h48z" />
    <glyph glyph-name="psi" unicode="&#x3c8;" horiz-adv-x="749" 
d="M394 -156h-40v154q-127 2 -198 66.5t-71 182.5v286h40v-284q0 -103 60.5 -157t168.5 -56v715h40v-715q107 0 168.5 54.5t61.5 157.5v285h40v-285q0 -119 -72.5 -183.5t-197.5 -66.5v-154z" />
    <glyph glyph-name="omega" unicode="&#x3c9;" horiz-adv-x="821" 
d="M390 434h40v-156q0 -117 37.5 -184t110.5 -67q60 0 95.5 53t35.5 143q0 153 -114 310h50q106 -161 106 -311q0 -107 -47 -169.5t-126 -62.5q-70 0 -111.5 46.5t-56.5 124.5q-13 -76 -56 -123.5t-113 -47.5q-79 0 -125 62t-46 171q0 152 106 310h49q-114 -157 -114 -311
q0 -88 36.5 -141.5t94.5 -53.5q73 0 110.5 67t37.5 184v156z" />
    <glyph glyph-name="iotadieresis" unicode="&#x3ca;" horiz-adv-x="262" 
d="M158 619v69h55v-69h-55zM21 619v69h54v-69h-54zM92 113v420h40v-417q0 -46 16.5 -65t51.5 -19q21 0 36 4v-36q-15 -7 -40 -7q-104 0 -104 120z" />
    <glyph glyph-name="upsilondieresis" unicode="&#x3cb;" horiz-adv-x="571" 
d="M327 618v69h55v-69h-55zM190 618v69h54v-69h-54zM285 -11q-92 0 -145.5 55.5t-53.5 160.5v328h40v-328q0 -88 43 -133t117 -45t116 45t42 133v328h41v-328q0 -105 -53 -160.5t-147 -55.5z" />
    <glyph glyph-name="omicrontonos" unicode="&#x3cc;" horiz-adv-x="586" 
d="M270 612l61 142l49 -22l-80 -120h-30zM293 -11q-100 0 -165.5 78.5t-65.5 196.5v4q0 117 66 197t166 80q99 0 165 -79t66 -197v-4q0 -117 -66 -196.5t-166 -79.5zM294 27q81 0 135 68t54 169v4q0 101 -55 169.5t-135 68.5q-81 0 -134.5 -68t-53.5 -169v-4
q0 -102 54.5 -170t134.5 -68z" />
    <glyph glyph-name="upsilontonos" unicode="&#x3cd;" horiz-adv-x="571" 
d="M263 611l61 142l49 -22l-80 -120h-30zM285 -11q-92 0 -145.5 55.5t-53.5 160.5v328h40v-328q0 -88 43 -133t117 -45t116 45t42 133v328h41v-328q0 -105 -53 -160.5t-147 -55.5z" />
    <glyph glyph-name="omegatonos" unicode="&#x3ce;" horiz-adv-x="821" 
d="M387 611l61 142l49 -22l-80 -120h-30zM390 434h40v-156q0 -117 37.5 -184t110.5 -67q60 0 95.5 53t35.5 143q0 153 -114 310h50q106 -161 106 -311q0 -107 -47 -169.5t-126 -62.5q-70 0 -111.5 46.5t-56.5 124.5q-13 -76 -56 -123.5t-113 -47.5q-79 0 -125 62t-46 171
q0 152 106 310h49q-114 -157 -114 -311q0 -88 36.5 -141.5t94.5 -53.5q73 0 110.5 67t37.5 184v156z" />
    <glyph glyph-name="Iegravecyrillic" unicode="&#x400;" horiz-adv-x="604" 
d="M338 787h-34l-101 91l47 23zM103 0v728h431v-40h-388v-301h350v-40h-350v-307h393v-40h-436z" />
    <glyph glyph-name="Iocyrillic" unicode="&#x401;" horiz-adv-x="604" 
d="M365 794v68h59v-68h-59zM217 794v68h59v-68h-59zM103 0v728h431v-40h-388v-301h350v-40h-350v-307h393v-40h-436z" />
    <glyph glyph-name="Djecyrillic" unicode="&#x402;" horiz-adv-x="763" 
d="M509 728v-40h-219v-267q87 27 175 27q120 0 181 -57t61 -167q0 -111 -64 -168.5t-176 -57.5h-18v40h15q99 0 149 45t50 141q0 185 -200 185q-85 0 -173 -28v-381h-43v688h-205v40h467z" />
    <glyph glyph-name="Gjecyrillic" unicode="&#x403;" horiz-adv-x="545" 
d="M267 787l88 114l47 -23l-101 -91h-34zM103 0v728h399v-40h-356v-688h-43z" />
    <glyph glyph-name="Ecyrillic" unicode="&#x404;" horiz-adv-x="661" 
d="M383 -11q-136 0 -222 103t-86 268v7q0 163 88.5 267.5t225.5 104.5q120 0 218 -89l-27 -32q-84 81 -192 81q-114 0 -188.5 -87t-80.5 -225h366v-39h-366q4 -142 78.5 -230.5t187.5 -88.5q111 0 198 87l27 -29q-100 -98 -227 -98z" />
    <glyph glyph-name="Dzecyrillic" unicode="&#x405;" horiz-adv-x="586" 
d="M301 -10q-137 0 -245 102l29 33q100 -95 217 -95q77 0 125 41.5t48 105.5v2q0 57 -38.5 95t-144.5 75q-116 42 -162 88t-46 118v2q0 77 59.5 129t150.5 52q119 0 210 -79l-27 -34q-85 73 -185 73q-73 0 -119 -40t-46 -98v-2q0 -58 39.5 -96t145.5 -74q114 -41 160 -89
t46 -118v-2q0 -81 -61 -135t-156 -54z" />
    <glyph glyph-name="Icyrillic" unicode="&#x406;" horiz-adv-x="263" 
d="M110 0v728h43v-728h-43z" />
    <glyph glyph-name="Yicyrillic" unicode="&#x407;" horiz-adv-x="263" 
d="M110 0v728h43v-728h-43zM179 794v68h59v-68h-59zM31 794v68h59v-68h-59z" />
    <glyph glyph-name="Jecyrillic" unicode="&#x408;" horiz-adv-x="485" 
d="M210 -9q-115 0 -172 106l34 24q53 -91 141 -91q60 0 97.5 43.5t37.5 125.5v529h42v-525q0 -108 -55 -163q-49 -49 -125 -49z" />
    <glyph glyph-name="Ljecyrillic" unicode="&#x409;" horiz-adv-x="921" 
d="M419 0v691h-3l-348 -691h-45l367 728h72v-280h154q115 0 183.5 -59t68.5 -161v-2q0 -106 -72.5 -166t-189.5 -60h-187zM462 40h146q99 0 158 49t59 135v2q0 86 -57 134t-154 48h-152v-368z" />
    <glyph glyph-name="Njecyrillic" unicode="&#x40a;" horiz-adv-x="1042" 
d="M540 0v347h-392v-347h-43v728h43v-342h392v342h43v-280h154q117 0 184.5 -59t67.5 -161v-2q0 -106 -73 -166t-188 -60h-188zM583 40h148q98 0 157 49.5t59 134.5v2q0 86 -57 134t-155 48h-152v-368z" />
    <glyph glyph-name="Tshecyrillic" unicode="&#x40b;" horiz-adv-x="787" 
d="M509 728v-40h-219v-267q87 27 184 27q117 0 175 -51t58 -164v-233h-43v225q0 99 -46 141.5t-147 42.5q-88 0 -181 -28v-381h-43v688h-205v40h467z" />
    <glyph glyph-name="Kjecyrillic" unicode="&#x40c;" horiz-adv-x="643" 
d="M299 783l88 114l47 -23l-101 -91h-34zM103 0v728h43v-337h122l273 337h54l-289 -355l305 -373h-56l-287 352h-122v-352h-43z" />
    <glyph glyph-name="Iigravecyrillic" unicode="&#x40d;" horiz-adv-x="720" 
d="M378 783h-34l-101 91l47 23zM617 0h-43v658l-434 -658h-37v728h43v-648l427 648h44v-728z" />
    <glyph glyph-name="Ushortcyrillic" unicode="&#x40e;" horiz-adv-x="631" 
d="M326 783q-52 0 -85.5 24.5t-38.5 69.5h36q18 -54 88 -54t88 54h36q-6 -45 -39 -69.5t-85 -24.5zM230 0h-47l126 246l-267 482h49l241 -441l217 441h47z" />
    <glyph glyph-name="Dzhecyrillic" unicode="&#x40f;" horiz-adv-x="700" 
d="M326 -141v141h-223v728h43v-688h404v688h43v-728h-225v-141h-42z" />
    <glyph glyph-name="Acyrillic" unicode="&#x410;" horiz-adv-x="713" 
d="M50 0l285 733h42l286 -733h-47l-79 208h-364l-79 -208h-44zM189 247h332l-166 432z" />
    <glyph glyph-name="Becyrillic" unicode="&#x411;" horiz-adv-x="641" 
d="M103 0v728h431v-40h-388v-278h187q115 0 182.5 -52t67.5 -148v-2q0 -99 -71.5 -153.5t-186.5 -54.5h-222zM146 40h182q98 0 155.5 43.5t57.5 122.5v2q0 80 -56 121.5t-154 41.5h-185v-331z" />
    <glyph glyph-name="Vecyrillic" unicode="&#x412;" horiz-adv-x="658" 
d="M103 0v728h233q117 0 178 -61q47 -47 47 -120v-2q0 -68 -37.5 -112t-93.5 -61q73 -17 117 -61.5t44 -115.5v-2q0 -90 -66 -141.5t-183 -51.5h-239zM518 542v2q0 67 -48 105.5t-135 38.5h-189v-301h187q85 0 135 40.5t50 114.5zM548 193v2q0 72 -54.5 112.5t-152.5 40.5
h-195v-308h198q97 0 150.5 40.5t53.5 112.5z" />
    <glyph glyph-name="Gecyrillic" unicode="&#x413;" horiz-adv-x="545" 
d="M103 0v728h399v-40h-356v-688h-43z" />
    <glyph glyph-name="Decyrillic" unicode="&#x414;" horiz-adv-x="769" 
d="M40 40h63l259 693h45l259 -693h62v-181h-41v141h-605v-141h-42v181zM384 678l-236 -638h471z" />
    <glyph glyph-name="Iecyrillic" unicode="&#x415;" horiz-adv-x="604" 
d="M103 0v728h431v-40h-388v-301h350v-40h-350v-307h393v-40h-436z" />
    <glyph glyph-name="Zhecyrillic" unicode="&#x416;" horiz-adv-x="962" 
d="M46 728h52l262 -337h100v337h43v-337h100l262 337h52l-278 -355l290 -373h-51l-275 352h-100v-352h-43v352h-102l-274 -352h-52l291 373z" />
    <glyph glyph-name="Zecyrillic" unicode="&#x417;" horiz-adv-x="597" 
d="M86 619l-25 31q105 89 232 89q98 0 159.5 -52.5t61.5 -134.5v-2q0 -68 -40.5 -115.5t-109.5 -65.5q73 -15 117 -61.5t44 -114.5v-1q0 -89 -68 -146t-176 -57q-130 0 -231 79l25 33q93 -73 206 -73q87 0 143.5 45.5t56.5 117.5v2q0 74 -55 114.5t-155 40.5h-96v39h95
q88 0 143.5 42t55.5 119v2q0 67 -48.5 108.5t-128.5 41.5q-112 0 -206 -81z" />
    <glyph glyph-name="Iicyrillic" unicode="&#x418;" horiz-adv-x="720" 
d="M617 0h-43v658l-434 -658h-37v728h43v-648l427 648h44v-728z" />
    <glyph glyph-name="Iishortcyrillic" unicode="&#x419;" horiz-adv-x="720" 
d="M359 783q-52 0 -85.5 24.5t-38.5 69.5h36q18 -54 88 -54t88 54h36q-6 -45 -39 -69.5t-85 -24.5zM617 0h-43v658l-434 -658h-37v728h43v-648l427 648h44v-728z" />
    <glyph glyph-name="Kacyrillic" unicode="&#x41a;" horiz-adv-x="643" 
d="M103 0v728h43v-337h122l273 337h54l-289 -355l305 -373h-56l-287 352h-122v-352h-43z" />
    <glyph glyph-name="Elcyrillic" unicode="&#x41b;" horiz-adv-x="696" 
d="M368 733l278 -733h-46l-253 671l-253 -671h-44l278 733h40z" />
    <glyph glyph-name="Emcyrillic" unicode="&#x41c;" horiz-adv-x="794" 
d="M103 0v728h43l251 -433l251 433h43v-728h-43v648l-250 -431h-3l-250 431v-648h-42z" />
    <glyph glyph-name="Encyrillic" unicode="&#x41d;" horiz-adv-x="697" 
d="M103 0v728h43v-342h405v342h44v-728h-44v347h-405v-347h-43z" />
    <glyph glyph-name="Ocyrillic" unicode="&#x41e;" horiz-adv-x="759" 
d="M379 -11q-134 0 -219 105t-85 266v7q0 161 85 266.5t220 105.5q134 0 219 -105t85 -266v-7q0 -161 -85 -266.5t-220 -105.5zM380 28q113 0 186.5 94.5t73.5 237.5v7q0 142 -74 237.5t-187 95.5q-114 0 -187 -94.5t-73 -237.5v-7q0 -142 74 -237.5t187 -95.5z" />
    <glyph glyph-name="Pecyrillic" unicode="&#x41f;" horiz-adv-x="696" 
d="M103 0v728h490v-728h-43v688h-404v-688h-43z" />
    <glyph glyph-name="Ercyrillic" unicode="&#x420;" horiz-adv-x="616" 
d="M103 0v728h205q117 0 185.5 -60t68.5 -162v-2q0 -107 -72.5 -168.5t-189.5 -61.5h-154v-274h-43zM146 313h156q100 0 159 51t59 138v2q0 88 -58 136t-156 48h-160v-375z" />
    <glyph glyph-name="Escyrillic" unicode="&#x421;" horiz-adv-x="655" 
d="M382 -10q-133 0 -220 103t-87 268v5q0 163 88.5 267.5t222.5 104.5q119 0 216 -88l-28 -33q-83 81 -190 81q-113 0 -189 -93.5t-76 -237.5v-4q0 -145 76 -239t188 -94q106 0 196 87l27 -30q-99 -97 -224 -97z" />
    <glyph glyph-name="Tecyrillic" unicode="&#x422;" horiz-adv-x="561" 
d="M261 0v688h-214v40h471v-40h-214v-688h-43z" />
    <glyph glyph-name="Ucyrillic" unicode="&#x423;" horiz-adv-x="629" 
d="M229 0h-47l126 246l-267 482h49l241 -441l217 441h47z" />
    <glyph glyph-name="Efcyrillic" unicode="&#x424;" horiz-adv-x="842" 
d="M399 -14v93q-156 2 -246 80t-90 207v2q0 128 89.5 205.5t246.5 81.5v90h43v-90q156 -4 246.5 -80.5t90.5 -206.5v-1q0 -129 -90 -207.5t-247 -80.5v-93h-43zM107 367v-1q0 -111 76.5 -178.5t216.5 -69.5v498q-140 -4 -216.5 -70t-76.5 -179zM735 367v1q0 110 -77 178
t-217 70v-498q139 2 216.5 69.5t77.5 179.5z" />
    <glyph glyph-name="Khacyrillic" unicode="&#x425;" horiz-adv-x="642" 
d="M531 728h48l-232 -355l244 -373h-49l-222 342l-220 -342h-49l244 373l-233 355h49l209 -324z" />
    <glyph glyph-name="Tsecyrillic" unicode="&#x426;" horiz-adv-x="706" 
d="M615 -141v141h-512v728h43v-688h404v688h43v-688h64v-181h-42z" />
    <glyph glyph-name="Checyrillic" unicode="&#x427;" horiz-adv-x="643" 
d="M497 0v306q-92 -26 -185 -26q-117 0 -174.5 51.5t-57.5 163.5v233h42v-225q0 -98 46.5 -141t147.5 -43q93 0 181 28v381h43v-728h-43z" />
    <glyph glyph-name="Shacyrillic" unicode="&#x428;" horiz-adv-x="1014" 
d="M103 0v728h43v-688h339v688h43v-688h340v688h42v-728h-807z" />
    <glyph glyph-name="Shchacyrillic" unicode="&#x429;" horiz-adv-x="1024" 
d="M103 0v728h43v-688h339v688h43v-688h340v688h42v-688h64v-181h-42v141h-829z" />
    <glyph glyph-name="Hardsigncyrillic" unicode="&#x42a;" horiz-adv-x="765" 
d="M252 0v688h-210v40h253v-280h165q115 0 183.5 -59t68.5 -161v-2q0 -105 -73.5 -165.5t-188.5 -60.5h-198zM295 40h157q99 0 158 49t59 135v2q0 86 -57 134t-155 48h-162v-368z" />
    <glyph glyph-name="Yericyrillic" unicode="&#x42b;" horiz-adv-x="837" 
d="M103 0v728h43v-280h165q115 0 183.5 -59t68.5 -161v-2q0 -105 -73.5 -165.5t-188.5 -60.5h-198zM146 40h157q99 0 158 49t59 135v2q0 86 -57 134t-155 48h-162v-368zM691 0v728h43v-728h-43z" />
    <glyph glyph-name="Softsigncyrillic" unicode="&#x42c;" horiz-adv-x="616" 
d="M103 0v728h43v-280h165q115 0 183.5 -59t68.5 -161v-2q0 -105 -73.5 -165.5t-188.5 -60.5h-198zM146 40h157q99 0 158 49t59 135v2q0 86 -57 134t-155 48h-162v-368z" />
    <glyph glyph-name="Ereversedcyrillic" unicode="&#x42d;" horiz-adv-x="661" 
d="M81 615l-27 30q105 94 230 94q136 0 219 -102t83 -269v-7q0 -164 -87 -268t-225 -104q-128 0 -223 95l27 31q91 -86 197 -86q115 0 189 89t78 230h-365v39h364q-6 142 -76 227t-181 85t-203 -84z" />
    <glyph glyph-name="IUcyrillic" unicode="&#x42e;" horiz-adv-x="975" 
d="M103 0v728h43v-342h164q6 153 87.5 253t208.5 100q130 0 212 -105.5t82 -265.5v-6q0 -160 -82.5 -266.5t-212.5 -106.5q-128 0 -209.5 101.5t-85.5 256.5h-164v-347h-43zM606 28q110 0 180 94.5t70 237.5v6q0 143 -71 238.5t-180 95.5q-110 0 -180.5 -94.5t-70.5 -237.5
v-6q0 -143 71.5 -238.5t180.5 -95.5z" />
    <glyph glyph-name="IAcyrillic" unicode="&#x42f;" horiz-adv-x="661" 
d="M78 516v2q0 94 68 152t182 58h230v-728h-43v304h-192l-210 -304h-53l214 307q-89 13 -142.5 66.5t-53.5 142.5zM515 343v345h-187q-97 0 -152 -46.5t-55 -125.5v-2q0 -82 57 -126.5t154 -44.5h183z" />
    <glyph glyph-name="acyrillic" unicode="&#x430;" horiz-adv-x="534" 
d="M231 -11q-73 0 -124.5 44.5t-51.5 120.5v3q0 79 55.5 125.5t146.5 46.5q80 0 152 -25v46q0 74 -40 113t-114 39q-77 0 -143 -38l-16 35q86 42 161 42q93 0 143 -51q49 -46 49 -137v-353h-40v94q-57 -105 -178 -105zM234 26q74 0 125 48t51 115v77q-75 26 -153 26
q-74 0 -116.5 -36t-42.5 -97v-3q0 -59 39 -94.5t97 -35.5z" />
    <glyph glyph-name="becyrillic" unicode="&#x431;" horiz-adv-x="589" 
d="M300 -11q-93 0 -150 59q-78 76 -78 247v5q0 223 55.5 316.5t206.5 119.5l137 23l7 -38l-138 -24q-124 -21 -170.5 -87t-58.5 -225q29 64 81.5 98.5t119.5 34.5q95 0 155 -73.5t60 -182.5v-4q0 -115 -63 -192t-164 -77zM300 27q84 0 134.5 64.5t50.5 165.5v4
q0 95 -49 156.5t-127 61.5q-85 0 -140 -60.5t-55 -154.5q0 -110 52 -173.5t134 -63.5z" />
    <glyph glyph-name="vecyrillic" unicode="&#x432;" horiz-adv-x="551" 
d="M94 0v533h201q83 0 129.5 -35t46.5 -100q0 -49 -29 -82t-79 -45q125 -25 125 -128q0 -68 -51 -105.5t-144 -37.5h-199zM429 398q0 98 -134 98h-161v-208h154q66 0 103.5 29.5t37.5 80.5zM446 143q0 51 -40.5 80.5t-116.5 28.5h-155v-215h160q74 0 113 27.5t39 78.5z" />
    <glyph glyph-name="gecyrillic" unicode="&#x433;" horiz-adv-x="441" 
d="M94 0v533h316v-37h-276v-496h-40z" />
    <glyph glyph-name="decyrillic" unicode="&#x434;" horiz-adv-x="604" 
d="M282 537h41l194 -500h57v-170h-38v133h-467v-133h-38v170h55zM302 489l-172 -452h343z" />
    <glyph glyph-name="iecyrillic" unicode="&#x435;" horiz-adv-x="543" 
d="M292 -11q-97 0 -163.5 75t-66.5 200v3q0 123 62 200.5t154 77.5q94 0 151 -77t57 -197v-21h-382q4 -102 58.5 -162.5t132.5 -60.5q85 0 152 70l25 -28q-77 -80 -180 -80zM104 287h339q-4 93 -48 156.5t-118 63.5q-71 0 -119 -61t-54 -159z" />
    <glyph glyph-name="zhecyrillic" unicode="&#x436;" horiz-adv-x="782" 
d="M412 533v-246h93l182 246h49l-197 -264l207 -269h-50l-190 250h-94v-250h-41v250h-95l-190 -250h-49l206 270l-196 263h49l182 -246h93v246h41z" />
    <glyph glyph-name="zecyrillic" unicode="&#x437;" horiz-adv-x="500" 
d="M46 51l22 32q75 -56 168 -56q72 0 114.5 31t42.5 83v1q0 53 -42 81.5t-118 28.5h-91v37h91q69 0 109.5 30.5t40.5 81.5v1q0 48 -37 76.5t-102 28.5q-90 0 -170 -61l-21 32q92 67 191 67q84 0 132 -39t48 -103v-2q0 -52 -33 -85t-80 -44q56 -11 90.5 -44t34.5 -87v-1
q0 -66 -54 -108.5t-146 -42.5q-107 0 -190 62z" />
    <glyph glyph-name="iicyrillic" unicode="&#x438;" horiz-adv-x="587" 
d="M94 0v533h39v-466l320 466h41v-533h-40v468l-321 -468h-39z" />
    <glyph glyph-name="iishortcyrillic" unicode="&#x439;" horiz-adv-x="587" 
d="M94 0v533h39v-466l320 466h41v-533h-40v468l-321 -468h-39zM293 611q-53 0 -85.5 28t-37.5 79h33q19 -69 90 -69t90 69h33q-5 -51 -38 -79t-85 -28z" />
    <glyph glyph-name="kacyrillic" unicode="&#x43a;" horiz-adv-x="518" 
d="M134 533v-246h100l189 246h50l-204 -263l213 -270h-50l-196 250h-102v-250h-40v533h40z" />
    <glyph glyph-name="elcyrillic" unicode="&#x43b;" horiz-adv-x="551" 
d="M294 537l209 -537h-45l-184 481l-183 -481h-44l210 537h37z" />
    <glyph glyph-name="emcyrillic" unicode="&#x43c;" horiz-adv-x="659" 
d="M94 0v533h43l192 -331l192 331h45v-533h-42v461l-194 -329h-3l-194 328v-460h-39z" />
    <glyph glyph-name="encyrillic" unicode="&#x43d;" horiz-adv-x="585" 
d="M94 0v533h40v-245h317v245h40v-533h-40v251h-317v-251h-40z" />
    <glyph glyph-name="ocyrillic" unicode="&#x43e;" horiz-adv-x="586" 
d="M293 -11q-100 0 -165.5 78.5t-65.5 196.5v4q0 117 66 197t166 80q99 0 165 -79t66 -197v-4q0 -117 -66 -196.5t-166 -79.5zM294 27q81 0 135 68t54 169v4q0 101 -55 169.5t-135 68.5q-81 0 -134.5 -68t-53.5 -169v-4q0 -102 54.5 -170t134.5 -68z" />
    <glyph glyph-name="pecyrillic" unicode="&#x43f;" horiz-adv-x="583" 
d="M94 0v533h396v-533h-41v496h-315v-496h-40z" />
    <glyph glyph-name="ercyrillic" unicode="&#x440;" horiz-adv-x="605" 
d="M94 -156v689h40v-126q27 60 75 99t115 39q90 0 154 -75.5t64 -198.5v-7q0 -124 -64 -199.5t-154 -75.5q-67 0 -115 38t-75 96v-279h-40zM320 27q78 0 128.5 64.5t50.5 170.5v7q0 106 -51 171.5t-128 65.5t-133 -67t-56 -168v-8q0 -102 56 -169t133 -67z" />
    <glyph glyph-name="escyrillic" unicode="&#x441;" horiz-adv-x="510" 
d="M293 -11q-99 0 -165 76.5t-66 197.5v5q0 120 68 198.5t165 78.5q90 0 165 -75l-27 -30q-66 66 -140 66q-79 0 -133.5 -67.5t-54.5 -170.5v-4q0 -106 56 -171.5t134 -65.5q79 1 140 69l27 -27q-73 -80 -169 -80z" />
    <glyph glyph-name="tecyrillic" unicode="&#x442;" horiz-adv-x="482" 
d="M221 0v496h-190v37h421v-37h-191v-496h-40z" />
    <glyph glyph-name="ucyrillic" unicode="&#x443;" 
d="M280 53l170 480h43l-197 -541q-31 -85 -66 -118t-87 -33q-45 0 -86 22l15 37q32 -21 72 -21q37 0 63 26t53 96l-213 532h45z" />
    <glyph glyph-name="efcyrillic" unicode="&#x444;" horiz-adv-x="755" 
d="M398 -156h-41v153q-139 2 -217.5 75.5t-78.5 192.5v2q0 119 78.5 192t217.5 77v215h41v-215q140 -4 218 -76.5t78 -191.5v-2q0 -119 -79 -193t-217 -76v-153zM651 266v1q0 104 -66 166t-187 66v-465q121 2 187 65t66 167zM103 267v-1q0 -104 66.5 -167t187.5 -65v465
q-122 -4 -188 -66t-66 -166z" />
    <glyph glyph-name="khacyrillic" unicode="&#x445;" horiz-adv-x="519" 
d="M104 533l156 -230l157 230h46l-179 -260l188 -273h-48l-165 242l-164 -242h-47l186 272l-178 261h48z" />
    <glyph glyph-name="tsecyrillic" unicode="&#x446;" horiz-adv-x="593" 
d="M508 -134v134h-414v533h40v-496h315v496h41v-496h56v-171h-38z" />
    <glyph glyph-name="checyrillic" unicode="&#x447;" horiz-adv-x="543" 
d="M410 0v207q-78 -20 -147 -20q-95 0 -141.5 41t-46.5 132v173h41v-170q0 -74 35.5 -106t114.5 -32q66 0 144 20v288h40v-533h-40z" />
    <glyph glyph-name="shacyrillic" unicode="&#x448;" horiz-adv-x="851" 
d="M94 0v533h40v-496h271v496h40v-496h271v496h41v-533h-663z" />
    <glyph glyph-name="shchacyrillic" unicode="&#x449;" horiz-adv-x="861" 
d="M94 0v533h40v-496h271v496h40v-496h271v496h41v-496h49v-171h-38v134h-674z" />
    <glyph glyph-name="hardsigncyrillic" unicode="&#x44a;" horiz-adv-x="618" 
d="M28 533h204v-193h138q94 0 147 -45.5t54 -121.5v-3q0 -78 -54 -124t-148 -46h-177v496h-164v37zM232 303v-266h138q77 0 118 35.5t41 97.5v2q0 61 -41 96t-118 35h-138z" />
    <glyph glyph-name="yericyrillic" unicode="&#x44b;" horiz-adv-x="704" 
d="M134 533v-193h138q94 0 147.5 -45.5t53.5 -121.5v-3q0 -78 -54 -124t-148 -46h-177v533h40zM134 303v-266h138q77 0 118 35.5t41 97.5v2q0 61 -41 96t-118 35h-138zM570 0v533h41v-533h-41z" />
    <glyph glyph-name="softsigncyrillic" unicode="&#x44c;" horiz-adv-x="521" 
d="M134 533v-193h138q94 0 147.5 -45.5t53.5 -121.5v-3q0 -78 -54 -124t-148 -46h-177v533h40zM134 303v-266h138q77 0 118 35.5t41 97.5v2q0 61 -41 96t-118 35h-138z" />
    <glyph glyph-name="ereversedcyrillic" unicode="&#x44d;" horiz-adv-x="516" 
d="M46 63l26 29q62 -65 150 -65q80 0 133 62.5t57 162.5h-271v37h271q-4 99 -56.5 158t-129.5 59q-83 0 -152 -64l-24 29q78 74 177 74t163.5 -75.5t64.5 -199.5v-5q0 -120 -66.5 -198t-166.5 -78q-102 0 -176 74z" />
    <glyph glyph-name="iucyrillic" unicode="&#x44e;" horiz-adv-x="779" 
d="M134 251v-251h-40v533h40v-245h131q6 110 69 183.5t157 73.5q99 0 162.5 -79t63.5 -197v-4q0 -117 -64.5 -196.5t-161.5 -79.5q-96 0 -159 75t-67 187h-131zM492 27q79 0 130.5 68.5t51.5 168.5v4q0 100 -52.5 169t-130.5 69q-80 0 -132 -68t-52 -169v-4
q0 -101 52.5 -169.5t132.5 -68.5z" />
    <glyph glyph-name="iacyrillic" unicode="&#x44f;" horiz-adv-x="560" 
d="M426 212h-175l-145 -212h-50l151 217q-63 13 -98.5 53.5t-34.5 100.5v1q0 73 54 117t141 44h197v-533h-40v212zM426 496h-158q-69 0 -111 -33t-42 -90v-1q0 -57 40.5 -90t112.5 -33h158v247z" />
    <glyph glyph-name="iegravecyrillic" unicode="&#x450;" horiz-adv-x="543" 
d="M292 -11q-97 0 -163.5 75t-66.5 200v3q0 123 62 200.5t154 77.5q94 0 151 -77t57 -197v-21h-382q4 -102 58.5 -162.5t132.5 -60.5q85 0 152 70l25 -28q-77 -80 -180 -80zM104 287h339q-4 93 -48 156.5t-118 63.5q-71 0 -119 -61t-54 -159zM267 612l-101 106l48 25
l83 -131h-30z" />
    <glyph glyph-name="iocyrillic" unicode="&#x451;" horiz-adv-x="543" 
d="M319 619v69h55v-69h-55zM182 619v69h54v-69h-54zM292 -11q-97 0 -163.5 75t-66.5 200v3q0 123 62 200.5t154 77.5q94 0 151 -77t57 -197v-21h-382q4 -102 58.5 -162.5t132.5 -60.5q85 0 152 70l25 -28q-77 -80 -180 -80zM104 287h339q-4 93 -48 156.5t-118 63.5
q-71 0 -119 -61t-54 -159z" />
    <glyph glyph-name="djecyrillic" unicode="&#x452;" horiz-adv-x="550" 
d="M313 607h-179v-183q82 21 146 21q94 0 141.5 -42t47.5 -133v-252q0 -177 -148 -177q-23 0 -53 7v38q34 -8 52 -8q57 0 82.5 33.5t25.5 110.5v246q0 74 -35.5 106t-114.5 32q-68 0 -144 -21v-385h-40v607h-107v37h107v107h40v-107h179v-37z" />
    <glyph glyph-name="gjecyrillic" unicode="&#x453;" horiz-adv-x="441" 
d="M221 612l83 131l48 -25l-100 -106h-31zM94 0v533h316v-37h-276v-496h-40z" />
    <glyph glyph-name="ecyrillic" unicode="&#x454;" horiz-adv-x="515" 
d="M465 474l-25 -31q-65 63 -143 63q-79 0 -132.5 -60.5t-59.5 -156.5h270v-37h-270q2 -102 56.5 -163.5t135.5 -61.5t146 65l25 -27q-71 -76 -173 -76q-101 0 -167 76t-66 198v5q0 121 68 199t168 78q96 0 167 -71z" />
    <glyph glyph-name="dzecyrillic" unicode="&#x455;" horiz-adv-x="461" 
d="M230 -9q-104 0 -187 74l26 32q77 -68 164 -68q54 0 89.5 29.5t35.5 74.5v2q0 40 -31.5 66t-100.5 55q-81 32 -119 63.5t-38 84.5v2q0 60 44 98t116 38q91 0 163 -57l-23 -33q-70 52 -142 52q-53 0 -85 -26t-32 -68v-2q0 -37 31.5 -61t101.5 -54q81 -34 118.5 -67
t37.5 -89v-1q0 -64 -48.5 -104.5t-120.5 -40.5z" />
    <glyph glyph-name="icyrillic" unicode="&#x456;" horiz-adv-x="240" 
d="M95 668v67h50v-67h-50zM99 0v533h41v-533h-41z" />
    <glyph glyph-name="yicyrillic" unicode="&#x457;" horiz-adv-x="240" 
d="M163 619v69h55v-69h-55zM26 619v69h54v-69h-54zM99 0v533h41v-533h-41z" />
    <glyph glyph-name="jecyrillic" unicode="&#x458;" horiz-adv-x="242" 
d="M97 668v67h50v-67h-50zM37 -160q-17 0 -37 5v36q15 -4 35 -4q67 0 67 85v571h40v-573q0 -58 -27 -89t-78 -31z" />
    <glyph glyph-name="ljecyrillic" unicode="&#x459;" horiz-adv-x="761" 
d="M342 0v500h-1l-273 -500h-44l293 533h66v-193h129q95 0 148 -45.5t53 -121.5v-3q0 -78 -53.5 -124t-147.5 -46h-170zM383 37h130q77 0 118 35.5t41 97.5v2q0 61 -41 96t-118 35h-130v-266z" />
    <glyph glyph-name="njecyrillic" unicode="&#x45a;" horiz-adv-x="863" 
d="M485 533v-193h129q95 0 148 -45.5t53 -121.5v-3q0 -78 -53.5 -124t-147.5 -46h-170v251h-310v-251h-40v533h40v-245h310v245h41zM485 303v-266h130q77 0 117.5 35.5t40.5 97.5v2q0 61 -41 96t-118 35h-129z" />
    <glyph glyph-name="tshecyrillic" unicode="&#x45b;" horiz-adv-x="550" 
d="M134 751v-107h179v-37h-179v-183q82 21 146 21q94 0 141.5 -42t47.5 -133v-270h-41v268q0 74 -35.5 106t-114.5 32q-68 0 -144 -21v-385h-40v607h-107v37h107v107h40z" />
    <glyph glyph-name="kjecyrillic" unicode="&#x45c;" horiz-adv-x="518" 
d="M246 611l83 131l48 -25l-100 -106h-31zM134 533v-246h100l189 246h50l-204 -263l213 -270h-50l-196 250h-102v-250h-40v533h40z" />
    <glyph glyph-name="iigravecyrillic" unicode="&#x45d;" horiz-adv-x="587" 
d="M282 611l-101 106l48 25l83 -131h-30zM94 0v533h39v-466l320 466h41v-533h-40v468l-321 -468h-39z" />
    <glyph glyph-name="ushortcyrillic" unicode="&#x45e;" 
d="M280 53l170 480h43l-197 -541q-31 -85 -66 -118t-87 -33q-45 0 -86 22l15 37q32 -21 72 -21q37 0 63 26t53 96l-213 532h45zM273 611q-53 0 -85.5 28t-37.5 79h33q19 -69 90 -69t90 69h33q-5 -51 -38 -79t-85 -28z" />
    <glyph glyph-name="dzhecyrillic" unicode="&#x45f;" horiz-adv-x="583" 
d="M94 0v533h40v-496h315v496h41v-533h-188v-134h-38v134h-170z" />
    <glyph glyph-name="Yatcyrillic" unicode="&#x462;" horiz-adv-x="763" 
d="M295 398h176q115 0 177.5 -51.5t62.5 -144.5v-2q0 -92 -66.5 -146t-177.5 -54h-215v565h-210v39h210v141h43v-141h237v-39h-237v-167zM469 358h-174v-318h174q94 0 146.5 42.5t52.5 116.5v2q0 76 -50.5 116.5t-148.5 40.5z" />
    <glyph glyph-name="yatcyrillic" unicode="&#x463;" horiz-adv-x="618" 
d="M232 340h138q94 0 147 -45.5t54 -121.5v-3q0 -78 -54 -124t-148 -46h-177v496h-164v37h164v218h40v-218h200v-37h-200v-156zM232 303v-266h138q77 0 118 35.5t41 97.5v2q0 61 -41 96t-118 35h-138z" />
    <glyph glyph-name="Fitacyrillic" unicode="&#x472;" horiz-adv-x="758" 
d="M378 -11q-134 0 -218.5 105t-84.5 266v6q0 161 85 267t219 106t219 -105t85 -266v-6q0 -161 -85.5 -267t-219.5 -106zM379 28q111 0 184 90t77 229h-522q4 -139 77 -229t184 -90zM378 700q-110 0 -182 -88.5t-78 -225.5h521q-6 137 -79 225.5t-182 88.5z" />
    <glyph glyph-name="fitacyrillic" unicode="&#x473;" horiz-adv-x="586" 
d="M293 -11q-99 0 -165 79t-66 196v4q0 117 66.5 197t165.5 80t165 -79t66 -197v-4q0 -117 -66 -196.5t-166 -79.5zM294 27q78 0 132 64t58 160h-380q4 -96 58 -160t132 -64zM293 506q-78 0 -130.5 -62t-58.5 -156h379q-6 94 -60.5 156t-129.5 62z" />
    <glyph glyph-name="Izhitsacyrillic" unicode="&#x474;" horiz-adv-x="716" 
d="M318 -5l-268 733h47l241 -673l174 488q37 112 76 150t109 38h4v-39h-4q-52 0 -83.5 -34t-64.5 -129l-192 -534h-39z" />
    <glyph glyph-name="izhitsacyrillic" unicode="&#x475;" horiz-adv-x="548" 
d="M244 -4l-197 537h46l168 -481l116 333q32 87 65 119t86 32h3v-37h-1q-38 0 -63 -26t-53 -100l-136 -377h-34z" />
    <glyph glyph-name="Gheupturncyrillic" unicode="&#x490;" horiz-adv-x="545" 
d="M103 728h359v133h40v-173h-356v-688h-43v728z" />
    <glyph glyph-name="gheupturncyrillic" unicode="&#x491;" horiz-adv-x="441" 
d="M94 0v533h277v127h39v-164h-276v-496h-40z" />
    <glyph glyph-name="Ghestrokecyrillic" unicode="&#x492;" horiz-adv-x="569" 
d="M126 0v339h-70v40h70v349h399v-40h-356v-309h178v-40h-178v-339h-43z" />
    <glyph glyph-name="ghestrokecyrillic" unicode="&#x493;" horiz-adv-x="456" 
d="M109 0v241h-64v37h64v255h316v-37h-276v-218h129v-37h-129v-241h-40z" />
    <glyph glyph-name="Zhedescendercyrillic" unicode="&#x496;" horiz-adv-x="985" 
d="M917 728l-278 -355l259 -333h64v-181h-42v141h-42l-275 352h-100v-352h-43v352h-102l-274 -352h-52l291 373l-277 355h52l262 -337h100v337h43v-337h100l262 337h52z" />
    <glyph glyph-name="zhedescendercyrillic" unicode="&#x497;" horiz-adv-x="796" 
d="M736 533l-197 -264l178 -232h50v-171h-38v134h-33l-190 250h-94v-250h-41v250h-95l-190 -250h-49l206 270l-196 263h49l182 -246h93v246h41v-246h93l182 246h49z" />
    <glyph glyph-name="Zedescendercyrillic" unicode="&#x498;" horiz-adv-x="596" 
d="M86 619l-25 31q105 89 232 89q98 0 159.5 -52.5t61.5 -134.5v-2q0 -68 -40.5 -115.5t-109.5 -65.5q73 -15 117 -61.5t44 -114.5v-1q0 -84 -60.5 -140t-158.5 -62v-131h-42v131q-123 4 -214 78l25 33q93 -73 206 -73q87 0 143.5 45.5t56.5 117.5v2q0 74 -55 114.5
t-155 40.5h-96v39h95q88 0 143.5 42t55.5 119v2q0 67 -48.5 108.5t-128.5 41.5q-112 0 -206 -81z" />
    <glyph glyph-name="zedescendercyrillic" unicode="&#x499;" horiz-adv-x="500" 
d="M46 51l22 32q75 -56 168 -56q72 0 114.5 31t42.5 83v1q0 53 -42 81.5t-118 28.5h-91v37h91q69 0 109.5 30.5t40.5 81.5v1q0 48 -37 76.5t-102 28.5q-90 0 -170 -61l-21 32q92 67 191 67q84 0 132 -39t48 -103v-2q0 -52 -33 -85t-80 -44q56 -11 90.5 -44t34.5 -87v-1
q0 -61 -47 -102.5t-129 -47.5v-124h-39v123q-100 4 -175 62z" />
    <glyph glyph-name="Kadescendercyrillic" unicode="&#x49a;" horiz-adv-x="665" 
d="M103 0v728h43v-337h122l273 337h54l-289 -355l272 -333h64v-181h-42v141h-45l-287 352h-122v-352h-43z" />
    <glyph glyph-name="kadescendercyrillic" unicode="&#x49b;" horiz-adv-x="528" 
d="M134 533v-246h100l189 246h50l-204 -263l184 -233h46v-171h-38v134h-29l-196 250h-102v-250h-40v533h40z" />
    <glyph glyph-name="Kaverticalstrokecyrillic" unicode="&#x49c;" horiz-adv-x="674" 
d="M626 728l-253 -356l267 -373h-53l-246 348h-13l1 -233h-41v233h-142v-347h-43v728h43v-341h142v237h41l-1 -237h9l237 341h52z" />
    <glyph glyph-name="kaverticalstrokecyrillic" unicode="&#x49d;" horiz-adv-x="558" 
d="M512 533l-182 -259l187 -274h-50l-171 252h-24l1 -172h-38v172h-101v-252h-40v533h40v-243h101v178h38l-1 -178h23l167 243h50z" />
    <glyph glyph-name="Kabashkircyrillic" unicode="&#x4a0;" horiz-adv-x="792" 
d="M42 688v40h253v-337h122l273 337h54l-289 -355l305 -373h-56l-287 352h-122v-352h-43v688h-210z" />
    <glyph glyph-name="kabashkircyrillic" unicode="&#x4a1;" horiz-adv-x="615" 
d="M231 533v-246h100l189 246h50l-204 -263l213 -270h-50l-196 250h-102v-250h-40v496h-163v37h203z" />
    <glyph glyph-name="Endescendercyrillic" unicode="&#x4a2;" horiz-adv-x="707" 
d="M103 0v728h43v-342h405v342h44v-688h63v-181h-42v141h-65v347h-405v-347h-43z" />
    <glyph glyph-name="endescendercyrillic" unicode="&#x4a3;" horiz-adv-x="595" 
d="M94 0v533h40v-245h317v245h40v-496h49v-171h-38v134h-51v251h-317v-251h-40z" />
    <glyph glyph-name="Enghecyrillic" unicode="&#x4a4;" horiz-adv-x="930" 
d="M522 0v347h-392v-347h-43v728h43v-342h392v342h365v-40h-322v-688h-43z" />
    <glyph glyph-name="enghecyrillic" unicode="&#x4a5;" horiz-adv-x="778" 
d="M444 0v251h-310v-251h-40v533h40v-245h310v245h303v-37h-262v-496h-41z" />
    <glyph glyph-name="Esdescendercyrillic" unicode="&#x4aa;" horiz-adv-x="655" 
d="M350 -141v132q-121 12 -198 113.5t-77 256.5v5q0 163 88.5 268t222.5 105q118 0 216 -89l-28 -32q-83 81 -190 81q-113 0 -189 -94t-76 -238v-4q0 -146 76 -240t188 -94q105 0 196 88l27 -30q-96 -94 -214 -98v-130h-42z" />
    <glyph glyph-name="esdescendercyrillic" unicode="&#x4ab;" horiz-adv-x="510" 
d="M265 -134v125q-88 10 -145.5 85t-57.5 187v5q0 120 67 198.5t165 78.5q91 0 166 -75l-27 -30q-66 66 -140 66q-79 0 -133.5 -67.5t-54.5 -170.5v-4q0 -106 55 -171.5t135 -65.5q78 0 140 69l27 -27q-68 -75 -158 -79v-124h-39z" />
    <glyph glyph-name="Ustraightcyrillic" unicode="&#x4ae;" horiz-adv-x="634" 
d="M295 0v300l-261 428h50l233 -387l233 387h49l-261 -427v-301h-43z" />
    <glyph glyph-name="ustraightcyrillic" unicode="&#x4af;" horiz-adv-x="537" 
d="M489 533l-200 -527v-162h-41v162l-201 527h46l176 -477l177 477h43z" />
    <glyph glyph-name="Ustraightstrokecyrillic" unicode="&#x4b0;" horiz-adv-x="634" 
d="M295 0v270h-170v39h164l-255 419h50l233 -387l233 387h49l-256 -419h164v-39h-169v-270h-43z" />
    <glyph glyph-name="ustraightstrokecyrillic" unicode="&#x4b1;" horiz-adv-x="537" 
d="M435 37v-37h-146v-156h-41v156h-147v37h135l-189 496h46l176 -477l177 477h43l-189 -496h135z" />
    <glyph glyph-name="Hadescendercyrillic" unicode="&#x4b2;" horiz-adv-x="657" 
d="M531 728h48l-232 -355l218 -333h60v-181h-42v141h-41l-222 342l-220 -342h-49l244 373l-233 355h49l209 -324z" />
    <glyph glyph-name="hadescendercyrillic" unicode="&#x4b3;" horiz-adv-x="526" 
d="M104 533l155 -230l158 230h46l-179 -261l162 -235h46v-171h-38v134h-30l-166 243l-164 -243h-47l187 272l-179 261h49z" />
    <glyph glyph-name="Chedescendercyrillic" unicode="&#x4b6;" horiz-adv-x="653" 
d="M497 0v306q-92 -26 -185 -26q-117 0 -174.5 51.5t-57.5 163.5v233h42v-225q0 -98 46.5 -141t147.5 -43q93 0 181 28v381h43v-688h64v-181h-42v141h-65z" />
    <glyph glyph-name="chedescendercyrillic" unicode="&#x4b7;" horiz-adv-x="554" 
d="M410 0v207q-78 -20 -147 -20q-95 0 -141.5 41t-46.5 132v173h41v-170q0 -74 35.5 -106t114.5 -32q66 0 144 20v288h40v-496h49v-171h-38v134h-51z" />
    <glyph glyph-name="Cheverticalstrokecyrillic" unicode="&#x4b8;" horiz-adv-x="644" 
d="M498 0v306q-81 -24 -165 -26v-178h-41v178q-108 5 -160 55.5t-52 159.5v233h42v-226q0 -93 40.5 -135.5t129.5 -47.5v236h41v-236q78 2 165 28v381h43v-728h-43z" />
    <glyph glyph-name="cheverticalstrokecyrillic" unicode="&#x4b9;" horiz-adv-x="544" 
d="M410 0v207q-49 -15 -127 -20v-122h-38l1 122q-85 4 -128 44t-43 127v175h41v-168q0 -73 31 -104.5t99 -35.5l-1 184h38v-184q57 1 127 20v288h41v-533h-41z" />
    <glyph glyph-name="Shhacyrillic" unicode="&#x4ba;" horiz-adv-x="643" 
d="M146 728v-306q92 26 185 26q117 0 174.5 -51.5t57.5 -163.5v-233h-43v225q0 99 -46 141.5t-147 42.5q-91 0 -181 -28v-381h-43v728h43z" />
    <glyph glyph-name="shhacyrillic" unicode="&#x4bb;" horiz-adv-x="572" 
d="M94 0v751h40v-320q20 49 63 81.5t107 32.5q86 0 134.5 -55t48.5 -151v-339h-41v329q0 85 -39 132t-110 47q-70 0 -116.5 -52t-46.5 -132v-324h-40z" />
    <glyph glyph-name="Palochkacyrillic" unicode="&#x4c0;" horiz-adv-x="263" 
d="M110 0v728h43v-728h-43z" />
    <glyph glyph-name="Zhebrevecyrillic" unicode="&#x4c1;" horiz-adv-x="962" 
d="M481 787q-52 0 -85.5 24.5t-38.5 69.5h36q18 -54 88 -54t88 54h36q-6 -45 -39 -69.5t-85 -24.5zM46 728h52l262 -337h100v337h43v-337h100l262 337h52l-278 -355l290 -373h-51l-275 352h-100v-352h-43v352h-102l-274 -352h-52l291 373z" />
    <glyph glyph-name="zhebrevecyrillic" unicode="&#x4c2;" horiz-adv-x="782" 
d="M412 533v-246h93l182 246h49l-197 -264l207 -269h-50l-190 250h-94v-250h-41v250h-95l-190 -250h-49l206 270l-196 263h49l182 -246h93v246h41zM391 612q-53 0 -85.5 28t-37.5 79h33q19 -69 90 -69t90 69h33q-5 -51 -38 -79t-85 -28z" />
    <glyph glyph-name="palochkacyrillic" unicode="&#x4cf;" horiz-adv-x="240" 
d="M99 0v751h41v-751h-41z" />
    <glyph glyph-name="Abrevecyrillic" unicode="&#x4d0;" horiz-adv-x="713" 
d="M50 0l285 733h42l286 -733h-47l-79 208h-364l-79 -208h-44zM189 247h332l-166 432zM355 794q-52 0 -85.5 24.5t-38.5 69.5h36q18 -54 88 -54t88 54h36q-6 -45 -39 -69.5t-85 -24.5z" />
    <glyph glyph-name="abrevecyrillic" unicode="&#x4d1;" horiz-adv-x="534" 
d="M231 -11q-73 0 -124.5 44.5t-51.5 120.5v3q0 79 55.5 125.5t146.5 46.5q80 0 152 -25v46q0 74 -40 113t-114 39q-77 0 -143 -38l-16 35q86 42 161 42q93 0 143 -51q49 -46 49 -137v-353h-40v94q-57 -105 -178 -105zM234 26q74 0 125 48t51 115v77q-75 26 -153 26
q-74 0 -116.5 -36t-42.5 -97v-3q0 -59 39 -94.5t97 -35.5zM270 612q-53 0 -85.5 28t-37.5 79h33q19 -69 90 -69t90 69h33q-5 -51 -38 -79t-85 -28z" />
    <glyph glyph-name="Adieresiscyrillic" unicode="&#x4d2;" horiz-adv-x="713" 
d="M50 0l285 733h42l286 -733h-47l-79 208h-364l-79 -208h-44zM189 247h332l-166 432zM400 801v68h59v-68h-59zM252 801v68h59v-68h-59z" />
    <glyph glyph-name="adieresiscyrillic" unicode="&#x4d3;" horiz-adv-x="534" 
d="M231 -11q-73 0 -124.5 44.5t-51.5 120.5v3q0 79 55.5 125.5t146.5 46.5q80 0 152 -25v46q0 74 -40 113t-114 39q-77 0 -143 -38l-16 35q86 42 161 42q93 0 143 -51q49 -46 49 -137v-353h-40v94q-57 -105 -178 -105zM234 26q74 0 125 48t51 115v77q-75 26 -153 26
q-74 0 -116.5 -36t-42.5 -97v-3q0 -59 39 -94.5t97 -35.5zM311 619v69h55v-69h-55zM174 619v69h54v-69h-54z" />
    <glyph glyph-name="Aiecyrillic" unicode="&#x4d4;" horiz-adv-x="927" 
d="M22 0l373 728h462v-40h-377v-301h340v-40h-340v-307h382v-40h-425v208h-263l-107 -208h-45zM194 247h243v442h-19z" />
    <glyph glyph-name="aiecyrillic" unicode="&#x4d5;" horiz-adv-x="880" 
d="M231 -11q-73 0 -124.5 44.5t-51.5 120.5v3q0 79 55 125.5t145 46.5q74 0 146 -25q0 2 1 23t1 22q-1 75 -40.5 114t-112.5 39q-70 0 -139 -37l-16 36q82 40 157 40q150 0 179 -128q27 62 75.5 97t108.5 35q94 0 151 -77.5t57 -196.5q0 -17 -1 -21h-381q4 -102 59 -162.5
t132 -60.5q86 0 152 68l26 -28q-80 -78 -180 -78q-63 0 -113.5 32t-80.5 92q-34 -54 -86.5 -89t-118.5 -35zM441 287h339q-4 93 -48 156.5t-118 63.5q-72 0 -119.5 -61t-53.5 -159zM234 26q58 0 106.5 35t78.5 90q-17 48 -19 116q-72 25 -146 25t-115 -36t-41 -97v-3
q0 -59 37.5 -94.5t98.5 -35.5z" />
    <glyph glyph-name="Iebrevecyrillic" unicode="&#x4d6;" horiz-adv-x="604" 
d="M321 787q-52 0 -85.5 24.5t-38.5 69.5h36q18 -54 88 -54t88 54h36q-6 -45 -39 -69.5t-85 -24.5zM103 0v728h431v-40h-388v-301h350v-40h-350v-307h393v-40h-436z" />
    <glyph glyph-name="iebrevecyrillic" unicode="&#x4d7;" horiz-adv-x="543" 
d="M292 -11q-97 0 -163.5 75t-66.5 200v3q0 123 62 200.5t154 77.5q94 0 151 -77t57 -197v-21h-382q4 -102 58.5 -162.5t132.5 -60.5q85 0 152 70l25 -28q-77 -80 -180 -80zM104 287h339q-4 93 -48 156.5t-118 63.5q-71 0 -119 -61t-54 -159zM278 612q-53 0 -85.5 28
t-37.5 79h33q19 -69 90 -69t90 69h33q-5 -51 -38 -79t-85 -28z" />
    <glyph glyph-name="Schwacyrillic" unicode="&#x4d8;" horiz-adv-x="715" 
d="M121 599l-29 30q105 110 247 110q135 0 218 -102.5t83 -267.5v-5q0 -166 -80 -270.5t-207 -104.5q-129 0 -203.5 103t-74.5 270v1q0 18 1 23h520q-4 139 -73.5 226.5t-184.5 87.5q-122 0 -217 -101zM354 28q106 0 172 88.5t70 230.5h-477q2 -144 65.5 -231.5t169.5 -87.5
z" />
    <glyph glyph-name="schwacyrillic" unicode="&#x4d9;" horiz-adv-x="543" 
d="M251 545q97 0 164 -75.5t67 -199.5v-4q0 -122 -62 -199.5t-155 -77.5q-95 0 -151 76.5t-56 196.5v21h381q-4 102 -58.5 162.5t-132.5 60.5q-84 0 -151 -70l-26 28q79 81 180 81zM439 246h-339q2 -92 46.5 -155.5t119.5 -63.5q71 0 120 61.5t53 157.5z" />
    <glyph glyph-name="Zhedieresiscyrillic" unicode="&#x4dc;" horiz-adv-x="962" 
d="M525 794v68h59v-68h-59zM377 794v68h59v-68h-59zM46 728h52l262 -337h100v337h43v-337h100l262 337h52l-278 -355l290 -373h-51l-275 352h-100v-352h-43v352h-102l-274 -352h-52l291 373z" />
    <glyph glyph-name="zhedieresiscyrillic" unicode="&#x4dd;" horiz-adv-x="782" 
d="M432 619v69h55v-69h-55zM295 619v69h54v-69h-54zM412 533v-246h93l182 246h49l-197 -264l207 -269h-50l-190 250h-94v-250h-41v250h-95l-190 -250h-49l206 270l-196 263h49l182 -246h93v246h41z" />
    <glyph glyph-name="Zedieresiscyrillic" unicode="&#x4de;" horiz-adv-x="596" 
d="M334 801v68h59v-68h-59zM186 801v68h59v-68h-59zM86 619l-25 31q105 89 232 89q98 0 159.5 -52.5t61.5 -134.5v-2q0 -68 -40.5 -115.5t-109.5 -65.5q73 -15 117 -61.5t44 -114.5v-1q0 -89 -68 -146t-176 -57q-130 0 -231 79l25 33q93 -73 206 -73q87 0 143.5 45.5
t56.5 117.5v2q0 74 -55 114.5t-155 40.5h-96v39h95q88 0 143.5 42t55.5 119v2q0 67 -48.5 108.5t-128.5 41.5q-112 0 -206 -81z" />
    <glyph glyph-name="zedieresiscyrillic" unicode="&#x4df;" horiz-adv-x="500" 
d="M286 619v69h55v-69h-55zM149 619v69h54v-69h-54zM46 51l22 32q75 -56 168 -56q72 0 114.5 31t42.5 83v1q0 53 -42 81.5t-118 28.5h-91v37h91q69 0 109.5 30.5t40.5 81.5v1q0 48 -37 76.5t-102 28.5q-90 0 -170 -61l-21 32q92 67 191 67q84 0 132 -39t48 -103v-2
q0 -52 -33 -85t-80 -44q56 -11 90.5 -44t34.5 -87v-1q0 -66 -54 -108.5t-146 -42.5q-107 0 -190 62z" />
    <glyph glyph-name="Imacroncyrillic" unicode="&#x4e2;" horiz-adv-x="720" 
d="M223 806v40h273v-40h-273zM617 0h-43v658l-434 -658h-37v728h43v-648l427 648h44v-728z" />
    <glyph glyph-name="imacroncyrillic" unicode="&#x4e3;" horiz-adv-x="587" 
d="M164 633v38h257v-38h-257zM94 0v533h39v-466l320 466h41v-533h-40v468l-321 -468h-39z" />
    <glyph glyph-name="Idieresiscyrillic" unicode="&#x4e4;" horiz-adv-x="720" 
d="M405 790v68h59v-68h-59zM257 790v68h59v-68h-59zM617 0h-43v658l-434 -658h-37v728h43v-648l427 648h44v-728z" />
    <glyph glyph-name="idieresiscyrillic" unicode="&#x4e5;" horiz-adv-x="587" 
d="M334 618v69h55v-69h-55zM197 618v69h54v-69h-54zM94 0v533h39v-466l320 466h41v-533h-40v468l-321 -468h-39z" />
    <glyph glyph-name="Odieresiscyrillic" unicode="&#x4e6;" horiz-adv-x="759" 
d="M423 801v68h59v-68h-59zM275 801v68h59v-68h-59zM379 -11q-134 0 -219 105t-85 266v7q0 161 85 266.5t220 105.5q134 0 219 -105t85 -266v-7q0 -161 -85 -266.5t-220 -105.5zM380 28q113 0 186.5 94.5t73.5 237.5v7q0 142 -74 237.5t-187 95.5q-114 0 -187 -94.5
t-73 -237.5v-7q0 -142 74 -237.5t187 -95.5z" />
    <glyph glyph-name="odieresiscyrillic" unicode="&#x4e7;" horiz-adv-x="586" 
d="M334 619v69h55v-69h-55zM197 619v69h54v-69h-54zM293 -11q-100 0 -165.5 78.5t-65.5 196.5v4q0 117 66 197t166 80q99 0 165 -79t66 -197v-4q0 -117 -66 -196.5t-166 -79.5zM294 27q81 0 135 68t54 169v4q0 101 -55 169.5t-135 68.5q-81 0 -134.5 -68t-53.5 -169v-4
q0 -102 54.5 -170t134.5 -68z" />
    <glyph glyph-name="Obarredcyrillic" unicode="&#x4e8;" horiz-adv-x="758" 
d="M378 -11q-134 0 -218.5 105t-84.5 266v6q0 161 85 267t219 106t219 -105t85 -266v-6q0 -161 -85.5 -267t-219.5 -106zM379 28q111 0 184 90t77 229h-522q4 -139 77 -229t184 -90zM378 700q-110 0 -182 -88.5t-78 -225.5h521q-6 137 -79 225.5t-182 88.5z" />
    <glyph glyph-name="obarredcyrillic" unicode="&#x4e9;" horiz-adv-x="587" 
d="M293 -11q-99 0 -165 79t-66 196v4q0 117 66.5 197t165.5 80t165 -79t66 -197v-4q0 -117 -66 -196.5t-166 -79.5zM294 27q78 0 132 64t58 160h-380q4 -96 58 -160t132 -64zM293 506q-78 0 -130.5 -62t-58.5 -156h379q-6 94 -60.5 156t-129.5 62z" />
    <glyph glyph-name="Umacroncyrillic" unicode="&#x4ee;" horiz-adv-x="631" 
d="M189 806v40h273v-40h-273zM230 0h-47l126 246l-267 482h49l241 -441l217 441h47z" />
    <glyph glyph-name="umacroncyrillic" unicode="&#x4ef;" 
d="M280 53l170 480h43l-197 -541q-31 -85 -66 -118t-87 -33q-45 0 -86 22l15 37q32 -21 72 -21q37 0 63 26t53 96l-213 532h45zM144 633v38h257v-38h-257z" />
    <glyph glyph-name="Udieresiscyrillic" unicode="&#x4f0;" horiz-adv-x="631" 
d="M370 790v68h59v-68h-59zM222 790v68h59v-68h-59zM230 0h-47l126 246l-267 482h49l241 -441l217 441h47z" />
    <glyph glyph-name="udieresiscyrillic" unicode="&#x4f1;" 
d="M280 53l170 480h43l-197 -541q-31 -85 -66 -118t-87 -33q-45 0 -86 22l15 37q32 -21 72 -21q37 0 63 26t53 96l-213 532h45zM314 618v69h55v-69h-55zM177 618v69h54v-69h-54z" />
    <glyph glyph-name="Uhungarumlautcyrillic" unicode="&#x4f2;" horiz-adv-x="631" 
d="M230 0h-47l126 246l-267 482h49l241 -441l217 441h47zM239 783l87 114l47 -23l-100 -91h-34zM362 783l87 114l48 -23l-101 -91h-34z" />
    <glyph glyph-name="uhungarumlautcyrillic" unicode="&#x4f3;" 
d="M280 53l170 480h43l-197 -541q-31 -85 -66 -118t-87 -33q-45 0 -86 22l15 37q32 -21 72 -21q37 0 63 26t53 96l-213 532h45zM308 611l83 131l44 -23l-96 -108h-31zM190 611l84 131l45 -23l-97 -108h-32z" />
    <glyph glyph-name="Chedieresiscyrillic" unicode="&#x4f4;" horiz-adv-x="643" 
d="M497 0v306q-92 -26 -185 -26q-117 0 -174.5 51.5t-57.5 163.5v233h42v-225q0 -98 46.5 -141t147.5 -43q93 0 181 28v381h43v-728h-43zM354 790v68h59v-68h-59zM206 790v68h59v-68h-59z" />
    <glyph glyph-name="chedieresiscyrillic" unicode="&#x4f5;" horiz-adv-x="543" 
d="M307 618v69h55v-69h-55zM170 618v69h54v-69h-54zM410 0v207q-78 -20 -147 -20q-95 0 -141.5 41t-46.5 132v173h41v-170q0 -74 35.5 -106t114.5 -32q66 0 144 20v288h40v-533h-40z" />
    <glyph glyph-name="Yerudieresiscyrillic" unicode="&#x4f8;" horiz-adv-x="837" 
d="M103 0v728h43v-280h165q115 0 183.5 -59t68.5 -161v-2q0 -105 -73.5 -165.5t-188.5 -60.5h-198zM146 40h157q99 0 158 49t59 135v2q0 86 -57 134t-155 48h-162v-368zM691 0v728h43v-728h-43zM463 790v68h59v-68h-59zM315 790v68h59v-68h-59z" />
    <glyph glyph-name="yerudieresiscyrillic" unicode="&#x4f9;" horiz-adv-x="704" 
d="M391 618v69h55v-69h-55zM254 618v69h54v-69h-54zM134 533v-193h138q94 0 147.5 -45.5t53.5 -121.5v-3q0 -78 -54 -124t-148 -46h-177v533h40zM134 303v-266h138q77 0 118 35.5t41 97.5v2q0 61 -41 96t-118 35h-138zM570 0v533h41v-533h-41z" />
    <glyph glyph-name="Wgrave" unicode="&#x1e80;" horiz-adv-x="989" 
d="M511 787h-34l-101 91l47 23zM271 -5l-216 733h47l190 -658l186 660h35l187 -660l190 658h44l-216 -733h-37l-187 650l-186 -650h-37z" />
    <glyph glyph-name="wgrave" unicode="&#x1e81;" horiz-adv-x="785" 
d="M219 -4l-165 537h45l137 -475l140 477h34l140 -477l138 475h42l-164 -537h-35l-138 467l-139 -467h-35zM378 612l-101 106l48 25l83 -131h-30z" />
    <glyph glyph-name="Wacute" unicode="&#x1e82;" horiz-adv-x="989" 
d="M476 787l88 114l47 -23l-101 -91h-34zM271 -5l-216 733h47l190 -658l186 660h35l187 -660l190 658h44l-216 -733h-37l-187 650l-186 -650h-37z" />
    <glyph glyph-name="wacute" unicode="&#x1e83;" horiz-adv-x="785" 
d="M374 612l83 131l48 -25l-100 -106h-31zM219 -4l-165 537h45l137 -475l140 477h34l140 -477l138 475h42l-164 -537h-35l-138 467l-139 -467h-35z" />
    <glyph glyph-name="Wdieresis" unicode="&#x1e84;" horiz-adv-x="989" 
d="M538 794v68h59v-68h-59zM390 794v68h59v-68h-59zM271 -5l-216 733h47l190 -658l186 660h35l187 -660l190 658h44l-216 -733h-37l-187 650l-186 -650h-37z" />
    <glyph glyph-name="wdieresis" unicode="&#x1e85;" horiz-adv-x="785" 
d="M433 619v69h55v-69h-55zM296 619v69h54v-69h-54zM219 -4l-165 537h45l137 -475l140 477h34l140 -477l138 475h42l-164 -537h-35l-138 467l-139 -467h-35z" />
    <glyph glyph-name="Ygrave" unicode="&#x1ef2;" horiz-adv-x="634" 
d="M295 0v300l-261 428h50l233 -387l233 387h49l-261 -427v-301h-43zM335 783h-34l-101 91l47 23z" />
    <glyph glyph-name="ygrave" unicode="&#x1ef3;" 
d="M280 53l170 480h43l-197 -541q-31 -85 -66 -118t-87 -33q-45 0 -86 22l15 37q32 -21 72 -21q37 0 63 26t53 96l-213 532h45zM261 611l-101 106l48 25l83 -131h-30z" />
    <glyph glyph-name="enspace" unicode="&#x2002;" horiz-adv-x="500" 
 />
    <glyph glyph-name="emspace" unicode="&#x2003;" horiz-adv-x="1000" 
 />
    <glyph glyph-name="threeperemspace" unicode="&#x2004;" horiz-adv-x="333" 
 />
    <glyph glyph-name="fourperemspace" unicode="&#x2005;" horiz-adv-x="250" 
 />
    <glyph glyph-name="thinspace" unicode="&#x2009;" horiz-adv-x="122" 
 />
    <glyph glyph-name="hairspace" unicode="&#x200a;" horiz-adv-x="67" 
 />
    <glyph glyph-name="endash" unicode="&#x2013;" horiz-adv-x="529" 
d="M73 288v41h382v-41h-382z" />
    <glyph glyph-name="emdash" unicode="&#x2014;" horiz-adv-x="849" 
d="M73 288v41h703v-41h-703z" />
    <glyph glyph-name="quoteleft" unicode="&#x2018;" horiz-adv-x="214" 
d="M75 553v69q0 45 15.5 69.5t54.5 40.5l11 -22q-52 -27 -48 -79h25v-78h-58z" />
    <glyph glyph-name="quoteright" unicode="&#x2019;" horiz-adv-x="214" 
d="M69 551l-11 22q28 13 38.5 31t8.5 47h-24v77h57v-68q0 -46 -15.5 -70t-53.5 -39z" />
    <glyph glyph-name="quotesinglbase" unicode="&#x201a;" horiz-adv-x="214" 
d="M66 -100l-11 22q28 14 38.5 31.5t8.5 46.5h-24v77h57v-68q0 -45 -15.5 -69t-53.5 -40z" />
    <glyph glyph-name="quotedblleft" unicode="&#x201c;" horiz-adv-x="362" 
d="M222 553v69q0 45 15.5 69.5t54.5 40.5l11 -22q-27 -14 -38 -32t-9 -47h24v-78h-58zM75 553v69q0 45 15.5 69.5t54.5 40.5l11 -22q-52 -27 -48 -79h25v-78h-58z" />
    <glyph glyph-name="quotedblright" unicode="&#x201d;" horiz-adv-x="362" 
d="M216 551l-10 22q51 24 47 78h-25v77h58v-68q0 -45 -15.5 -69.5t-54.5 -39.5zM69 551l-11 22q28 13 38.5 31t8.5 47h-24v77h57v-68q0 -46 -15.5 -70t-53.5 -39z" />
    <glyph glyph-name="quotedblbase" unicode="&#x201e;" horiz-adv-x="362" 
d="M214 -100l-11 22q28 15 38.5 32t8.5 46h-25v77h58v-68q0 -44 -16 -68.5t-53 -40.5zM66 -100l-11 22q28 14 38.5 31.5t8.5 46.5h-24v77h57v-68q0 -45 -15.5 -69t-53.5 -40z" />
    <glyph glyph-name="dagger" unicode="&#x2020;" horiz-adv-x="385" 
d="M173 248l6 301l-116 -8v40l116 -8l-8 155h44l-8 -155l116 8v-40l-116 8l6 -301h-40z" />
    <glyph glyph-name="daggerdbl" unicode="&#x2021;" horiz-adv-x="401" 
d="M179 0l8 155l-116 -8v40l116 -8l-6 185l6 185l-116 -8v40l116 -8l-8 155h43l-7 -155l116 8v-40l-117 8l7 -185l-7 -185l117 8v-40l-116 8l7 -155h-43z" />
    <glyph glyph-name="bullet" unicode="&#x2022;" horiz-adv-x="449" 
d="M224 249q-46 0 -78 32.5t-32 82.5v6q0 50 32 82.5t78 32.5q45 0 77.5 -32.5t32.5 -82.5v-6q0 -50 -32 -82.5t-78 -32.5z" />
    <glyph glyph-name="ellipsis" unicode="&#x2026;" horiz-adv-x="604" 
d="M469 0v77h57v-77h-57zM273 0v77h58v-77h-58zM78 0v77h57v-77h-57z" />
    <glyph glyph-name="perthousand" unicode="&#x2030;" horiz-adv-x="1114" 
d="M203 407q45 0 73 40t28 103v4q0 63 -29.5 104t-73.5 41t-72.5 -41t-28.5 -102v-4q0 -63 29.5 -104t73.5 -41zM201 371q-62 0 -102 51.5t-40 127.5v5q0 77 40.5 128.5t103.5 51.5q62 0 102 -51.5t40 -127.5v-4q0 -77 -40.5 -129t-103.5 -52zM638 728l-242 -374l-227 -354
h-42l241 372l228 356h42zM565 29q45 0 73 40t28 103v4q0 63 -29.5 104t-73.5 41t-72.5 -41t-28.5 -102v-4q0 -63 29.5 -104t73.5 -41zM563 -7q-62 0 -102 51.5t-40 127.5v4q0 77 40.5 129t103.5 52q62 0 102 -52t40 -127v-5q0 -77 -40.5 -128.5t-103.5 -51.5zM914 29
q45 0 73 40.5t28 102.5v4q0 64 -29 104.5t-73 40.5q-45 0 -74 -41t-29 -102v-4q0 -63 29.5 -104t74.5 -41zM913 -7q-62 0 -102.5 51.5t-40.5 127.5v4q0 77 40.5 129t103.5 52q62 0 102 -52t40 -127v-5q0 -77 -40.5 -128.5t-102.5 -51.5z" />
    <glyph glyph-name="guilsinglleft" unicode="&#x2039;" horiz-adv-x="306" 
d="M211 45l-157 216v8l157 216l30 -19l-138 -200l138 -202z" />
    <glyph glyph-name="guilsinglright" unicode="&#x203a;" horiz-adv-x="306" 
d="M96 45l-30 19l139 200l-139 202l30 19l156 -216v-8z" />
    <glyph glyph-name="Euro" unicode="&#x20ac;" horiz-adv-x="652" 
d="M590 628l-31 -24q-35 47 -74.5 71t-93.5 24q-75 0 -130.5 -61.5t-76.5 -162.5h262v-38h-268q-4 -31 -4 -71v-5q0 -32 3 -61h269v-39h-264q20 -107 77.5 -169.5t137.5 -62.5q95 0 165 102l30 -23q-82 -118 -197 -118q-97 0 -166 73t-89 198h-86v39h80q-2 13 -2 60v6
q0 40 4 71h-82v38h88q23 116 90 189.5t160 73.5q118 0 198 -110z" />
    <glyph glyph-name="hryvnia" unicode="&#x20b4;" horiz-adv-x="579" 
d="M67 452l5 34l285 -36q47 44 65.5 75t17.5 65q0 51 -36.5 80.5t-96.5 29.5q-93 0 -174 -73l-25 32q87 80 199 80q84 0 130.5 -42t46.5 -108q0 -38 -19 -71.5t-60 -73.5l131 -17l-5 -34l-161 20l-109 -96l255 -32l-4 -34l-286 36q-49 -44 -67.5 -77t-17.5 -67
q0 -57 39.5 -86t102.5 -29q99 0 188 76l26 -32q-98 -83 -215 -83q-91 0 -138.5 42t-47.5 111q0 74 81 151l-129 17l5 34l159 -21l110 96z" />
    <glyph glyph-name="numero" unicode="&#x2116;" horiz-adv-x="1017" 
d="M92 0v728h43l356 -639v639h40v-728h-37l-362 651v-651h-40zM794 299q-70 0 -113 59.5t-43 153.5v7q0 94 43.5 153.5t113.5 59.5t114 -59.5t44 -152.5v-7q0 -93 -45 -153.5t-114 -60.5zM795 334q53 0 86.5 50.5t33.5 127.5v7q0 76 -33.5 126.5t-86.5 50.5t-86 -50
t-33 -126v-7q0 -78 33 -128.5t86 -50.5zM641 172v36h309v-36h-309z" />
    <glyph glyph-name="published" unicode="&#x2117;" horiz-adv-x="784" 
d="M391 -12q-142 0 -238.5 107.5t-96.5 261.5v14q0 153 97 261t240 108q142 0 238 -108t96 -261v-13q0 -153 -96.5 -261.5t-239.5 -108.5zM391 13q133 0 221.5 101t88.5 244v13q0 143 -88 243.5t-220 100.5q-133 0 -221.5 -101t-88.5 -243v-14q0 -143 88 -243.5t220 -100.5z
M288 177v386h116q63 0 100 -32t37 -89v-2q0 -59 -40 -92.5t-102 -33.5h-75v-137h-36zM324 348h76q48 0 76.5 24t28.5 66v2q0 44 -27.5 67t-75.5 23h-78v-182z" />
    <glyph glyph-name="servicemark" unicode="&#x2120;" horiz-adv-x="654" 
d="M325 406v322h33l105 -186l105 186h31v-322h-29v268l-106 -187h-4l-106 187v-268h-29zM154 401q-63 0 -112 46l18 22q44 -42 95 -42q31 0 50.5 16t19.5 42q0 24 -16 39t-61 32q-51 20 -72.5 39.5t-21.5 53.5q0 36 28 60t70 24q55 0 99 -36l-18 -23q-38 32 -82 32
q-30 0 -48 -15.5t-18 -39.5q0 -23 16 -37.5t61 -31.5q50 -19 71.5 -40.5t21.5 -54.5q0 -38 -29 -62t-72 -24z" />
    <glyph glyph-name="trademark" unicode="&#x2122;" horiz-adv-x="631" 
d="M302 406v322h32l105 -186l105 186h31v-322h-28v268l-106 -187h-5l-105 187v-268h-29zM119 406v293h-90v29h210v-29h-90v-293h-30z" />
    <glyph glyph-name="Omega" unicode="&#x2126;" horiz-adv-x="775" 
d="M388 739q135 0 217 -92t82 -240v-1q0 -203 -181 -368l201 2v-40h-257v36q93 80 143 169t50 200v2q0 132 -70.5 212.5t-185.5 80.5q-116 0 -185.5 -80.5t-69.5 -212.5v-2q0 -203 193 -369v-36h-256v40l199 -2q-180 164 -180 368v1q0 147 82.5 239.5t217.5 92.5z" />
    <glyph glyph-name="Delta" unicode="&#x2206;" horiz-adv-x="711" 
d="M58 0l-5 32l282 701h42l281 -701l-5 -32h-595zM355 678l-254 -638h507z" />
    <glyph glyph-name="minus" unicode="&#x2212;" horiz-adv-x="569" 
d="M500 346h-431v40h431v-40z" />
    <glyph glyph-name="iu.bgr" unicode="&#xe002;" horiz-adv-x="779" 
d="M491 -11q-96 0 -159 75t-67 187h-131v-251h-40v751h40v-463h131q6 110 69 183.5t157 73.5q99 0 162.5 -79t63.5 -197v-4q0 -117 -64.5 -196.5t-161.5 -79.5zM492 27q79 0 130.5 68.5t51.5 168.5v4q0 100 -52.5 169t-130.5 69q-80 0 -132 -68t-52 -169v-4
q0 -101 52.5 -169.5t132.5 -68.5z" />
    <glyph glyph-name="circumflex.cap" unicode="&#xe003;" 
d="M154 789l98 106h37l98 -106h-43l-74 67l-74 -67h-42z" />
    <glyph glyph-name="Xi.alt" unicode="&#xe004;" horiz-adv-x="674" 
d="M610 40v-40h-545v40h251v307h-222v40h222v301h-247v40h537v-40h-247v-301h222v-40h-222v-307h251z" />
    <glyph glyph-name="dieresis.cap" unicode="&#xe005;" 
d="M315 794v68h59v-68h-59zM167 794v68h59v-68h-59z" />
    <glyph glyph-name="acute.cap" unicode="&#xe006;" 
d="M213 787l88 114l47 -23l-101 -91h-34z" />
    <glyph glyph-name="caron.alt" unicode="&#xe007;" 
d="M231 597l14 155h47v-3l-39 -152h-22z" />
    <glyph glyph-name="ring.cap" unicode="&#xe009;" 
d="M271 787q-43 0 -71.5 26t-28.5 64t29 64t71 26t70.5 -26t28.5 -64t-29.5 -64t-69.5 -26zM271 814q29 0 48.5 18t19.5 45t-19.5 45t-48.5 18t-49 -18t-20 -45t20 -45t49 -18z" />
    <glyph glyph-name="a.alt" unicode="&#xe00d;" horiz-adv-x="605" 
d="M282 -11q-90 0 -154 75.5t-64 198.5v7q0 123 64 199t154 76q66 0 114.5 -38.5t75.5 -96.5v123h40v-533h-40v126q-67 -137 -190 -137zM286 27q77 0 132.5 67t55.5 169v8q0 102 -55.5 168.5t-132.5 66.5q-78 0 -128.5 -64.5t-50.5 -170.5v-7q0 -105 51.5 -171t127.5 -66z
" />
    <glyph glyph-name="ii.bgr" unicode="&#xe010;" horiz-adv-x="572" 
d="M268 -11q-86 0 -134.5 54.5t-48.5 150.5v339h40v-329q0 -84 39 -131t111 -47q68 0 115.5 52t47.5 131v324h40v-533h-40v103q-52 -114 -170 -114z" />
    <glyph glyph-name="aacute.alt" unicode="&#xe015;" horiz-adv-x="605" 
d="M288 612l83 131l48 -25l-100 -106h-31zM282 -11q-90 0 -154 75.5t-64 198.5v7q0 123 64 199t154 76q66 0 114.5 -38.5t75.5 -96.5v123h40v-533h-40v126q-67 -137 -190 -137zM286 27q77 0 132.5 67t55.5 169v8q0 102 -55.5 168.5t-132.5 66.5q-78 0 -128.5 -64.5
t-50.5 -170.5v-7q0 -105 51.5 -171t127.5 -66z" />
    <glyph glyph-name="ogonek.cap" unicode="&#xe016;" 
d="M333 -122v-30q-3 -1 -6 -1q-104 5 -104 69q0 46 65 96l27 -10q-52 -48 -52 -79q0 -41 70 -45z" />
    <glyph glyph-name="dotaccent.cap" unicode="&#xe019;" 
d="M240 794v68h61v-68h-61z" />
    <glyph glyph-name="i.dot" unicode="&#xe01a;" horiz-adv-x="240" 
d="M95 668v67h50v-67h-50zM99 0v533h41v-533h-41z" />
    <glyph glyph-name="aringacute.alt2" unicode="&#xe01b;" horiz-adv-x="534" 
d="M231 -11q-73 0 -124.5 44.5t-51.5 120.5v3q0 79 55.5 125.5t146.5 46.5q80 0 152 -25v46q0 74 -40 113t-114 39q-77 0 -143 -38l-16 35q57 28 110 37q-36 27 -36 74q0 38 28.5 66t68.5 28t68.5 -28t28.5 -66q0 -50 -41 -77q46 -12 78 -43q48 -48 48 -137v-353h-40v94
q-57 -105 -178 -105zM234 26q74 0 125 48t51 115v77q-75 26 -153 26q-74 0 -116.5 -36t-42.5 -97v-3q0 -59 39 -94.5t97 -35.5zM267 540q29 0 48.5 20.5t19.5 49.5t-19.5 48.5t-48.5 19.5t-48 -19.5t-19 -48.5t19.5 -49.5t47.5 -20.5zM249 738l84 110l46 -24l-97 -86h-33z
" />
    <glyph glyph-name="aogonek.alt" unicode="&#xe01f;" horiz-adv-x="605" 
d="M527 -122v-30q-3 -1 -6 -1q-104 5 -104 69q0 45 55 88v12v110q-67 -137 -190 -137q-90 0 -154 75.5t-64 198.5v7q0 123 64 199t154 76q66 0 114.5 -38.5t75.5 -96.5v123h40v-533h-6q-49 -45 -49 -77q0 -41 70 -45zM286 27q77 0 132.5 67t55.5 169v8q0 102 -55.5 168.5
t-132.5 66.5q-78 0 -128.5 -64.5t-50.5 -170.5v-7q0 -105 51.5 -171t127.5 -66z" />
    <glyph glyph-name="acircumflex.alt" unicode="&#xe022;" horiz-adv-x="605" 
d="M196 614l93 125h33l93 -125h-36l-74 80l-74 -80h-35zM282 -11q-90 0 -154 75.5t-64 198.5v7q0 123 64 199t154 76q66 0 114.5 -38.5t75.5 -96.5v123h40v-533h-40v126q-67 -137 -190 -137zM286 27q77 0 132.5 67t55.5 169v8q0 102 -55.5 168.5t-132.5 66.5
q-78 0 -128.5 -64.5t-50.5 -170.5v-7q0 -105 51.5 -171t127.5 -66z" />
    <glyph glyph-name="registered.alt" unicode="&#xe023;" horiz-adv-x="784" 
d="M391 -12q-142 0 -238.5 107.5t-96.5 261.5v14q0 153 97 261t240 108q142 0 238 -108t96 -261v-13q0 -153 -96.5 -261.5t-239.5 -108.5zM391 13q133 0 221.5 101t88.5 244v13q0 143 -88 243.5t-220 100.5q-133 0 -221.5 -101t-88.5 -243v-14q0 -143 88 -243.5t220 -100.5z
M271 180v387h132q67 0 104 -37q29 -32 29 -75v-2q0 -88 -94 -110l110 -163h-45l-103 156h-98v-156h-35zM306 369h94q45 0 72 21.5t27 60.5v2q0 38 -26 58.5t-71 20.5h-96v-163z" />
    <glyph glyph-name="agrave.alt" unicode="&#xe027;" horiz-adv-x="605" 
d="M282 -11q-90 0 -154 75.5t-64 198.5v7q0 123 64 199t154 76q66 0 114.5 -38.5t75.5 -96.5v123h40v-533h-40v126q-67 -137 -190 -137zM286 27q77 0 132.5 67t55.5 169v8q0 102 -55.5 168.5t-132.5 66.5q-78 0 -128.5 -64.5t-50.5 -170.5v-7q0 -105 51.5 -171t127.5 -66z
M295 612l-101 106l48 25l83 -131h-30z" />
    <glyph glyph-name="caron.cap" unicode="&#xe028;" 
d="M387 895l-98 -106h-37l-98 106h43l74 -67l74 67h42z" />
    <glyph glyph-name="acute.altuc" unicode="&#xe02a;" 
d="M204 899l86 99l46 -23l-96 -76h-36z" />
    <glyph glyph-name="macron.cap" unicode="&#xe02b;" 
d="M134 810v40h273v-40h-273z" />
    <glyph glyph-name="descendercyrillic" unicode="&#xe02c;" 
d="M251 -134v147h39v-147h-39z" />
    <glyph glyph-name="Ef.bgr" unicode="&#xe02d;" horiz-adv-x="853" 
d="M405 -102v99q-150 4 -241 105.5t-91 259.5v3q0 155 91.5 257.5t240.5 108.5v98h42v-98q148 -4 240 -107t92 -258v-3q0 -155 -92 -258.5t-240 -107.5v-99h-42zM117 366v-3q0 -141 80.5 -232.5t207.5 -95.5v657q-128 -4 -208 -94.5t-80 -231.5zM735 362v3
q0 140 -80.5 230.5t-207.5 96.5v-657q129 6 208.5 95.5t79.5 231.5z" />
    <glyph glyph-name="tse.bgr" unicode="&#xe02e;" horiz-adv-x="581" 
d="M268 -11q-86 0 -134.5 54.5t-48.5 150.5v339h40v-329q0 -84 39 -131t111 -47q68 0 115.5 52t47.5 131v324h40v-496h49v-171h-38v134h-51v103q-52 -114 -170 -114z" />
    <glyph glyph-name="iibreve.bgr" unicode="&#xe031;" horiz-adv-x="572" 
d="M268 -11q-86 0 -134.5 54.5t-48.5 150.5v339h40v-329q0 -84 39 -131t111 -47q68 0 115.5 52t47.5 131v324h40v-533h-40v103q-52 -114 -170 -114zM281 610q-53 0 -85.5 28t-37.5 79h33q19 -69 90 -69t90 69h33q-5 -51 -38 -79t-85 -28z" />
    <glyph glyph-name="te.bgr" unicode="&#xe032;" horiz-adv-x="876" 
d="M94 0v533h40v-98q20 47 59.5 78.5t95.5 31.5q59 0 99 -31.5t59 -84.5q22 50 64 83t103 33q80 0 127 -54t47 -151v-340h-40v332q0 86 -36.5 131t-101.5 45q-62 0 -105.5 -49.5t-43.5 -130.5v-328h-41v334q0 84 -36.5 129t-100.5 45q-62 0 -105.5 -51.5t-43.5 -128.5v-328
h-40z" />
    <glyph glyph-name="atilde.alt" unicode="&#xe036;" horiz-adv-x="605" 
d="M282 -11q-90 0 -154 75.5t-64 198.5v7q0 123 64 199t154 76q66 0 114.5 -38.5t75.5 -96.5v123h40v-533h-40v126q-67 -137 -190 -137zM286 27q77 0 132.5 67t55.5 169v8q0 102 -55.5 168.5t-132.5 66.5q-78 0 -128.5 -64.5t-50.5 -170.5v-7q0 -105 51.5 -171t127.5 -66z
M366 616q-24 0 -62 25q-34 24 -55 24q-16 0 -26 -12t-20 -41l-29 7q12 47 30 67t45 20q21 0 63 -26q37 -23 54 -23q16 0 26 12t20 41l29 -7q-22 -87 -75 -87z" />
    <glyph glyph-name="grave.cap" unicode="&#xe037;" 
d="M328 787h-34l-101 91l47 23z" />
    <glyph glyph-name="shcha.bgr" unicode="&#xe03b;" horiz-adv-x="886" 
d="M794 -134v134h-51v98q-52 -109 -156 -109q-115 0 -157 116q-22 -50 -64 -83t-103 -33q-81 0 -128 54.5t-47 150.5v339h40v-335q0 -83 37 -127.5t101 -44.5q62 0 105.5 49.5t43.5 128.5v329h40v-336q0 -81 37 -126t101 -45q62 0 106 51.5t44 128.5v327h40v-496h49v-171
h-38z" />
    <glyph glyph-name="be.srb" unicode="&#xe03e;" horiz-adv-x="579" 
d="M468 751v-37h-247q-58 0 -58 -41q0 -17 12 -31t43 -35l169 -115q130 -93 130 -238v-2q0 -113 -64 -188t-165 -75q-100 0 -163.5 73.5t-63.5 185.5v2q0 115 68.5 188.5t173.5 65.5l-109 77q-41 28 -56.5 48.5t-15.5 47.5q0 33 25.5 53.5t74.5 20.5h246zM288 27
q84 0 135 63t51 162v2q0 94 -52 156t-132 62q-83 0 -134.5 -62.5t-51.5 -159.5v-2q0 -97 51.5 -159t132.5 -62z" />
    <glyph glyph-name="ge.bgr" unicode="&#xe03f;" horiz-adv-x="468" 
d="M223 -9q-77 0 -119 34.5t-42 95.5v2q0 53 37 88t127 77q84 40 112.5 66.5t28.5 62.5v1q0 39 -28 62.5t-81 23.5q-84 0 -162 -57l-21 32q87 63 183 63q71 0 111 -34t40 -89v-2q0 -50 -37 -85t-129 -76q-78 -35 -108.5 -63.5t-30.5 -69.5v-1q0 -45 32 -69t89 -24
q91 0 174 67l23 -32q-95 -73 -199 -73z" />
    <glyph glyph-name="three.alt" unicode="&#xe041;" horiz-adv-x="539" 
d="M255 -11q-133 0 -214 102l32 28q74 -91 184 -91q76 0 125.5 45t49.5 119v2q0 75 -54.5 116.5t-151.5 41.5h-48v38h49q85 0 138.5 45t53.5 116v2q0 64 -45 105.5t-116 41.5q-102 0 -172 -90l-30 23q79 106 203 106q90 0 146.5 -52.5t56.5 -130.5v-2q0 -70 -39.5 -114.5
t-101.5 -64.5q70 -17 113 -63.5t43 -117.5v-2q0 -86 -63.5 -144.5t-158.5 -58.5z" />
    <glyph glyph-name="aringacute.alt" unicode="&#xe042;" horiz-adv-x="605" 
d="M306 612q-40 0 -68.5 28t-28.5 67q0 38 28.5 66t68.5 28t68.5 -28t28.5 -66q0 -39 -28.5 -67t-68.5 -28zM306 638q29 0 48 20t19 49t-19 48.5t-48 19.5t-48.5 -19.5t-19.5 -48.5t19.5 -49t48.5 -20zM282 -11q-90 0 -154 75.5t-64 198.5v7q0 123 64 199t154 76
q66 0 114.5 -38.5t75.5 -96.5v123h40v-533h-40v126q-67 -137 -190 -137zM286 27q77 0 132.5 67t55.5 169v8q0 102 -55.5 168.5t-132.5 66.5q-78 0 -128.5 -64.5t-50.5 -170.5v-7q0 -105 51.5 -171t127.5 -66zM287 833l84 110l46 -24l-97 -86h-33z" />
    <glyph glyph-name="Q.alt" unicode="&#xe045;" horiz-adv-x="759" 
d="M651 -102l-129 130q-64 -39 -143 -39q-134 0 -219 105t-85 266v7q0 161 85 266.5t220 105.5q134 0 219 -105t85 -266v-7q0 -202 -126 -308l150 -153v-2h-57zM380 28q113 0 186.5 94.5t73.5 237.5v7q0 142 -74 237.5t-187 95.5q-114 0 -187 -94.5t-73 -237.5v-7
q0 -142 74 -237.5t187 -95.5z" />
    <glyph glyph-name="adieresis.alt" unicode="&#xe049;" horiz-adv-x="605" 
d="M347 619v69h55v-69h-55zM210 619v69h54v-69h-54zM282 -11q-90 0 -154 75.5t-64 198.5v7q0 123 64 199t154 76q66 0 114.5 -38.5t75.5 -96.5v123h40v-533h-40v126q-67 -137 -190 -137zM286 27q77 0 132.5 67t55.5 169v8q0 102 -55.5 168.5t-132.5 66.5q-78 0 -128.5 -64.5
t-50.5 -170.5v-7q0 -105 51.5 -171t127.5 -66z" />
    <glyph glyph-name="tilde.cap" unicode="&#xe054;" 
d="M332 791q-28 0 -66 24q-36 19 -54 19q-17 0 -27 -10t-20 -37l-30 7q24 81 74 81q23 0 67 -24q36 -19 53 -19q16 0 26 10t21 36l30 -7q-23 -80 -74 -80z" />
    <glyph glyph-name="caron.alt.cap" unicode="&#xe05a;" 
d="M231 597l14 155h47v-3l-39 -152h-22z" />
    <glyph glyph-name="commaaccent.rot" unicode="&#xe05b;" horiz-adv-x="504" 
d="M270 714l7 -13q-24 -13 -25 -48h16v-48h-33v31q0 61 35 78z" />
    <glyph glyph-name="aring.alt" unicode="&#xe05c;" horiz-adv-x="605" 
d="M306 612q-40 0 -68.5 28t-28.5 67q0 38 28.5 66t68.5 28t68.5 -28t28.5 -66q0 -39 -28.5 -67t-68.5 -28zM306 638q29 0 48 20t19 49t-19 48.5t-48 19.5t-48.5 -19.5t-19.5 -48.5t19.5 -49t48.5 -20zM282 -11q-90 0 -154 75.5t-64 198.5v7q0 123 64 199t154 76
q66 0 114.5 -38.5t75.5 -96.5v123h40v-533h-40v126q-67 -137 -190 -137zM286 27q77 0 132.5 67t55.5 169v8q0 102 -55.5 168.5t-132.5 66.5q-78 0 -128.5 -64.5t-50.5 -170.5v-7q0 -105 51.5 -171t127.5 -66z" />
    <glyph glyph-name="sha.bgr" unicode="&#xe05d;" horiz-adv-x="876" 
d="M783 533v-533h-40v98q-52 -109 -156 -109q-115 0 -157 116q-22 -50 -64 -83t-103 -33q-81 0 -128 54.5t-47 150.5v339h40v-335q0 -83 37 -127.5t101 -44.5q62 0 105.5 49.5t43.5 128.5v329h40v-336q0 -81 37 -126t101 -45q62 0 106 51.5t44 128.5v327h40z" />
    <glyph glyph-name="ve.bgr" unicode="&#xe060;" horiz-adv-x="584" 
d="M84 237v284q0 111 57.5 173.5t156.5 62.5q91 0 146.5 -52.5t55.5 -136.5v-1q0 -75 -44.5 -125t-113.5 -64q81 -16 131.5 -62t50.5 -130v-1q0 -85 -58 -140t-159 -55q-107 0 -165 61.5t-58 185.5zM242 357h-118v-120q0 -210 184 -210q81 0 127 44t46 116q0 79 -60 124.5
t-179 45.5zM124 521v-129h118q100 0 157.5 48t57.5 127q0 69 -43.5 110.5t-116.5 41.5q-81 0 -127 -52.5t-46 -145.5z" />
    <glyph glyph-name="cedilla.cap" unicode="&#xe066;" 
d="M237 -138l-46 20l82 127h33z" />
    <glyph glyph-name="hungarumlaut.cap" unicode="&#xe067;" 
d="M140 787l87 114l47 -23l-100 -91h-34zM263 787l87 114l48 -23l-101 -91h-34z" />
    <glyph glyph-name="breve.cap" unicode="&#xe06c;" 
d="M271 787q-52 0 -85.5 24.5t-38.5 69.5h36q18 -54 88 -54t88 54h36q-6 -45 -39 -69.5t-85 -24.5z" />
    <glyph glyph-name="abreve.alt" unicode="&#xe06d;" horiz-adv-x="605" 
d="M282 -11q-90 0 -154 75.5t-64 198.5v7q0 123 64 199t154 76q66 0 114.5 -38.5t75.5 -96.5v123h40v-533h-40v126q-67 -137 -190 -137zM286 27q77 0 132.5 67t55.5 169v8q0 102 -55.5 168.5t-132.5 66.5q-78 0 -128.5 -64.5t-50.5 -170.5v-7q0 -105 51.5 -171t127.5 -66z
M306 612q-53 0 -85.5 28t-37.5 79h33q19 -69 90 -69t90 69h33q-5 -51 -38 -79t-85 -28z" />
    <glyph glyph-name="acute.altlc" unicode="&#xe06f;" 
d="M205 833l84 110l46 -24l-97 -86h-33z" />
    <glyph glyph-name="zhe.bgr" unicode="&#xe072;" horiz-adv-x="782" 
d="M412 751v-464h93l182 246h49l-197 -264l207 -269h-50l-190 250h-94v-250h-41v250h-95l-190 -250h-49l206 270l-196 263h49l182 -246h93v464h41z" />
    <glyph glyph-name="hcoslug" unicode="&#xe073;" horiz-adv-x="694" 
d="M247 18h26q1 22 -19 22t-20 -21q2 -20 21 -20q15 0 18 14h-7q-1 -7 -9 -7q-10 0 -10 12zM254 35q7 0 7 -12h-14q0 12 7 12zM195 78q-8 0 -8 16q0 15 8 15t8 -15q0 -16 -8 -16zM210 4q-8 0 -8 16q0 15 8 15t8 -15q0 -16 -8 -16zM210 -1q9 0 15 6t6 15q0 20 -21 20t-21 -20
q0 -21 21 -21zM546 4q-8 0 -8 16q0 15 8 15t8 -15q0 -16 -8 -16zM546 -1q9 0 15 6t6 15q0 20 -21 20t-21 -20q0 -21 21 -21zM125 81v-7h30v7h-10v16h4q4 0 6 -8h7v23h-7q-2 -8 -6 -8h-4v18h12q5 0 7 -2t4 -11h8v20h-51v-7h7v-41h-7zM195 73q9 0 15 6t6 15q0 20 -21 20
t-21 -20q0 -21 21 -21zM644 700v-800h-594v800h594zM498 -1q22 0 24 23h-8q-1 -16 -14 -16q-16 0 -16 22t14 22q11 0 15 -16h8v22h-8l-1 -6q-7 7 -16 7q-12 0 -19.5 -8t-7.5 -22q0 -28 29 -28zM372 80q-8 0 -8 13t8 13q7 0 7 -13t-7 -13zM276 7v-7h23v7h-5v25h14v-25h-5v-7
h23v7h-6v52l-10 -2q-6 2 -9 2q-19 0 -19 -19v-1h-7v-7h7v-25h-6zM368 7v-7h26v7h-8v16q4 9 7 9v-1q0 -6 6 -6q7 0 7 7q0 8 -8 8q-7 0 -12 -11v10h-18v-7h6v-25h-6zM352 125v-52h6l4 8q5 -8 14 -8q16 0 16 21q0 20 -15 20q-10 0 -13 -9v27h-18v-7h6zM400 75q-7 0 -7 -7
q0 -9 11 -9q12 0 18 16l13 31h5v7h-17v-7h5l-8 -20l-9 20h6v7h-25v-7h5q2 -7 6 -13l10 -20q-2 -8 -8 -8q3 2 1.5 6t-6.5 4zM247 428q0 13 7.5 21t19.5 8q13 0 21 -10.5t8 -27.5q0 -22 -18 -50l-5 5q-13 13 -18.5 19t-10 15.5t-4.5 19.5zM302 88v-14h7l1 4q5 -5 13 -5
q14 0 14 13q0 9 -12 12t-12 6q0 4 5 4q6 0 10 -7h7v13h-6l-2 -5q-3 5 -11 5q-14 0 -14 -12q0 -9 12 -12.5t12 -6.5q0 -4 -5 -4q-6 0 -12 9h-7zM261 219q-23 0 -37.5 15.5t-14.5 38.5q0 24 16 40q30 -26 74 -82q-15 -12 -38 -12zM286 124l-12 -2v-9h-7v-7h7v-20q0 -13 12 -13
q11 0 14 13l-5 2q-1 -7 -5 -7t-4 5v20h13v7h-13v11zM428 306q15 -25 43 -25q21 0 35.5 15.5t14.5 38.5t-14.5 37.5t-35.5 14.5q-34 0 -60 -38q-4 39 -49 37q9 15 9 34q0 29 -25.5 51.5t-69.5 22.5q-48 0 -78.5 -25.5t-30.5 -59.5q0 -35 31 -69q-82 -28 -82 -91q0 -39 32 -66
t77 -27q63 0 104 45q42 -45 85 -45q33 0 55.5 25.5t24.5 68.5l-7 2q-19 -29 -43 -29q-27 0 -62 41q20 26 46 42zM219 81v-7h22v7h-4v15q0 10 7 10q6 0 6 -7v-18h-4v-7h22v7h-6v19q0 14 -12 14q-9 0 -14 -11v10h-17v-7h6v-25h-6zM464 33h-18v-7h6q-2 -4 -6 -9l-12 13
q11 5 11 12q0 12 -14 12q-17 0 -17 -14q0 -6 6 -12q-13 -4 -13 -15q0 -14 18 -14q9 0 15 6q4 -6 12 -6q10 0 13 12l-5 1q-2 -5 -4 -5q-3 0 -6 5q5 5 9 14h5v7zM429 6q-10 0 -10 10q0 5 4 9q9 -9 14 -16q-5 -3 -8 -3zM294 39v3q0 12 6 12q2 0 3 -1q-1 -1 -1 -4q0 -5 6 -5v-5
h-14zM425 43q0 5 5 5q6 0 6 -6t-5 -9q-6 6 -6 10zM312 342q28 18 42 34q29 -29 -1 -80q-33 38 -41 46zM340 18h26q1 22 -19 22q-8 0 -14 -6t-6 -15q0 -20 21 -20q13 0 18 14h-7q-1 -7 -9 -7q-10 0 -10 12zM347 35q7 0 7 -12h-14q0 12 7 12zM124 7v-7h29v7h-8v18h22v-18h-8
v-7h29v7h-8v41h8v7h-29v-7h8v-16h-22v16h8v7h-29v-7h8v-41h-8zM576 13q-7 0 -7 -7t7 -7t7 7t-7 7z" />
    <glyph glyph-name="commaaccent.cap" unicode="&#xe074;" 
d="M234 -210l-8 20q24 9 34 21t8 34h-25v63h57v-53q0 -37 -15.5 -56.5t-50.5 -28.5z" />
    <glyph glyph-name="de.bgr" unicode="&#xe077;" horiz-adv-x="603" 
d="M287 -158q-109 0 -201 62l21 35q80 -59 181 -59q84 0 132.5 46t48.5 135v101q-66 -127 -189 -127q-89 0 -152.5 70.5t-63.5 182.5v3q0 112 63.5 183t152.5 71q121 0 189 -125v113h41v-473q0 -101 -58 -159q-59 -59 -165 -59zM284 73q75 0 131.5 61.5t56.5 152.5v4
q0 93 -56.5 154t-131.5 61t-126 -59t-51 -155v-3q0 -95 51 -155.5t126 -60.5z" />
    <glyph glyph-name="aring.alt2" unicode="&#xe078;" horiz-adv-x="534" 
d="M231 -11q-73 0 -124.5 44.5t-51.5 120.5v3q0 79 55.5 125.5t146.5 46.5q80 0 152 -25v46q0 74 -40 113t-114 39q-77 0 -143 -38l-16 35q57 28 110 37q-36 27 -36 74q0 38 28.5 66t68.5 28t68.5 -28t28.5 -66q0 -50 -41 -77q46 -12 78 -43q48 -48 48 -137v-353h-40v94
q-57 -105 -178 -105zM234 26q74 0 125 48t51 115v77q-75 26 -153 26q-74 0 -116.5 -36t-42.5 -97v-3q0 -59 39 -94.5t97 -35.5zM267 540q29 0 48.5 20.5t19.5 49.5t-19.5 48.5t-48.5 19.5t-48 -19.5t-19 -48.5t19.5 -49.5t47.5 -20.5z" />
    <glyph glyph-name="tonos.cap" unicode="&#xe07b;" 
d="M140 561l18 167h49l-41 -167h-26z" />
    <glyph glyph-name="ka.bgr" unicode="&#xe07d;" horiz-adv-x="518" 
d="M134 751v-464h100l189 246h50l-204 -263l213 -270h-50l-196 250h-102v-250h-40v751h40z" />
    <glyph glyph-name="pe.bgr" unicode="&#xe081;" horiz-adv-x="572" 
d="M94 0v533h40v-102q20 49 63 81.5t107 32.5q86 0 134.5 -55t48.5 -151v-339h-41v329q0 85 -39 132t-110 47q-70 0 -116.5 -52t-46.5 -132v-324h-40z" />
    <glyph glyph-name="amacron.alt" unicode="&#xe082;" horiz-adv-x="605" 
d="M282 -11q-90 0 -154 75.5t-64 198.5v7q0 123 64 199t154 76q66 0 114.5 -38.5t75.5 -96.5v123h40v-533h-40v126q-67 -137 -190 -137zM286 27q77 0 132.5 67t55.5 169v8q0 102 -55.5 168.5t-132.5 66.5q-78 0 -128.5 -64.5t-50.5 -170.5v-7q0 -105 51.5 -171t127.5 -66z
M177 634v38h257v-38h-257z" />
    <glyph glyph-name="NUL" horiz-adv-x="0" 
 />
    <glyph glyph-name="CR" horiz-adv-x="265" 
 />
    <glyph glyph-name="Alphatonos.calt" horiz-adv-x="647" 
d="M50 0l285 733h42l286 -733h-47l-79 208h-364l-79 -208h-44zM189 247h332l-166 432z" />
    <glyph glyph-name="Epsilontonos.calt" horiz-adv-x="552" 
d="M103 0v728h431v-40h-388v-301h350v-40h-350v-307h393v-40h-436z" />
    <glyph glyph-name="Etatonos.calt" horiz-adv-x="643" 
d="M103 0v728h43v-342h405v342h44v-728h-44v347h-405v-347h-43z" />
    <glyph glyph-name="Iota.calt" horiz-adv-x="215" 
d="M110 0v728h43v-728h-43zM173 794v68h59v-68h-59zM25 794v68h59v-68h-59z" />
    <glyph glyph-name="Iotatonos.calt" horiz-adv-x="215" 
d="M110 0v728h43v-728h-43z" />
    <glyph glyph-name="Omegatonos.calt" horiz-adv-x="714" 
d="M388 739q135 0 217 -92t82 -240v-1q0 -203 -181 -368l201 2v-40h-257v36q93 80 143 169t50 200v2q0 132 -70.5 212.5t-185.5 80.5q-116 0 -185.5 -80.5t-69.5 -212.5v-2q0 -203 193 -369v-36h-256v40l199 -2q-180 164 -180 368v1q0 147 82.5 239.5t217.5 92.5z" />
    <glyph glyph-name="Omicrontonos.calt" horiz-adv-x="701" 
d="M379 -11q-134 0 -219 105t-85 266v7q0 161 85 266.5t220 105.5q134 0 219 -105t85 -266v-7q0 -161 -85 -266.5t-220 -105.5zM380 28q113 0 186.5 94.5t73.5 237.5v7q0 142 -74 237.5t-187 95.5q-114 0 -187 -94.5t-73 -237.5v-7q0 -142 74 -237.5t187 -95.5z" />
    <glyph glyph-name="Upsilon.calt" horiz-adv-x="555" 
d="M295 0v300l-261 428h50l233 -387l233 387h49l-261 -427v-301h-43zM340 790v68h59v-68h-59zM192 790v68h59v-68h-59z" />
    <glyph glyph-name="Upsilontonos.calt" horiz-adv-x="555" 
d="M295 0v300l-261 428h50l233 -387l233 387h49l-261 -427v-301h-43z" />
    <glyph glyph-name="descendercyrillic.cap" 
d="M250 -141v155h42v-155h-42z" />
    <glyph glyph-name="straightdescendercyrillic" 
d="M251 -134v134h-30v37h68v-171h-38z" />
    <glyph glyph-name="straightdescendercyrillic.cap" 
d="M249 -141v141h-33v40h75v-181h-42z" />
    </font>
</defs>
</svg>
